<svg width="48" height="96" viewBox="0 0 48 96" fill="none" xmlns="http://www.w3.org/2000/svg">
<path d="M41.3892 95.8942C41.3475 95.8386 41.2182 95.6994 41.102 95.5848C40.385 94.878 40.3742 92.767 41.0796 91.1783C41.3453 90.5797 41.499 86.7702 41.2413 87.169C40.9126 87.6777 40.6626 88.2784 40.6304 88.6371C40.6185 88.7687 40.5876 88.9139 40.5616 88.9597C40.5357 89.0056 40.4734 89.1931 40.4233 89.3764C40.0214 90.846 39.0197 92.2514 38.3743 92.2514C38.3115 92.2514 38.2826 92.2915 38.3092 92.3416C38.338 92.3957 38.3039 92.4239 38.2237 92.4121C38.1503 92.4013 38.0417 92.4121 37.9825 92.4352C37.1097 92.7813 36.73 92.7699 36.6233 92.3945C36.3531 91.4445 37.0636 89.5139 37.9976 88.6601C38.2454 88.4336 39.1999 87.8353 39.3156 87.8339C39.4174 87.8328 40.1135 87.0895 40.0153 87.087C39.9682 87.0857 39.9127 87.1168 39.8918 87.1559C39.7764 87.3726 38.5562 87.7128 38.2325 87.6186C37.8281 87.5008 38.3017 86.4551 39.0072 85.908C39.0911 85.8429 38.7058 85.1544 38.62 85.216C38.5853 85.2408 38.5527 85.1371 38.5476 84.9854C38.5373 84.6838 38.5379 84.5457 38.5542 83.2513C38.5603 82.7701 38.5614 82.3388 38.5566 82.293C38.5371 82.108 38.0444 83.955 37.8008 85.1263C37.404 87.0335 37.1997 87.7168 36.9785 87.8754C36.9383 87.9043 36.9054 87.9654 36.9054 88.0112C36.9054 88.057 36.9377 88.0714 36.9772 88.043C37.0167 88.0147 37.049 88.0329 37.049 88.0835C37.049 88.134 37.0032 88.1643 36.9472 88.1509C36.8039 88.1164 36.395 88.7919 36.4467 88.9777C36.4793 89.095 36.4728 89.1015 36.4159 89.0085C36.356 88.9107 36.3069 88.9267 36.1269 89.1025C35.5432 89.6724 34.6551 89.9233 34.4689 89.5709C34.0207 88.7225 34.5752 86.2759 35.3416 85.7204C35.4118 85.6696 35.4692 85.5807 35.4692 85.523C35.4692 85.4652 35.4935 85.418 35.5231 85.4179C35.5527 85.4179 35.6994 85.296 35.8491 85.1471C35.9988 84.9982 36.2135 84.7923 36.3263 84.6897C36.4391 84.587 36.6515 84.287 36.7982 84.023C36.945 83.759 37.1289 83.4369 37.207 83.3073C37.4496 82.9042 37.2962 82.9639 36.6765 83.5136C35.9253 84.1801 35.757 84.2868 35.1882 84.4578C34.3079 84.7225 33.315 84.4943 33.315 84.0273C33.315 83.7523 34.2328 82.5013 34.4345 82.5013C34.4653 82.5013 34.5616 82.4239 34.6484 82.3292C34.8011 82.1627 35.7507 81.8346 36.0799 81.8346C36.1688 81.8346 36.3505 81.783 36.4837 81.7199C36.6169 81.6568 36.8819 81.579 37.0725 81.5471C37.6431 81.4517 37.89 81.1172 38.5637 79.5269C39.1999 78.0252 39.221 77.8906 38.7395 78.4057C38.5619 78.5957 38.3882 78.7512 38.3536 78.7512C38.319 78.7512 38.2121 78.8356 38.1161 78.9387C37.8774 79.195 37.3348 79.6913 37.1822 79.7929C36.3735 80.3314 35.8981 80.5013 35.1996 80.5013C34.6596 80.5013 33.858 80.2872 33.5912 80.0718C33.4863 79.9872 33.3691 79.9179 33.3307 79.9179C33.0142 79.9179 33.0947 79.3447 33.4688 78.9349C33.6762 78.7077 33.7377 78.5012 33.598 78.5012C33.5562 78.5012 33.5406 78.4663 33.5633 78.4237C33.586 78.381 33.5695 78.3209 33.5267 78.2902C33.4839 78.2595 33.4662 78.1819 33.4874 78.1178C33.5086 78.0537 33.4975 78.0012 33.4627 78.0012C33.4279 78.0012 33.3776 77.8512 33.3509 77.6679C33.3242 77.4846 33.2758 77.3345 33.2432 77.3345C33.2107 77.3345 33.161 77.1752 33.1328 76.9804C33.0292 76.2639 32.9253 76.244 32.6463 76.8871C31.8606 78.698 31.7959 79.6549 32.3358 81.4753C32.957 83.5697 32.6021 85.9725 31.8161 84.9934C31.7349 84.8922 31.6854 84.7776 31.7061 84.7387C31.7268 84.6998 31.7087 84.668 31.6659 84.668C31.6231 84.668 31.5559 84.5649 31.5166 84.4388C31.4773 84.3128 31.4167 84.1347 31.3821 84.043C31.2661 83.7362 31.0913 82.7998 31.0194 82.1002C30.9803 81.7192 30.9346 81.3817 30.9178 81.3502C30.9011 81.3187 30.8678 81.0895 30.844 80.8409C30.8201 80.5922 30.7822 80.3675 30.7598 80.3414C30.6007 80.1568 29.7267 82.0085 29.5055 82.9989C29.3311 83.7798 29.0341 84.485 28.8227 84.6205C28.7461 84.6695 28.6673 84.7343 28.6474 84.7645C28.6276 84.7947 28.4822 84.8455 28.3243 84.8775C28.1664 84.9094 27.9198 85.023 27.7763 85.1299C27.3287 85.4632 26.6593 85.5022 26.5873 85.1991C26.3122 84.042 26.6947 82.9176 27.6511 82.0715C27.7725 81.9641 27.9622 81.7919 28.0726 81.6888C28.183 81.5857 28.3091 81.5013 28.3528 81.5013C28.3964 81.5013 28.4322 81.4638 28.4322 81.4179C28.4322 81.3721 28.4818 81.3346 28.5424 81.3346C28.6767 81.3346 29.0066 81.0928 29.0066 80.9943C29.0066 80.9156 28.9012 80.9511 28.4535 81.1805C27.4668 81.6862 26.3993 81.6302 25.8962 81.0463C25.7055 80.8251 26.2237 79.9179 26.5407 79.9179C26.5937 79.9179 26.637 79.8835 26.637 79.8415C26.637 79.6271 27.753 79.3685 29.0374 79.2854C29.9253 79.228 30.1712 79.0731 30.6693 78.2575C30.7973 78.0478 30.9208 77.8575 30.9436 77.8346C30.9664 77.8116 31.0931 77.6318 31.2252 77.4349C31.4677 77.0733 31.4838 76.8667 31.251 77.1019C31.1378 77.2164 30.0512 77.8346 29.9633 77.8346C29.9436 77.8346 29.7283 77.9411 29.485 78.0713C29.2416 78.2015 28.8486 78.3353 28.6117 78.3686C28.3747 78.4019 28.0193 78.4552 27.8218 78.4871C27.2335 78.5822 26.5923 78.4443 26.1162 78.1205C25.885 77.9632 25.6649 77.8346 25.6271 77.8346C25.5835 77.8346 25.5756 80.6976 25.6053 85.6635L25.6522 93.4924L25.4294 93.4596C25.1997 93.4259 24.6318 93.1074 24.5379 92.9598C24.5026 92.9042 24.4846 92.9042 24.4839 92.9598C24.4833 93.0056 24.3858 93.0431 24.2674 93.0431C24.1489 93.0431 24.0519 93.015 24.0519 92.9806C24.0519 92.9463 24.0842 92.9181 24.1237 92.9181C24.1632 92.9181 24.1951 92.8525 24.1945 92.7723C24.1935 92.6479 24.1833 92.6448 24.1248 92.7515C24.046 92.8953 24.0775 91.635 24.1603 91.3323C24.1882 91.2305 24.1832 91.1671 24.1494 91.1913C24.0768 91.2433 24.0763 91.1727 24.0572 78.7179C24.0451 70.8088 24.0596 69.0468 24.1369 68.9898C24.2088 68.937 24.202 68.92 24.1087 68.919C23.7264 68.915 22.8312 67.2088 22.8312 66.484C22.8312 66.1449 22.7019 66.4479 22.6283 66.9594C22.2931 69.2893 20.6671 71.7777 20.118 70.801C19.5983 69.8768 20.0891 68.5387 21.5926 66.781C22.1553 66.123 22.6158 65.5606 22.6158 65.5312C22.6158 65.4036 21.1334 65.7303 20.1744 66.0693C19.489 66.3116 18.828 67.5004 18.5907 68.9177C18.5485 69.1698 18.4978 69.469 18.4781 69.5825C18.3651 70.2336 17.9019 71.1731 17.528 71.5096C16.8371 72.1313 16.4596 72.2207 16.3351 71.792C16.2953 71.6549 16.2462 71.524 16.2259 71.5011C15.9052 71.1384 16.7155 68.3773 17.3936 67.5222C17.6325 67.221 17.5004 67.2333 17.2128 67.5391C17.0678 67.6933 16.6651 68.0563 16.3178 68.3458C15.9705 68.6353 15.4764 69.0939 15.2197 69.3649C14.7739 69.8356 14.2562 70.2659 13.7117 70.6183C13.2711 70.9035 11.6593 70.9486 11.8068 70.6716C11.824 70.6394 11.7048 70.5449 11.542 70.4615C10.7641 70.0632 10.5891 69.6467 10.9082 68.9529C11.5545 67.5471 11.9958 67.3137 14.2144 67.2038C15.685 67.131 16.5849 66.8842 17.5175 66.2979L18.0561 65.9594L17.085 65.9066C16.5254 65.8762 15.9777 65.8001 15.7925 65.727C15.1882 65.4885 14.8607 65.3163 14.8607 65.2371C14.8607 65.1935 14.8286 65.1809 14.7894 65.209C14.5935 65.3495 13.3875 63.6745 13.2777 63.1094C13.1914 62.6654 13.2996 62.6242 14.516 62.6387C15.9768 62.656 16.1044 62.7308 17.6346 64.4687C18.4077 65.3466 19.1087 65.5587 19.9748 65.1765C20.2316 65.0632 21.5614 64.8875 22.0413 64.9035L22.4363 64.9167L22.0938 64.5403C21.4323 63.8134 20.7545 63.564 18.6664 63.2787C18.4097 63.2436 18.1674 63.2086 18.1279 63.2009C18.0884 63.1932 18.0193 63.1826 17.9744 63.1773C17.8086 63.1578 16.8712 62.3415 16.8712 62.2166C16.8712 62.1977 16.7576 61.982 16.6188 61.7374C16.3822 61.3206 16.3743 61.2855 16.4931 61.1791C17.1316 60.6074 18.4325 60.5134 19.2465 60.9801C19.5064 61.1291 19.7426 61.251 19.7714 61.251C19.8002 61.251 20.0804 61.4776 20.394 61.7547C20.7076 62.0318 20.9642 62.2215 20.9642 62.1763C20.9642 62.1311 20.9347 62.073 20.8987 62.0471C20.7303 61.9263 20.6663 59.9189 20.8203 59.5851C20.8984 59.4156 20.8921 59.4066 20.737 59.4646C19.8728 59.7879 18.9536 59.2771 18.9536 58.4734C18.9536 58.4079 18.8244 58.1998 18.6665 58.0109C18.5085 57.822 18.3793 57.6487 18.3792 57.6259C18.379 57.4031 18.3698 57.386 18.3119 57.5009C18.2772 57.5697 18.2395 57.7947 18.228 58.0009C18.1684 59.0699 17.4867 60.0888 16.7679 60.1829C16.5454 60.2121 16.3347 59.6207 16.4062 59.1676C16.4242 59.053 16.4561 58.7915 16.477 58.5864C16.5005 58.3551 16.6302 57.9915 16.8186 57.6281C17.1861 56.9197 17.1362 54.1064 16.765 54.5997C16.7542 54.6141 16.5909 54.9634 16.4021 55.3759C15.7242 56.8571 15.1689 57.51 14.1723 57.998L13.7326 58.2133L13.8182 58.6043L13.9037 58.9953L13.6103 59.1581C13.4489 59.2476 13.2055 59.4176 13.0695 59.5359C12.5395 59.9967 11.5827 59.6495 11.1747 58.8483C10.9936 58.4927 10.898 58.7275 11.05 59.1547C11.2425 59.6954 11.0461 61.2224 10.7983 61.1121C10.6981 61.0674 10.6574 61.2422 10.6836 61.6051C10.6894 61.6853 10.6632 61.751 10.6255 61.751C10.5877 61.751 10.5774 61.8134 10.6026 61.8896C10.628 61.9665 10.6187 62.0069 10.5816 61.9804C10.5448 61.954 10.4524 61.9853 10.3762 62.05C10.2447 62.1616 10.2444 62.1676 10.3698 62.1676C10.4572 62.1676 10.3948 62.252 10.1861 62.4161C9.78029 62.7352 9.74624 62.7316 9.47924 62.3403C9.02095 61.6688 9.04836 61.2796 9.65871 59.7926C10.3489 58.1111 10.3857 57.8381 9.79095 58.8134C9.60227 59.1228 9.42743 59.3947 9.40242 59.4176C9.37741 59.4405 9.33469 59.5155 9.30748 59.5843C9.25715 59.7115 8.69799 60.7253 8.26921 61.4669C8.10786 61.7459 8.04752 61.9289 8.07937 62.0426C8.41931 63.2562 7.82935 64.8822 6.96189 65.1226C6.70213 65.1946 6.45223 64.6724 6.48718 64.1307C6.5047 63.8591 6.47562 63.6909 6.38865 63.5607C6.32079 63.4591 6.24981 63.3202 6.23092 63.2521C6.20741 63.1673 6.13318 63.2393 5.99564 63.4805C5.81683 63.7941 5.54948 64.0837 4.56756 65.0274C4.41574 65.1733 4.18955 65.4081 4.06491 65.5492C3.94027 65.6903 3.74538 65.8778 3.63183 65.9659C3.51827 66.054 3.34055 66.1915 3.23689 66.2714C2.58153 66.777 0.422715 66.2621 0.429937 65.602C0.446541 64.0843 1.61966 63.095 3.65878 62.8793C4.42231 62.7985 4.94478 62.5769 5.41084 62.1364C5.63103 61.9282 5.87899 61.7158 5.96185 61.6644C6.20406 61.5139 6.08537 61.4974 5.70846 61.629C5.51643 61.6961 5.22541 61.751 5.06175 61.751C4.86145 61.751 4.57003 61.8599 4.17022 62.0843C3.38452 62.5253 2.29445 62.6179 2.29445 62.2438C2.29445 62.2031 2.18943 62.1151 2.06107 62.0482C1.76238 61.8924 1.61645 61.7497 1.55173 61.5499C1.43583 61.1921 2.73022 60.0775 3.41807 59.9428C3.59499 59.9082 3.65286 59.8478 3.68437 59.6649C3.7316 59.3909 4.08957 58.8929 4.3849 58.6905C4.61536 58.5325 4.65347 58.4176 4.47542 58.4176C4.32028 58.4176 3.44336 58.9211 3.44336 59.0102C3.44336 59.0937 3.09825 59.3163 2.65348 59.5197C1.91308 59.8583 1.10904 59.6199 0.447557 58.8656L0 58.3552L0.142151 58.1572C0.959845 57.0183 1.35573 56.7776 2.43806 56.7616C2.85275 56.7554 3.38591 56.7922 3.62287 56.8434C4.67425 57.0706 5.41254 57.0827 4.66033 56.8604C3.60949 56.55 2.72473 55.7755 2.4839 54.9552L2.3729 54.5771L2.56705 54.49C3.36583 54.1316 4.72018 54.5773 5.73443 55.5325C6.33724 56.1002 6.40801 56.1408 7.20099 56.375C7.56316 56.4819 8.00489 56.6314 8.18261 56.7072C8.56123 56.8687 8.54562 56.8662 9.00839 56.8408C9.35056 56.822 9.35731 56.8172 9.15201 56.7387C8.70965 56.5694 8.35573 56.3819 8.14671 56.2061C7.92222 56.0172 7.61549 55.8709 7.51222 55.9034C7.47919 55.9138 7.43681 55.8541 7.41804 55.7708C7.39926 55.6875 7.31318 55.5819 7.22675 55.5362C7.14032 55.4905 7.07768 55.4076 7.08756 55.352C7.09743 55.2964 7.07608 55.2509 7.04011 55.2509C7.00414 55.2509 6.90561 55.0915 6.82115 54.8967C6.7367 54.7019 6.63855 54.4863 6.60304 54.4175C6.54081 54.297 6.29942 53.3578 6.2148 52.9069C6.16991 52.6677 6.33695 52.5842 6.85978 52.5842C7.09563 52.5842 7.20535 52.6243 7.80612 52.93C8.414 53.2394 8.94829 54.0426 9.2923 55.1643C9.72897 56.5881 10.1486 56.8916 10.7917 56.2487C11.0509 55.9896 11.4193 55.7003 12.0602 55.2526C12.3959 55.0181 12.719 54.792 12.7783 54.7502C13.3055 54.378 14.0003 53.9175 14.0345 53.9175C14.0578 53.9175 14.2841 53.805 14.5375 53.6675C14.7909 53.53 15.0462 53.4175 15.1047 53.4175C15.1633 53.4175 15.2292 53.3838 15.2511 53.3425C15.2731 53.3013 15.4528 53.2225 15.6505 53.1675C16.1684 53.0233 16.1522 52.9656 15.4881 52.5891C14.6548 52.1166 14.5437 52.1343 13.5681 52.8947C12.6424 53.6162 12.4132 53.7361 11.7839 53.8276C11.2256 53.9089 10.9943 53.885 10.9077 53.7373C10.8859 53.7002 10.5224 53.6659 10.0998 53.6611L9.33152 53.6523V53.4051C9.33152 52.6619 10.6849 51.8107 11.8247 51.8371C12.2504 51.847 12.9611 51.826 13.4039 51.7904L14.2091 51.7257L13.72 51.5346C12.2362 50.9547 11.0761 50.7577 10.3831 50.968C9.18985 51.3302 6.92139 51.1301 6.39419 50.6162C6.0505 50.2812 6.17326 49.6674 6.58396 49.6674C6.63777 49.6674 6.77726 49.6102 6.89393 49.5401C7.05745 49.442 7.36727 49.4123 8.24603 49.4103C9.24762 49.4081 9.38487 49.3916 9.37671 49.2741C9.34209 48.7754 10.5836 49.0154 11.2146 49.6294C11.3222 49.7341 11.5323 49.8631 11.6814 49.9161C11.8305 49.9691 12.0171 50.0426 12.0961 50.0795C12.7743 50.3967 12.7437 50.3942 12.5887 50.1197C12.4687 49.9072 11.5885 48.9914 11.273 48.7508C11.1829 48.682 11.0727 48.5862 11.0281 48.5378C10.9836 48.4894 10.8906 48.4249 10.8215 48.3945C10.7524 48.3642 10.6956 48.2913 10.6954 48.2325C10.6951 48.1738 10.582 48.0365 10.444 47.9275C10.3061 47.8185 10.1932 47.6844 10.1932 47.6295C10.1932 47.5747 10.1134 47.4428 10.0159 47.3365C9.91838 47.2302 9.85566 47.1111 9.87652 47.072C9.89739 47.0328 9.88023 47.0007 9.83841 47.0007C9.79659 47.0007 9.76236 46.8904 9.76236 46.7556C9.76236 46.6209 9.72786 46.4858 9.68569 46.4556C9.58743 46.3851 9.61763 45.4791 9.7209 45.3992C9.87257 45.2818 10.7469 45.515 11.1861 45.7899C11.3869 45.9156 11.4799 46.0247 11.9695 46.7091C12.2251 47.0664 13.3527 49.497 13.3527 49.6907C13.3527 49.9868 14.5764 51.3341 14.8453 51.3341C14.8836 51.3341 14.9551 51.3904 15.0043 51.4591C15.2894 51.8579 15.2228 51.4416 14.9309 51.0008C13.7671 49.2431 13.0137 44.8374 13.955 45.2938C14.8158 45.7112 15.584 47.1144 15.688 48.4591C15.7588 49.3744 15.7957 49.9515 15.8374 50.7925C15.8836 51.7254 16.0196 52.1233 16.3754 52.3672C16.4901 52.4459 16.584 52.5456 16.584 52.5889C16.584 52.8887 16.7188 52.5764 16.7569 52.1883C16.8369 51.3743 16.8526 51.2764 16.9764 50.8194C17.5957 48.5338 19.5281 46.5677 19.5281 48.2232C19.5281 48.4675 19.5422 48.6674 19.5593 48.6674C19.5765 48.6674 19.6815 48.6255 19.7927 48.5743C20.2709 48.3539 20.4814 48.3407 20.8862 48.5058C21.2385 48.6495 21.7059 48.7428 21.3951 48.6073C21.2552 48.5464 20.597 47.7728 20.4442 47.4897C20.2776 47.1813 20.391 47.0481 20.9791 46.8615L21.4606 46.7086L21.2873 46.2505C21.192 45.9985 20.902 45.1174 20.643 44.2924C20.384 43.4674 20.1403 42.7272 20.1014 42.6476C20.0626 42.568 20.0308 42.465 20.0308 42.4187C20.0308 42.3724 19.9375 42.1 19.8236 41.8134C19.7097 41.5268 19.4495 40.8236 19.2455 40.2506C19.0415 39.6777 18.8297 39.0964 18.7749 38.9589C18.6343 38.6064 18.4186 38.0105 18.3074 37.6673C17.9754 36.6423 17.8626 36.3952 17.7154 36.3701C17.0223 36.2521 16.8061 35.9162 17.181 35.5401L17.4397 35.2806L17.1962 34.5364C17.0623 34.1271 16.8889 33.6424 16.8109 33.4593C16.7329 33.2763 16.6841 33.0981 16.7026 33.0635C16.721 33.0289 16.6965 33.0005 16.6481 33.0005C16.5997 33.0005 16.5797 32.9778 16.6037 32.95C16.6276 32.9221 16.5684 32.6925 16.472 32.4396C16.3756 32.1867 16.2968 31.9452 16.2968 31.9029C16.2968 31.8607 16.1792 31.5372 16.0354 31.1841C15.8917 30.831 15.7481 30.4671 15.7164 30.3755C15.5538 29.9056 15.2716 29.2038 15.2305 29.1671C15.2048 29.1442 15.1048 28.9496 15.0082 28.7348C14.9116 28.5199 14.8075 28.362 14.7769 28.384C14.7463 28.406 14.6989 28.3205 14.6716 28.1942C14.6187 27.9499 14.5749 27.8746 14.2778 27.5178C14.1745 27.3936 13.9122 27.0483 13.6949 26.7504C12.9506 25.7297 11.545 24.1633 11.3794 24.17C11.3392 24.1716 11.2254 24.2265 11.1267 24.292C10.777 24.524 10.6737 24.4624 10.7266 24.0532C10.7907 23.5568 10.4645 23.3403 9.87649 23.4889C8.92918 23.7283 7.65582 23.2824 7.44221 22.6363C7.36851 22.4135 7.49799 22.414 7.99908 22.6388C8.44143 22.8372 8.50658 22.8463 8.76696 22.7466C9.0681 22.6312 9.19858 22.4906 9.05573 22.4353C9.00854 22.4171 8.92808 22.3536 8.87695 22.2942C8.15934 21.4614 7.42708 21.7429 7.32745 22.8899C7.24066 23.889 6.82508 24.5004 6.23279 24.5004C6.00218 24.5004 5.99096 24.4617 6.13612 24.167C6.19526 24.047 6.23982 23.7283 6.24128 23.4147C6.24294 23.0614 6.28301 22.8059 6.35561 22.6856C6.41709 22.5837 6.43438 22.5004 6.39404 22.5004C6.25476 22.5004 6.14157 22.8774 6.09577 23.494C6.04675 24.1538 5.84905 24.5004 5.52175 24.5004C5.3547 24.5004 5.35342 24.4781 5.4937 24.0106C5.55391 23.8099 5.59286 23.6338 5.58026 23.6192C5.52206 23.5516 5.02311 24.196 5.02311 24.3388C5.02311 24.6606 4.35902 25.3012 4.13072 25.1995C3.99548 25.1393 3.9883 25.068 4.10398 24.9337C4.171 24.8559 4.15062 24.8337 4.01225 24.8337C3.72728 24.8337 3.51555 24.6111 3.5124 24.3082C3.51025 24.1011 3.45866 24.0048 3.27982 23.8743C3.15343 23.782 3.03991 23.632 3.02756 23.5409C3.01522 23.4499 2.96901 23.291 2.92487 23.1879C2.86661 23.0517 2.86609 22.949 2.92299 22.8129C2.96608 22.7097 3.02048 22.5229 3.04387 22.3977C3.0874 22.1647 3.44749 21.871 3.55257 21.9828C3.58315 22.0154 3.58423 21.9483 3.55496 21.8337C3.42337 21.3186 3.42759 21.181 3.57964 21.0299C3.74366 20.867 3.78594 20.5165 3.64083 20.5227C3.37637 20.5341 3.28966 20.4707 3.1571 20.1692C3.02517 19.8691 2.9914 19.8427 2.7966 19.8879C2.51154 19.9541 2.47531 19.6178 2.75862 19.5353C2.85594 19.5069 2.95606 19.4088 2.98111 19.3172C3.0147 19.1944 3.07236 19.1608 3.20081 19.1893C3.2966 19.2106 3.39227 19.1955 3.41341 19.1558C3.48418 19.0229 3.73035 19.0788 3.73768 19.2295C3.74159 19.3097 3.78717 19.2193 3.83898 19.0286C3.96732 18.5562 4.16609 18.3507 4.57232 18.2706C4.88272 18.2094 4.91324 18.1834 4.89274 17.9975C4.81858 17.3249 4.33502 16.3336 4.0811 16.3336C3.76378 16.3336 3.55189 15.8679 3.83207 15.7863C3.93047 15.7576 4.02284 15.655 4.0458 15.5488C4.07883 15.3961 4.12514 15.3685 4.29857 15.398C4.48122 15.4291 4.50573 15.4112 4.47389 15.2699C4.44489 15.1412 4.48073 15.0959 4.63947 15.0607C4.99631 14.9815 5.21058 15.2696 5.13475 15.7266C5.11642 15.837 5.18112 15.9816 5.316 16.1316C5.44197 16.2716 5.52576 16.3196 5.52576 16.2516C5.52576 16.1893 5.58087 16.0677 5.64823 15.9813C5.74822 15.8531 5.75481 15.7947 5.68414 15.6634C5.4911 15.3047 5.6404 15.0427 6.19581 14.7657C6.78699 14.4708 7.10886 15.3578 6.77599 16.3645C6.70383 16.5828 6.85522 16.5214 7.09699 16.2344C7.36681 15.9141 7.3671 15.91 7.14141 15.5988C6.78836 15.1118 6.99656 14.6063 7.37907 15.0217C7.65662 15.3231 7.8679 15.3812 7.91567 15.1692C8.01234 14.7402 8.48695 14.9804 8.72609 15.5795C9.02309 16.3234 8.91026 16.7572 8.33288 17.0913C7.99086 17.2892 7.59756 17.7269 7.27225 18.2717L7.08364 18.5875L7.23819 18.7785C7.46043 19.053 7.43205 19.167 7.14141 19.167C6.83849 19.167 6.8298 19.236 7.08712 19.5981C7.41921 20.0654 7.4831 20.1024 7.62354 19.9088C7.7564 19.7258 7.90596 20.0282 7.79013 20.2457C7.73649 20.3464 7.99216 20.6406 8.74382 21.3429C9.31217 21.8739 9.41063 21.9257 9.35137 21.6628C9.33019 21.5687 9.37217 21.364 9.44467 21.2078C9.55877 20.9619 9.5659 20.8644 9.49772 20.4828C9.40562 19.9673 9.41539 19.942 9.65677 20.0696C9.8113 20.1513 9.84572 20.1439 9.8831 20.0206C10.1069 19.2828 10.2955 19.1509 10.6799 19.4634C10.9886 19.7143 10.711 19.1213 10.3927 18.8497C10.132 18.6274 10.457 18.3789 10.9008 18.4613C11.1315 18.5041 11.1455 18.4974 11.019 18.405C10.9372 18.3452 10.687 18.3062 10.4374 18.3144C9.85869 18.3333 9.67967 18.2008 9.85777 17.8854C10.0501 17.5448 10.624 17.6999 10.624 18.0925C10.624 18.1433 10.6751 18.1621 10.7375 18.1343C10.8823 18.0698 11.2094 18.1625 11.1606 18.2541C11.1402 18.2923 11.1808 18.3276 11.2508 18.3325C11.3208 18.3374 11.5961 18.3616 11.8627 18.3863C12.1871 18.4163 12.3474 18.4013 12.3474 18.3407C12.3474 18.291 12.3232 18.2562 12.2936 18.2635C12.2639 18.2708 12.1912 18.2552 12.132 18.2288C12.0728 18.2024 11.9325 18.1574 11.8203 18.1288C11.6896 18.0954 11.6296 18.0365 11.6532 17.9649C11.7109 17.7905 10.7754 17.5525 9.9907 17.5419C9.22985 17.5316 9.08311 17.4321 9.34735 17.1057C9.5414 16.866 9.94051 16.8471 10.0445 17.0726C10.084 17.1583 10.0932 17.2576 10.065 17.2933C10.0368 17.329 10.0945 17.3344 10.1932 17.3054C10.2919 17.2763 10.4258 17.252 10.4907 17.2514C10.755 17.2489 10.4989 16.6147 10.1196 16.3323C9.65865 15.989 9.62418 15.5147 10.0748 15.7153C10.1387 15.7438 10.2133 15.6958 10.2589 15.5968C10.3365 15.4285 10.9886 15.3914 11.2002 15.5431C11.3788 15.6712 11.3446 15.4944 11.1529 15.2988C11.0312 15.1746 10.8575 15.0878 10.7275 15.0862C10.3899 15.0821 10.2023 14.8945 10.3567 14.7153C10.6876 14.3312 11.2567 14.3866 11.1685 14.7943C11.1408 14.9222 11.1628 15.0154 11.231 15.0597C11.2889 15.0973 11.4298 15.2736 11.5441 15.4516C11.6843 15.6698 11.8173 15.7833 11.9526 15.8C12.1702 15.8269 12.1161 15.7087 11.8807 15.643C11.7737 15.6132 11.7883 15.6004 11.9378 15.5932C12.2269 15.5793 12.5251 15.9372 12.418 16.1695C12.3748 16.2632 12.3596 16.4135 12.3842 16.5034C12.4095 16.5962 12.3957 16.6669 12.3523 16.6669C12.3101 16.6669 12.2756 16.5744 12.2756 16.4612C12.2756 16.32 12.2444 16.2694 12.176 16.2998C12.0968 16.3351 12.0919 16.4029 12.1522 16.6306C12.2213 16.8918 12.3474 17.0266 12.3474 16.8392C12.3474 16.7965 12.4162 16.7362 12.5002 16.7052C12.7852 16.6003 12.5141 14.5203 12.2218 14.5685C12.0856 14.591 12.0602 14.5566 12.0602 14.3496C12.0602 14.0757 12.2349 13.8327 12.2989 14.0176C12.3201 14.079 12.3387 14.0537 12.3422 13.9586C12.3455 13.8669 12.3966 13.6845 12.4556 13.5532C12.5146 13.4219 12.5628 13.2446 12.5628 13.1593C12.5628 13.0739 12.6355 12.9487 12.7244 12.8811C12.939 12.7177 13.1163 12.2945 13.1633 11.8335L13.2014 11.4585L12.8103 11.4474C11.9951 11.4241 11.8489 11.3754 11.619 11.0504C11.4686 10.8378 11.5521 10.7123 11.8927 10.6392C12.1466 10.5847 12.4486 10.7971 12.5275 11.0857C12.5732 11.2526 13.2809 11.3453 13.2809 11.1844C13.2809 11.1482 13.1938 11.1201 13.0874 11.1219C12.9277 11.1246 12.8856 11.0797 12.8471 10.8656C12.8214 10.7228 12.7182 10.4791 12.6177 10.3239C12.1622 9.62057 11.986 8.61251 12.2438 8.18534C12.3688 7.97825 12.8011 7.92402 12.8966 8.10345C12.9338 8.17323 12.9653 8.13963 12.9937 7.99995C13.0168 7.8862 13.1107 7.74979 13.2022 7.69683L13.3686 7.60054L13.1991 7.53479C12.9502 7.43825 12.7465 7.48575 12.2895 7.74686C11.5902 8.14638 10.7165 8.22794 10.096 7.95161C9.93923 7.88179 9.94444 7.60579 10.1034 7.55756C10.1726 7.5366 9.96092 7.5151 9.63314 7.50978C8.98057 7.4992 8.61345 7.34896 8.61345 7.09249C8.61345 6.9569 8.64878 6.94709 8.91863 7.00767C9.3939 7.11437 9.41153 7.1087 9.35904 6.866C9.31401 6.65778 9.32179 6.65105 9.54234 6.70727C9.77188 6.76577 9.77222 6.76536 9.64185 6.58733C9.56991 6.48907 9.51104 6.28862 9.51104 6.14189V5.87509L8.93659 5.83253C8.34635 5.7888 7.94993 5.61858 7.86911 5.37415C7.83104 5.25901 7.88056 5.24929 8.25482 5.29843L8.68422 5.35481L8.60276 5.07328C8.55796 4.91843 8.47742 4.73254 8.42377 4.66018C8.13585 4.27183 8.36539 3.75006 8.82415 3.75006C8.94523 3.75006 9.0443 3.71544 9.0443 3.67312C9.0443 3.29291 9.59936 2.97701 9.86198 3.20775C10.0308 3.35611 10.2777 3.19306 10.3151 2.90841C10.3569 2.59079 10.5652 2.16708 10.6861 2.15374C10.9201 2.12793 11.1473 2.1785 11.297 2.28968C11.549 2.47683 11.8 2.46971 12.0196 2.26919C12.351 1.96667 12.6912 2.11485 12.8963 2.65113L12.982 2.87505L12.9878 2.64587C12.995 2.36278 13.1402 2.34785 13.3927 2.60421C13.4943 2.70733 13.6472 2.81192 13.7325 2.83662C13.8333 2.86582 13.9117 2.98242 13.9568 3.16996C13.9949 3.32859 14.0554 3.48161 14.0913 3.51C14.1272 3.53839 14.1615 3.66194 14.1675 3.78457C14.1766 3.96942 14.2051 3.99977 14.3343 3.9622C14.5296 3.90543 14.717 3.98459 14.717 4.12378C14.717 4.18201 14.7669 4.27773 14.8279 4.33648C14.9034 4.40914 14.9247 4.51797 14.8946 4.67684C14.8703 4.80528 14.8819 4.97556 14.9203 5.05522C14.9772 5.17323 15.0021 5.13136 15.0549 4.82923C15.1045 4.54524 15.1487 4.46428 15.2438 4.4835C15.3816 4.51137 15.3596 4.27212 15.1802 3.79173C15.1288 3.65422 15.0656 3.41953 15.0397 3.27019C15.0138 3.12085 14.9306 2.96015 14.8548 2.91309C14.6725 2.79984 14.6782 2.4577 14.8662 2.22572L15.0154 2.0417L15.189 2.2917C15.3964 2.5904 15.4131 2.83385 15.2301 2.88941C15.0973 2.92971 15.1344 3.23744 15.3105 3.55547C15.34 3.60886 15.3842 3.87436 15.4086 4.14546L15.453 4.63838L15.6236 4.44044C15.7246 4.32322 15.7941 4.14409 15.7941 4.00119C15.7941 3.86848 15.8314 3.7332 15.8768 3.70058C16.008 3.60649 16.1584 3.92152 16.1174 4.20435C16.0632 4.57746 16.2441 4.83125 16.4271 4.63901C16.5001 4.56239 16.5814 4.52479 16.6078 4.55545C16.7207 4.68649 16.6433 4.42072 16.5122 4.22733C16.2628 3.85928 16.5437 3.53088 17.1537 3.47756C17.2353 3.47042 17.3204 3.39756 17.3428 3.31565C17.3709 3.21309 17.4559 3.16672 17.6157 3.16672C17.7434 3.16672 17.8809 3.12836 17.9213 3.08147C18.0091 2.97951 18.4974 3.19214 18.6743 3.40941C18.8368 3.60894 18.8083 4.10811 18.62 4.35919C18.5353 4.47224 18.4437 4.68233 18.4165 4.82606C18.3204 5.33356 17.6852 5.91676 17.2286 5.91676C17.1552 5.91676 17.074 5.95637 17.0483 6.00477C16.9879 6.11821 17.5123 6.05378 17.7251 5.92163C17.8093 5.86934 17.9226 5.83747 17.9769 5.85082C18.0312 5.86417 18.1902 5.73447 18.3303 5.56259C18.4704 5.39071 18.6598 5.24576 18.7514 5.24047C19.1664 5.21649 19.2494 5.14018 19.4789 4.57147C19.8477 3.65757 20.9642 3.32861 20.9642 4.13387C20.9642 4.16163 21.045 4.29576 21.1438 4.43193C21.2425 4.56811 21.3244 4.74228 21.3258 4.81897C21.3311 5.107 21.5211 5.3982 21.58 5.20842C21.8253 4.41752 21.9695 4.31136 21.9695 4.92166C21.9695 5.13261 22.0023 5.25008 22.0613 5.25008C22.1117 5.25008 22.2329 5.31531 22.3305 5.39504C22.6434 5.65046 22.8601 5.60029 23.2395 5.18464C23.4296 4.97633 23.5206 4.83516 23.4416 4.87093C22.7691 5.17548 21.9995 4.51767 22.2916 3.88807C22.407 3.63949 22.4143 3.56024 22.3396 3.36989C22.2911 3.2463 22.2688 3.12502 22.29 3.10039C22.3112 3.07576 22.3297 3.08998 22.3312 3.13199C22.3326 3.17401 22.3974 3.00296 22.4752 2.75188C22.693 2.04879 23.3339 1.70528 23.3339 2.29161C23.3339 2.34919 23.3823 2.44298 23.4416 2.50004C23.5008 2.5571 23.5493 2.71169 23.5493 2.84358C23.5493 3.04982 23.577 3.08338 23.7474 3.08338C23.8678 3.08338 23.9808 3.14879 24.0353 3.25005C24.2898 3.72308 24.389 3.42001 24.1581 2.87505C24.0609 2.64587 23.9811 2.39527 23.9808 2.31815C23.9804 2.24103 23.9204 2.15593 23.8474 2.12905C23.4511 1.98307 23.5183 1.10729 23.9185 1.20182C24.2813 1.28749 24.5434 1.80877 24.2661 1.89294C24.0304 1.96446 24.1728 2.7401 24.4254 2.76046C24.6459 2.77824 24.6845 2.78975 24.7401 2.85421C24.7697 2.88859 24.9178 2.91671 25.0692 2.91671C25.4104 2.91671 25.434 2.75206 25.129 2.50004C24.8715 2.2872 24.8256 1.87702 25.0501 1.79432C25.1252 1.76668 25.2066 1.65165 25.231 1.5387C25.2554 1.42576 25.3232 1.33335 25.3817 1.33335C25.4574 1.33335 25.4881 1.24005 25.4881 1.01022C25.4881 0.824653 25.5339 0.642919 25.5958 0.583342C25.655 0.526284 25.7035 0.432254 25.7035 0.374386C25.7035 0.2811 25.9975 0 26.095 0C26.1156 0 26.2091 0.140627 26.3026 0.312505C26.4463 0.576568 26.5152 0.627614 26.7468 0.641807C27.1189 0.664606 27.2711 0.870001 27.3692 1.48175C27.423 1.81791 27.4785 1.97511 27.529 1.93474C27.8807 1.65372 28.1339 2.08429 27.8651 2.5062C27.7177 2.73768 27.7176 2.74011 27.8589 2.79214C27.975 2.8349 28.0013 2.91888 28.0013 3.24595C28.0013 3.56802 28.0279 3.65534 28.1357 3.68807C28.2096 3.7105 28.3283 3.88188 28.3994 4.06892C28.4965 4.32447 28.5549 4.39194 28.6342 4.34042C28.7508 4.2647 28.9932 4.31266 29.1323 4.43898C29.2733 4.56703 29.242 4.18408 29.0768 3.76179C28.93 3.38611 28.9019 3.04541 28.9802 2.59054C29.0422 2.23119 29.1727 2.31091 29.2369 2.74727C29.3119 3.2568 29.3308 3.24361 29.4794 2.57866C29.6189 1.95484 29.8045 1.52319 29.964 1.45216C30.1187 1.3833 30.4537 1.57226 30.494 1.75103C30.5372 1.94301 30.548 1.94639 30.7389 1.82781C31.0641 1.62585 31.3252 1.81174 31.2858 2.21715C31.2568 2.51609 31.2717 2.58386 31.3671 2.58602C31.7969 2.59577 31.8322 3.16513 31.4326 3.6436C31.2822 3.82367 31.2411 3.91673 31.3119 3.91673C31.371 3.91673 31.4538 3.87667 31.496 3.82771C31.6356 3.66572 32.1221 3.77027 32.2011 3.97923C32.2401 4.08236 32.3128 4.16673 32.3627 4.16673C32.4236 4.16673 32.4533 4.30336 32.4533 4.58341V5.00008H32.8458C33.1647 5.00008 33.2526 5.03129 33.315 5.16675C33.3615 5.26754 33.3645 5.33342 33.3227 5.33342C33.2846 5.33342 33.2103 5.38029 33.1575 5.43759C32.8519 5.76924 32.5049 5.87509 31.7233 5.87509C31.0375 5.87509 30.9456 5.89193 30.9455 6.01757C30.9454 6.09593 30.8161 6.29883 30.6582 6.46846C30.4807 6.65907 30.3709 6.85135 30.3709 6.97183C30.3709 7.16812 30.1453 7.50012 30.0119 7.50012C29.9724 7.50012 29.9401 7.61127 29.9401 7.74712C29.9401 8.22059 29.3137 8.56423 29.0232 8.25013C28.7314 7.93468 28.3619 8.1914 28.5001 8.61348C28.5745 8.84049 28.6777 8.89577 28.7553 8.75014C28.9382 8.40671 29.0825 8.86425 28.913 9.25014C28.8381 9.42064 28.8392 9.50011 28.9193 9.68765C29.0161 9.91434 29.1502 9.99736 29.1502 9.83056C29.1502 9.64216 29.3837 9.33049 29.4657 9.40946C29.523 9.46462 29.5872 9.37732 29.6792 9.11924C29.807 8.76042 30.0104 8.62846 30.1196 8.83347C30.144 8.87931 30.2211 8.91681 30.2909 8.91681C30.6529 8.91681 30.7803 9.31283 30.7986 10.4949L30.8018 10.698L31.0172 10.4585C31.2705 10.1769 31.2875 9.94778 31.1175 9.10948C30.9615 8.33998 31.0376 7.08344 31.2403 7.08344C31.2756 7.08344 31.3044 7.13708 31.3044 7.20263C31.3044 7.26819 31.4014 7.56488 31.5199 7.86195C31.6991 8.3115 31.7353 8.5077 31.7353 9.03184C31.7353 9.50366 31.7578 9.6505 31.825 9.61738C31.9575 9.55214 32.8151 8.21702 33.1717 7.52095C33.3419 7.18865 33.5084 6.91678 33.5417 6.91678C33.575 6.91678 33.6025 6.8699 33.6027 6.81261C33.6029 6.75531 33.6545 6.59594 33.7173 6.45843C33.8952 6.06911 33.9248 5.35604 33.7813 4.91674C33.4859 4.01234 33.6157 3.68098 34.0016 4.35424C34.2013 4.70257 34.2054 4.70497 34.2553 4.50007C34.3877 3.95588 34.3425 3.82728 33.8177 3.25562C33.2783 2.66809 33.0903 2.19796 33.5616 2.61515C33.8843 2.90084 33.9035 2.89206 33.7682 2.52087C33.3886 1.47945 33.7686 0.333339 34.4934 0.333339C34.6377 0.333339 34.7792 0.268804 34.8589 0.166669C35.1539 -0.211668 35.9001 0.182608 35.9001 0.716838C35.9001 0.877378 35.9465 0.931628 36.118 0.97144C36.5525 1.07229 36.5876 1.7484 36.2046 2.64113C36.0767 2.93935 36.015 3.16952 36.0585 3.18634C36.1104 3.20643 36.1082 3.35379 36.0513 3.66159C35.9575 4.1695 35.9943 4.30247 36.1308 3.94833C36.2191 3.71901 36.3374 3.52218 36.5248 3.29254C36.6479 3.14169 37.3663 3.05158 37.5476 3.16423C37.711 3.26571 37.7289 3.38635 37.6269 3.69782C37.5654 3.88566 37.5777 3.90902 37.7503 3.93241C38.0117 3.96784 38.199 4.34541 38.0721 4.58125C38.0228 4.67286 37.9825 4.87645 37.9825 5.03367C37.9825 5.27089 37.9491 5.33242 37.7866 5.39532C37.6474 5.44916 37.5902 5.52839 37.5891 5.66899C37.588 5.80933 37.5353 5.88258 37.408 5.92089C37.2376 5.97216 37.2438 5.98224 37.5281 6.11898C37.822 6.26028 37.9997 6.5001 37.8105 6.5001C37.3361 6.5001 36.935 6.31132 36.5787 5.92029C36.0144 5.30085 35.8678 5.30571 35.0384 5.97137C34.3662 6.51085 34.3589 6.58503 34.9666 6.69858C35.0653 6.71702 35.3378 6.85435 35.572 7.00375C36.0682 7.32023 36.2611 7.346 36.654 7.14829C37.1805 6.88342 37.2935 7.07708 36.8982 7.56657C36.1431 8.5016 35.3425 8.50788 34.9357 7.58196C34.6594 6.9531 34.2618 7.09494 33.7636 8.00013C33.6249 8.25221 33.4914 8.47722 33.467 8.50013C33.3749 8.58678 33.0973 9.08348 33.141 9.08348C33.1662 9.08348 33.3507 8.93202 33.551 8.7469C33.946 8.38193 34.1518 8.34857 34.123 8.65423C34.1116 8.77456 34.1339 8.82248 34.1845 8.78621C34.3059 8.69918 34.1913 9.07539 33.9925 9.41681C33.8062 9.73685 33.3624 10.2485 33.2674 10.2529C33.1712 10.2574 32.9306 10.5194 32.7492 10.8173C32.4783 11.2622 32.0889 11.5002 31.6317 11.5002H31.238L30.9453 12.0004C30.5435 12.687 29.7965 14.8334 29.7965 15.3012C29.7965 15.5516 30.2529 15.2496 30.7469 14.6725C31.1032 14.2561 31.3917 13.9912 31.5259 13.957C31.6432 13.9271 31.8789 13.812 32.0498 13.7011C32.3472 13.5083 32.9702 13.253 33.1482 13.2511C33.3604 13.2488 33.2511 13.587 32.8497 14.1747C32.6119 14.5227 32.3545 14.91 32.2776 15.0352C32.0495 15.4067 31.2235 15.8257 30.7091 15.8309C30.4534 15.8334 30.0508 16.0749 29.9239 16.3018C29.8952 16.3531 29.776 16.4411 29.6591 16.4973C29.4295 16.6076 29.3568 16.8176 29.1095 18.0836C29.0424 18.4274 28.9272 18.9809 28.8534 19.3137C28.6689 20.1469 28.6701 20.1537 29.1118 20.6872C29.5908 21.2656 30.1555 22.5793 30.1555 23.1148C30.1555 23.2521 30.3884 24.0972 30.5359 24.495L30.6421 24.7814L30.6494 24.2118C30.6692 22.6826 31.1558 21.183 31.8035 20.6557C32.3537 20.2076 32.3952 20.2309 32.4899 21.042C32.5167 21.2712 32.5718 21.5055 32.6125 21.5628C32.6607 21.6308 32.6621 21.7032 32.6164 21.7712C32.578 21.8285 32.508 22.1547 32.461 22.4961C32.414 22.8374 32.3483 23.1562 32.315 23.2044C32.2817 23.2526 32.2305 23.4221 32.2012 23.581C32.1719 23.7399 32.1205 23.9274 32.087 23.9976C32.0535 24.0679 31.9425 24.3691 31.8403 24.6671C31.7381 24.965 31.6067 25.3302 31.5482 25.4788C31.4229 25.7972 31.3858 26.9722 31.4772 27.7274L31.5399 28.246L31.8351 27.9806C33.8072 26.2074 34.8543 24.2883 34.4318 23.2213C34.3746 23.0769 34.2585 22.7149 34.1739 22.417C34.0893 22.1191 33.9913 21.8349 33.9562 21.7856C33.9212 21.7362 33.8257 21.4362 33.7442 21.1189C33.6626 20.8016 33.5307 20.4016 33.4511 20.2299C33.1942 19.6765 33.0931 17.8571 33.2744 17.0496C33.5992 15.6023 33.826 15.4647 34.5442 16.2791C35.6746 17.561 35.9058 18.285 35.6927 19.8753C35.6497 20.1961 35.5666 20.9462 35.5079 21.542C35.3858 22.783 35.2629 23.7999 35.2057 24.042C35.1794 24.1537 35.2845 24.0756 35.5246 23.805C35.8719 23.4136 35.8843 23.3831 35.932 22.805C36.0073 21.8912 36.1806 21.0101 36.3708 20.5746C36.4653 20.358 36.5626 20.0183 36.5868 19.8197C36.845 17.7027 38.1293 15.8093 39.4329 15.6237C40.0777 15.5319 40.3044 16.2434 40.031 17.5003C40.0061 17.6149 39.9699 17.8024 39.9507 17.9169C39.8811 18.3306 39.6889 18.8774 39.2241 19.9841C39.0045 20.507 38.4635 21.2323 38.2447 21.297C38.1489 21.3253 38.0219 21.5047 37.9107 21.769C37.8119 22.0035 37.5798 22.4227 37.3948 22.7006C37.2098 22.9784 37.0702 23.2195 37.0847 23.2363C37.1273 23.2857 38.3415 22.5886 38.3415 22.5147C38.3415 22.3796 38.8131 21.85 38.9878 21.7888C39.0865 21.7543 39.2878 21.6377 39.4351 21.5298C39.5824 21.4219 39.723 21.3337 39.7474 21.3337C39.7718 21.3337 39.8937 21.2807 40.0181 21.2161C41.9024 20.2366 44.4977 20.9727 43.4966 22.2026C43.4456 22.2653 43.2908 22.4877 43.1526 22.697C43.0143 22.9062 42.8739 23.0788 42.8405 23.0805C42.8071 23.0823 42.687 23.1604 42.5735 23.2542C42.2819 23.4952 41.5113 23.6639 40.6947 23.6656L39.996 23.667L40.2187 24.0336C40.4374 24.3938 40.4448 24.5837 40.2401 24.5837C40.1832 24.5837 40.1367 24.6168 40.1367 24.6572C40.1367 24.859 38.8799 25.0086 38.7222 24.8255C38.6649 24.759 38.5625 24.8946 38.3479 25.321C37.9802 26.0516 37.4006 26.7553 36.9768 26.9856C36.576 27.2034 36.7972 27.2324 37.408 27.0421C38.5161 26.6969 40.2085 27.2379 40.2085 27.9372C40.2085 28.1772 39.4461 29.0608 39.1411 29.1743C38.9975 29.2278 38.8316 29.3169 38.7723 29.3723C38.5366 29.5928 37.5312 29.8529 37.1567 29.7902C37.0777 29.777 36.8354 29.7421 36.6181 29.7126C36.4009 29.6831 36.065 29.5638 35.8717 29.4476C35.4879 29.2168 35.3542 29.1674 34.9486 29.1066C34.8005 29.0844 34.6794 29.0379 34.6794 29.0033C34.6794 28.9686 34.6015 28.9575 34.5065 28.9786L34.3335 29.017L34.4743 29.2939C34.6781 29.6947 34.6333 30.6043 34.3932 30.9402C34.3531 30.9963 34.2601 31.1336 34.1866 31.2454L34.0529 31.4486L33.7242 31.3029C33.042 31.0005 32.7591 30.397 32.848 29.4335C32.8933 28.9418 32.887 28.9046 32.765 28.947C32.6923 28.9723 32.4713 29.0383 32.2738 29.0939C32.0764 29.1494 31.8017 29.2757 31.6635 29.3747C31.5252 29.4736 31.2237 29.6642 30.9935 29.7983C30.7632 29.9324 30.4078 30.2116 30.2036 30.4187C29.9994 30.6258 29.7193 30.8926 29.5811 31.0116C28.9993 31.5124 27.0096 33.9607 27.0995 34.0651C27.1365 34.108 28.3786 33.4773 28.5139 33.3469C30.1749 31.7462 32.4139 31.1716 33.8687 31.9727C34.7848 32.4773 32.8748 33.6805 30.8377 33.8822C28.7814 34.0858 28.4655 34.2842 29.5811 34.6712C30.1195 34.8581 31.0534 35.3533 31.1001 35.4768C31.1303 35.5564 31.7754 36.0839 31.8426 36.0839C31.999 36.0839 32.956 37.1082 32.956 37.2756C32.956 37.3423 33.0004 37.4396 33.0546 37.4919C33.1816 37.6142 33.2438 39.3806 33.1287 39.5967C32.9053 40.0163 31.4199 39.6964 30.9891 39.1359C30.7126 38.7761 30.5864 38.5827 30.5864 38.519C30.5864 38.4843 30.5023 38.3123 30.3995 38.1367C30.2967 37.9612 30.2066 37.7706 30.1994 37.7132C30.1921 37.6559 30.1308 37.5109 30.0631 37.391C29.9955 37.2712 29.9401 37.1416 29.9401 37.1032C29.9401 36.9759 29.5138 36.2506 29.439 36.2506C29.3987 36.2506 29.3656 36.3421 29.3656 36.454C29.3656 36.5659 29.3347 36.6796 29.2968 36.7068C29.259 36.7339 29.1715 37.0613 29.1024 37.4344C28.9159 38.4417 28.1824 39.391 27.8028 39.1164C27.2031 38.6827 27.2406 37.6035 27.8967 36.4172C28.6816 34.9981 28.5797 34.4343 27.596 34.7539C26.5669 35.0883 26.1469 35.7466 26.1361 37.0422C26.1315 37.5923 26.0841 38.9798 26.0307 40.1256C25.9772 41.2715 25.9276 42.8465 25.9203 43.6257C25.9131 44.4049 25.8977 45.2674 25.8862 45.5424C25.8747 45.8174 25.8565 46.5486 25.8458 47.1674C25.8352 47.7862 25.8024 48.5737 25.7729 48.9174C25.7173 49.5666 25.733 49.72 25.8276 49.4504C26.2595 48.2192 28.6219 45.9072 29.8324 45.5309C30.7043 45.26 30.7511 45.3218 30.4393 46.3341C30.0338 47.6502 29.5718 48.1572 28.1545 48.8412C27.853 48.9866 27.536 49.1697 27.4501 49.2479C27.3641 49.3261 27.1379 49.4586 26.9474 49.5423C26.7569 49.626 26.4934 49.789 26.3617 49.9045L26.1223 50.1145L26.2899 50.2684C26.4257 50.3931 26.5362 50.4134 26.8722 50.3756C28.0495 50.243 28.6754 51.0158 27.6479 51.3335C27.2845 51.4458 27.3458 51.5461 27.8297 51.6311C28.6093 51.768 28.9475 52.1191 29.3095 53.1675C29.6538 54.1648 27.9806 54.4873 27.1318 53.5872C27.0654 53.5168 26.9242 53.3748 26.8179 53.2717C26.7117 53.1685 26.6518 53.083 26.6847 53.0816C26.7177 53.0802 26.6875 53.0404 26.6175 52.9932C26.5476 52.9459 26.5091 52.8721 26.532 52.829C26.5549 52.786 26.5375 52.7508 26.4934 52.7508C26.4492 52.7508 26.43 52.719 26.4507 52.6801C26.4715 52.6412 26.4288 52.5352 26.3561 52.4445C26.2833 52.3539 26.1984 52.1888 26.1676 52.0777C26.1123 51.879 25.8307 53.1851 25.8338 53.6258C25.8344 53.7175 25.8067 54.0363 25.7721 54.3342C25.7376 54.6321 25.6896 55.2321 25.6656 55.6675C25.6415 56.103 25.5927 56.7217 25.5572 57.0426C25.5216 57.3634 25.4915 57.972 25.4903 58.3951L25.4881 59.1642L25.7932 59.3425C25.9611 59.4405 26.2882 59.7406 26.5202 60.0094C26.8848 60.4318 27.243 60.638 26.9847 60.2768C26.9351 60.2075 26.8884 60.1077 26.8809 60.055C26.8733 60.0024 26.7548 59.678 26.6175 59.3343C26.0877 58.0076 26.1038 57.1221 26.6762 56.1083C26.9956 55.5426 27.82 56.3847 28.2028 57.6676L28.4639 58.5426L28.4495 60.5843C28.4416 61.7072 28.4626 62.7572 28.496 62.9177L28.5569 63.2093L29.2868 62.3469L30.0167 61.4845L29.9964 60.4719C29.9852 59.9149 30.0009 59.2718 30.0313 59.0426C30.0617 58.8134 30.1045 58.4631 30.1264 58.2642C30.2263 57.3572 30.2969 57.081 30.5654 56.5463C31.2027 55.277 32.1343 54.3658 32.5149 54.6395C33.0084 54.9945 33.0392 56.9084 32.5623 57.5842C32.5138 57.653 32.3967 57.8935 32.3022 58.1187C32.2076 58.3438 31.9686 58.7243 31.7712 58.9642C31.1802 59.682 30.6003 60.9124 31.1343 60.3153C31.4988 59.9078 31.8672 59.5226 32.2339 59.1656C32.3975 59.0063 32.6339 58.7716 32.7592 58.6441C33.0119 58.3869 33.6206 58.0191 33.8929 57.9589C33.9898 57.9376 34.279 57.8576 34.5357 57.7814C35.2044 57.5827 35.5969 57.6054 35.9993 57.8661C36.1845 57.9861 36.3807 58.0842 36.4353 58.0842C36.7085 58.0842 37.8389 59.3639 37.8389 59.6732C37.8389 60.679 36.0225 60.8977 34.4998 60.0753C33.7453 59.6678 33.4184 59.6935 32.7047 60.2168L32.4174 60.4273L32.7765 60.4071C33.7283 60.3534 34.8366 60.6061 35.0007 60.9143C35.0259 60.9616 35.1806 60.9752 35.3627 60.9462C36.0573 60.8357 36.2332 61.1033 35.936 61.8183C35.7081 62.3665 35.6917 62.5948 35.8956 62.3807C36.3779 61.8741 37.4964 63.3236 37.5975 64.5864L37.6433 65.1579L37.9234 64.6548C38.2413 64.084 39.1987 62.9563 39.4388 62.8698C39.5264 62.8383 39.6859 62.7407 39.7931 62.6531C39.9004 62.5654 40.1494 62.4381 40.3466 62.3702C40.5437 62.3022 40.7244 62.2101 40.7482 62.1655C40.8111 62.0474 41.0848 62.0709 41.2405 62.2077C41.7361 62.6433 40.6025 65.6677 39.9435 65.6677C39.906 65.6677 39.7744 65.7723 39.651 65.9001C39.5276 66.028 39.0162 66.3736 38.5147 66.6681C38.0131 66.9627 37.567 67.2434 37.5233 67.292C37.4796 67.3406 37.3308 67.4631 37.1926 67.5643C36.8797 67.7933 37.0386 67.81 37.6124 67.6084C38.2161 67.3963 40.4899 67.394 40.6912 67.6052C40.7676 67.6854 40.8761 67.752 40.9322 67.7531C41.2982 67.7605 42.0755 68.875 42.0755 69.3923C42.0755 70.2761 39.3683 70.5362 38.614 69.7249C38.5208 69.6247 38.4134 69.5337 38.3751 69.5226C38.3369 69.5115 38.2491 69.4463 38.1799 69.3776C38.1108 69.3089 38.0532 69.2805 38.052 69.3144C38.0507 69.3483 38.0097 69.3198 37.9608 69.2511C37.8452 69.0885 37.5516 68.8967 37.5516 68.9837C37.5516 69.0208 37.5845 69.0893 37.6248 69.136C38.1015 69.6892 38.0864 71.9821 37.6034 72.3747C37.4605 72.4909 37.4655 72.5052 37.8095 72.9661C38.4853 73.8717 39.064 74.7817 39.3606 75.4052C39.6428 75.9984 39.6631 76.0218 39.7299 75.8296C40.1738 74.5531 40.5143 73.9107 41.0815 73.279C41.6335 72.6643 41.9881 72.5328 42.9921 72.5703C43.3539 72.5839 43.3703 72.5944 43.37 72.8136C43.3699 72.9397 43.3888 73.3275 43.4121 73.6754C43.514 75.2006 42.5431 76.1756 40.388 76.7123C40.1736 76.7657 40.8445 77.2178 41.7916 77.6582C41.928 77.7216 42.1365 77.8207 42.255 77.8785C42.6554 78.0735 42.7069 78.0733 42.9374 77.876C43.7526 77.178 45.3683 77.0522 45.9075 77.6448C46.7567 78.5779 46.3946 79.6266 45.235 79.5928C44.8819 79.5826 44.857 79.5925 45.0005 79.6871C45.1987 79.8178 46.2039 80.5586 46.9978 81.159C47.6706 81.6678 47.8988 82.1219 47.9978 83.1486C48.0213 83.3929 47.8541 84.2282 47.7536 84.3688C47.5592 84.6406 45.7376 83.9524 45.7376 83.6071C45.7376 83.5489 45.7129 83.5013 45.6828 83.5013C45.6526 83.5013 45.5907 83.3232 45.5451 83.1055C45.4995 82.8877 45.4107 82.5692 45.3478 82.3975C45.2848 82.2259 45.2347 82.0651 45.2364 82.0402C45.2381 82.0153 45.1335 81.8933 45.0039 81.769C44.8743 81.6446 44.7574 81.5148 44.7443 81.4804C44.7311 81.4461 44.6761 81.4179 44.6219 81.4179C44.5678 81.4179 44.4089 81.2438 44.2689 81.031C44.1288 80.8181 44.0138 80.6775 44.0131 80.7184C44.0126 80.7594 43.9883 80.7536 43.9593 80.7056C43.8958 80.6004 43.4398 80.2243 43.4398 80.2771C43.4398 80.2975 43.487 80.4453 43.5446 80.6054C43.6023 80.7656 43.6555 81.0421 43.6629 81.2198C43.6703 81.3975 43.7196 81.7679 43.7724 82.0429C43.8774 82.5895 43.893 83.3635 43.8043 83.6263C43.7376 83.8237 44.1684 83.9822 44.9118 84.0337C45.459 84.0716 45.9677 84.4034 46.18 84.8608C46.3972 85.3285 45.2439 85.8307 43.9424 85.8353C42.9619 85.8388 42.9996 85.9245 44.3015 86.6513C45.2449 87.178 45.3486 87.2636 45.7505 87.8473C46.2628 88.5914 46.6531 90.5105 46.3902 90.9924C46.2606 91.2299 45.1473 90.8702 44.7859 90.4741C44.7367 90.4201 44.5727 90.3011 44.4216 90.2095C43.9377 89.9164 43.4971 89.335 43.1557 88.5391C42.9797 88.1288 42.8101 87.7805 42.7787 87.7653C42.7474 87.75 42.7217 87.6855 42.7217 87.622C42.7217 87.4819 42.4451 86.8521 42.3552 86.7877C42.3198 86.7623 42.2909 86.8209 42.2909 86.918C42.2909 87.0151 42.2586 87.0714 42.2191 87.043C42.1755 87.0118 42.1506 87.1164 42.1558 87.309C42.1639 87.6143 42.166 87.6168 42.2109 87.3764C42.2487 87.1741 42.2881 87.3016 42.4173 88.043C42.5052 88.5472 42.6609 89.3722 42.7634 89.8764C43.22 92.1214 43.343 94.1117 43.0628 94.7201C42.9968 94.8632 42.9631 95.0039 42.9879 95.0326C43.0126 95.0613 42.9898 95.0848 42.9371 95.0848C42.8845 95.0848 42.8594 95.1057 42.8814 95.1313C42.9035 95.1569 42.8117 95.2975 42.6776 95.4438C42.2914 95.8651 42.2575 95.8914 42.1537 95.8512C42.0944 95.8283 42.0754 95.8503 42.1056 95.9074C42.1758 96.0391 41.4886 96.0265 41.3892 95.8942H41.3892ZM40.6758 84.6822C40.9124 84.03 40.7713 81.8302 40.4183 80.6679C40.4113 80.645 40.3905 80.57 40.3721 80.5013C40.3537 80.4325 40.3112 80.2825 40.2777 80.1679C40.2442 80.0533 40.1963 79.735 40.1712 79.4606C40.1462 79.1861 40.1026 78.9423 40.0743 78.9189C40.0461 78.8954 39.9767 78.7097 39.9202 78.5061L39.8174 78.1361L39.7308 78.4833C39.4101 79.7689 39.5243 81.6051 40.0067 82.918C40.1522 83.314 40.3264 84.242 40.2756 84.3506C40.2476 84.4106 40.2029 84.6129 40.1763 84.8001C40.1008 85.3325 40.4717 85.2449 40.6758 84.6822ZM42.2282 81.7513C42.332 81.2388 42.3564 80.9393 42.3163 80.6679C42.2858 80.4617 42.2641 80.2461 42.2679 80.1888C42.2718 80.1315 42.2483 80.0846 42.2157 80.0846C42.1832 80.0846 42.1163 79.9553 42.0671 79.7974C42.0178 79.6394 41.9511 79.5291 41.9188 79.5523C41.8865 79.5754 41.86 79.5513 41.86 79.4986C41.86 79.3735 41.4828 78.7553 41.405 78.753C41.3313 78.7508 40.6955 78.2415 40.6225 78.1262C40.5215 77.9667 40.5664 78.2428 40.6906 78.545C40.7747 78.7499 40.7892 78.8626 40.7363 78.902C40.6899 78.9365 40.6817 79.0263 40.7159 79.1262C40.7702 79.2851 40.7731 79.2855 40.7779 79.1332C40.7897 78.7589 41.2334 80.1063 41.5028 81.3346C41.5481 81.5409 41.6112 81.7846 41.6432 81.8763C41.6751 81.968 41.7582 82.2283 41.8278 82.4549C41.9772 82.9414 41.9924 82.9147 42.2282 81.7513ZM38.3207 77.3546C38.8423 77.1896 38.8806 77.0927 38.6747 76.4595C38.4381 75.7321 38.1735 75.0845 38.1129 75.0845C38.0807 75.0845 38.0543 75.0421 38.0543 74.9903C38.0543 74.9385 37.9412 74.7134 37.803 74.4901C37.6647 74.2668 37.5516 74.0651 37.5516 74.0419C37.5516 73.9881 37.2226 73.5467 36.9332 73.2123C36.8103 73.0703 36.6552 72.8315 36.5884 72.6817C36.5216 72.5318 36.4146 72.3859 36.3506 72.3574C36.2866 72.3289 36.1787 72.2464 36.111 72.1742C35.6244 71.6554 35.4518 71.4857 35.0403 71.1212C34.7846 70.8947 34.5004 70.6251 34.4087 70.5219C34.1663 70.2493 34.127 70.2825 34.0704 70.8082C34.0424 71.0687 33.9894 71.3737 33.9526 71.4858C33.9159 71.598 33.8545 72.0879 33.8163 72.5746C33.778 73.0613 33.7125 73.6838 33.6708 73.958C33.5685 74.6312 33.611 74.7658 33.9947 74.9821C34.1738 75.0831 34.3203 75.2037 34.3203 75.2501C34.3203 75.2965 34.3572 75.3345 34.4022 75.3345C34.5972 75.3345 34.9022 76.0001 35.1096 76.8783L35.267 77.5449L36.5709 77.5203C37.5168 77.5024 37.9972 77.457 38.3207 77.3546ZM26.3103 75.7929C26.3584 75.4873 26.5457 74.9117 26.7079 74.5711C26.7544 74.4734 26.7431 74.419 26.6695 74.3862C26.4363 74.2823 26.7653 73.3209 27.0727 73.2077C27.149 73.1796 27.2114 73.1245 27.2114 73.0853C27.2114 72.9049 28.5639 71.9395 28.9223 71.8641C29.0228 71.8429 29.188 71.7732 29.2892 71.7092C29.5153 71.5663 30.4396 71.0844 30.4876 71.0844C30.6741 71.0844 31.174 70.7125 31.0172 70.6903C30.7347 70.6505 30.0837 70.3902 30.0837 70.3172C30.0837 70.2808 30.0595 70.2581 30.0299 70.2666C29.4736 70.4272 27.688 69.3956 27.5315 68.8233C27.3926 68.3153 26.13 69.0478 26.0403 69.6884C25.8375 71.1379 25.7025 72.7191 25.6691 74.0388C25.647 74.9118 25.6127 75.9154 25.5929 76.269L25.557 76.9117L25.9074 76.519C26.1664 76.2286 26.2715 76.0393 26.3103 75.7929ZM30.9454 75.7001C31.4117 75.6351 31.7926 75.3302 32.0011 74.8552C32.0765 74.6834 32.3017 74.1866 32.5014 73.7512C32.8397 73.0138 33.4021 70.9077 33.2941 70.7824C33.2153 70.6909 31.6123 71.6661 31.3403 71.9709C30.9964 72.3564 30.7124 72.7511 30.7789 72.7511C30.8052 72.7511 30.7618 72.8355 30.6823 72.9386C30.524 73.1439 29.8683 74.4018 29.8683 74.5C29.8683 74.6363 28.9591 75.669 28.8264 75.6834C28.5833 75.7098 29.8847 75.794 30.2273 75.774C30.4051 75.7637 30.7282 75.7304 30.9454 75.7001ZM36.6488 71.1469C36.6161 70.9522 36.5877 70.4286 36.5858 69.9834C36.5806 68.8013 36.3073 68.7212 35.1309 69.5566L34.9003 69.7204L35.1309 69.9667C35.2577 70.1022 35.6039 70.456 35.9001 70.7529C36.1963 71.0499 36.4645 71.3397 36.496 71.397C36.6262 71.633 36.708 71.4992 36.6488 71.1469ZM33.2571 69.8258C33.4125 69.7293 33.1696 69.3344 32.9549 69.3344C32.9113 69.3344 32.8909 69.306 32.9094 69.2712C32.9488 69.1973 32.2935 68.8331 32.0584 68.7982C32.0189 68.7923 31.8573 68.7176 31.6994 68.6321C31.5414 68.5466 31.3798 68.4644 31.3403 68.4494C31.2633 68.4202 29.9226 68.0867 29.8766 68.0853C29.8078 68.0831 30.642 68.9206 30.8018 69.014C30.9005 69.0717 31.0298 69.1627 31.089 69.2163C31.5131 69.5998 32.9642 70.0077 33.2571 69.8258ZM34.1754 69.1685C34.31 69.0849 34.2361 68.5844 34.0892 68.5844C34.0583 68.5844 34.0331 68.534 34.0331 68.4723C34.0331 68.1489 32.2019 67.0509 32.054 67.2856C31.9802 67.4027 31.9033 67.4256 31.721 67.3848C31.5906 67.3555 31.4436 67.326 31.3942 67.3191C31.3448 67.3122 31.3044 67.2754 31.3044 67.2372C31.3044 67.199 31.2576 67.1677 31.2003 67.1677C31.143 67.1677 31.0703 67.1208 31.0387 67.0636C30.9713 66.9413 30.7469 66.7668 30.5673 66.6969C30.4975 66.6698 30.449 66.5987 30.4595 66.5389C30.4701 66.4792 30.3678 66.315 30.2323 66.174C30.0969 66.033 30.0098 65.9177 30.0389 65.9177C30.1042 65.9177 29.8779 65.4404 29.7067 65.217C29.6376 65.1267 29.5811 65.0152 29.5811 64.969C29.5811 64.2267 28.5808 64.2795 28.0296 65.0509C27.8758 65.2662 27.7177 65.4847 27.6782 65.5364C27.3776 65.9303 26.8524 67.0425 26.8524 67.2853C26.8524 67.3763 26.9085 67.3841 27.1217 67.3228C27.5798 67.1911 29.3591 67.1379 29.8683 67.2407C30.125 67.2926 30.5261 67.3738 30.7596 67.4213C30.9931 67.4688 31.2677 67.5584 31.3699 67.6204C31.4721 67.6825 31.7819 67.8315 32.0584 67.9515C32.6961 68.2284 33.8856 68.9758 33.9373 69.1322C33.984 69.2734 34.0022 69.2762 34.1754 69.1685ZM35.419 68.2563C36.1663 67.6015 36.3852 66.348 35.9001 65.501C35.7819 65.2948 35.6851 65.0964 35.685 65.0602C35.6846 64.9856 35.3838 64.4717 35.3198 64.4363C35.202 64.3711 35.4255 63.279 35.6689 62.7302C35.747 62.5541 35.5042 62.7106 35.1787 63.0461C34.9768 63.2542 34.7179 63.4462 34.6035 63.4728C34.2663 63.551 34.246 63.6415 34.2304 65.137L34.2157 66.5427L34.5249 67.6116C34.8713 68.8092 34.8257 68.7762 35.419 68.2563ZM25.5973 66.1843C25.627 66.1523 25.6658 66.1729 25.6834 66.2302C25.734 66.3947 25.8471 66.3515 25.8471 66.1677C25.8471 65.9278 26.1315 65.6108 26.2116 65.7613C26.2748 65.88 26.2275 66.2313 26.1285 66.3788C26.0968 66.4262 26.0985 66.517 26.1323 66.5806C26.1779 66.6661 26.2242 66.6123 26.31 66.374C26.3738 66.1967 26.5058 65.9303 26.6033 65.7819C26.7008 65.6335 26.7806 65.4878 26.7806 65.4581C26.7806 65.3778 27.2649 64.6819 27.6341 64.2317L27.9574 63.8374L27.8386 63.5484C27.7733 63.3894 27.5857 63.1168 27.4218 62.9426C27.2579 62.7685 27.0304 62.5241 26.9163 62.3996C26.8022 62.2751 26.7088 62.1922 26.7088 62.2154C26.7088 62.2385 26.6388 62.1818 26.5532 62.0893C26.4677 61.9968 26.2657 61.8191 26.1044 61.6944C25.9432 61.5697 25.7385 61.3936 25.6496 61.3031L25.4881 61.1386L25.4788 61.7989C25.4737 62.1622 25.4616 62.5718 25.4518 62.7093C25.4316 62.9939 25.403 66.582 25.4199 66.7094C25.426 66.7552 25.4562 66.6689 25.4871 66.5177C25.518 66.3664 25.5676 66.2164 25.5973 66.1843ZM24.1237 66.5071C24.1237 66.4065 23.7541 66.0689 23.7056 66.1252C23.6611 66.1769 23.9796 66.5844 24.0645 66.5844C24.0971 66.5844 24.1237 66.5496 24.1237 66.5071ZM33.5304 66.4357C33.5304 66.3998 33.3527 66.1667 33.1355 65.9177C32.9183 65.6687 32.7406 65.4169 32.7406 65.358C32.7406 65.2992 32.7114 65.251 32.6758 65.251C32.5842 65.251 32.4533 64.7781 32.4533 64.4469C32.4533 64.1388 32.5504 64.093 32.7529 64.3056C32.8769 64.4359 32.8842 64.4314 32.8842 64.2233V64.0031L32.3277 64.0554C32.0216 64.0841 31.7642 64.1136 31.7557 64.1209C31.7371 64.1369 32.4098 65.2026 32.823 65.8117C32.9855 66.0513 33.1449 66.2284 33.1773 66.2052C33.2096 66.182 33.2711 66.2391 33.3139 66.332C33.3903 66.4977 33.5304 66.5648 33.5304 66.4357ZM24.0652 60.026C24.0607 52.8723 24.0544 52.7884 23.5313 52.8806C23.4622 52.8928 23.4057 52.8779 23.4057 52.8476C23.4057 52.8173 23.3168 52.7908 23.2082 52.7887C23.0996 52.7867 22.762 52.7579 22.458 52.7249C21.7754 52.6507 19.8385 52.6419 19.4739 52.7113C18.7896 52.8415 17.7435 53.1706 17.3192 53.389L17.085 53.5096L17.2929 53.8594C17.7866 54.69 18.136 54.7771 18.7637 54.2259C19.867 53.2571 21.5721 53.8193 21.0642 54.9844C20.7917 55.6094 20.5038 55.9784 20.2432 56.0367C20.1263 56.0628 19.9298 56.107 19.8063 56.1348C19.6692 56.1657 19.5987 56.1539 19.625 56.1046C19.6651 56.0292 18.8852 55.8858 18.8237 55.9572C18.7083 56.0912 19.6654 56.6673 20.0038 56.6675C20.9122 56.6679 21.5029 58.1049 21.0742 59.2718C21.0358 59.3764 21.0537 59.4176 21.1377 59.4176C21.6486 59.4176 22.066 60.3991 22.17 61.8455C22.2219 62.5664 22.2747 62.8307 22.4532 63.2622C22.574 63.554 22.7728 64.0364 22.8951 64.3343C23.0974 64.8271 23.8765 65.5293 24.0423 65.3683C24.0568 65.3543 24.0671 62.9502 24.0652 60.026ZM30.73 63.0672C30.9867 62.9162 31.2129 62.7722 31.2326 62.7473C31.3184 62.6389 31.8245 62.3343 31.9189 62.3343C31.9759 62.3343 32.0225 62.3018 32.0225 62.2621C32.0225 62.2225 32.2153 62.1084 32.4509 62.0087C33.1769 61.7015 33.0502 61.3437 32.1902 61.2723C31.5425 61.2185 30.4004 61.7193 30.5463 61.9931C30.5678 62.0336 30.2787 62.3985 29.9037 62.804C29.5288 63.2096 29.222 63.5661 29.222 63.5962C29.222 63.7046 30.273 63.3359 30.73 63.0672ZM7.36291 60.2405C7.61882 60.1657 7.78177 60.0268 8.16663 59.5556C8.43213 59.2305 8.92397 58.6539 9.25962 58.2744L9.86987 57.5842H9.62902C8.79305 57.5842 7.76155 58.144 7.04376 58.9871C6.46899 59.6623 6.05042 59.908 5.44764 59.9242C5.31288 59.9278 5.2511 59.9493 5.31034 59.9719C5.36958 59.9946 5.48267 60.0477 5.56166 60.09C5.99683 60.323 6.83966 60.3934 7.36291 60.2405ZM11.3969 57.1735C12.1084 56.7321 12.404 56.6716 12.8332 56.8798C13.0431 56.9816 13.0766 57.0251 12.9925 57.0868C12.9025 57.1529 12.9055 57.1652 13.0116 57.1663C13.0807 57.167 13.1373 57.1253 13.1373 57.0736C13.1373 56.9212 13.5822 55.9175 13.6498 55.9175C13.6839 55.9175 13.7123 55.8707 13.713 55.8134C13.7144 55.6904 13.9487 55.4248 14.2503 55.204C14.3688 55.1173 14.4819 55.0259 14.5016 55.0009C14.5741 54.9089 14.8963 54.674 15.8066 54.0493C16.135 53.8239 16.3625 53.6235 16.312 53.6039C16.2615 53.5844 16.1809 53.6043 16.1328 53.6481C16.0848 53.692 15.9513 53.754 15.8362 53.786C15.3686 53.916 13.3944 55.17 12.8142 55.7055C12.6562 55.8513 12.3488 56.1064 12.131 56.2725C11.4179 56.8161 10.8506 57.5125 11.3969 57.1735ZM18.336 52.3656C18.5295 52.3041 18.692 52.2438 18.6972 52.2315C18.9431 51.6474 18.954 51.5841 18.8089 51.5841C18.7305 51.5841 18.6664 51.5532 18.6664 51.5155C18.6664 51.4777 18.4564 51.687 18.1997 51.9806C17.7133 52.5367 17.6478 52.6442 17.8586 52.5397C17.9277 52.5054 18.1425 52.4271 18.336 52.3656ZM23.4395 51.5101C23.1383 50.8448 23.1243 50.8341 22.5496 50.8341C21.7546 50.8341 21.3519 51.0146 20.6556 51.6829L20.4546 51.8758L22.034 51.8851L23.6134 51.8944L23.4395 51.5101ZM24.4669 50.3097C24.5388 49.6731 24.5437 49.6822 24.0934 49.6207L23.7647 49.5758V49.9212C23.7647 50.2212 23.9247 50.67 24.2526 51.2899C24.3067 51.3922 24.385 51.034 24.4669 50.3097ZM19.6182 50.4295C19.8455 50.3323 20.201 50.2387 20.4081 50.2214C20.6152 50.2042 20.9049 50.1287 21.0517 50.0538C21.2032 49.9764 21.5078 49.9174 21.756 49.9174C22.3693 49.9174 22.1977 49.7322 21.5028 49.644C21.4238 49.634 21.3406 49.5967 21.318 49.5612C21.2953 49.5258 21.0717 49.5577 20.8212 49.6322C20.3321 49.7776 19.9424 49.748 19.594 49.5389C19.3931 49.4184 19.3865 49.4212 19.3403 49.6454C19.3142 49.7721 19.2695 49.9133 19.2409 49.9591C19.2123 50.005 19.1684 50.1421 19.1434 50.2639C19.1183 50.3857 19.0755 50.5544 19.0482 50.6389C19.008 50.7634 19.0181 50.7748 19.1018 50.6994C19.1585 50.6482 19.3909 50.5268 19.6182 50.4295ZM24.6633 48.5633C24.6872 48.4143 24.6967 48.0556 24.6845 47.7662L24.6623 47.2399L24.3162 47.7652L23.9701 48.2905L24.1726 48.4728C24.284 48.573 24.4074 48.6934 24.4469 48.7404C24.5687 48.8852 24.6182 48.8447 24.6633 48.5633ZM23.0594 47.0194C23.1171 46.0941 23.7226 45.329 24.4164 45.3047L24.7698 45.2924L24.7808 43.8757C24.7868 43.0965 24.8008 42.3465 24.8119 42.209C24.9151 40.9354 24.8088 36.6862 24.6636 36.2831C24.3502 35.4126 22.102 35.1348 20.7129 35.7949C20.1554 36.0598 19.1875 36.3197 18.7115 36.3323C18.677 36.3332 18.6791 36.3808 18.7161 36.4381C18.7838 36.543 18.9423 36.9845 19.4166 38.3902C19.5585 38.8107 19.7223 39.2607 19.7805 39.3902C19.8386 39.5197 19.8865 39.689 19.8867 39.7665C19.8869 39.844 19.9147 39.9272 19.9483 39.9513C19.9819 39.9754 20.0668 40.1745 20.1369 40.3937C20.207 40.613 20.3075 40.9048 20.3602 41.0423C20.6101 41.6945 20.9642 42.7116 20.9642 42.7772C20.9642 42.8175 21.0105 42.9687 21.0671 43.1131C21.1236 43.2575 21.3959 44.0319 21.6721 44.834C22.41 46.9768 22.4649 47.1071 22.7136 47.3054C23.0273 47.5555 23.0259 47.5566 23.0594 47.0194H23.0594ZM24.6018 34.2197C24.5411 33.8012 24.4727 33.2901 24.4498 33.0839C24.4269 32.8776 24.3251 32.3526 24.2237 31.9172C24.1223 31.4817 23.9742 30.8442 23.8946 30.5005C23.815 30.1567 23.723 29.8005 23.69 29.7088C23.6165 29.5042 23.5245 29.1546 23.5145 29.0421C23.4844 28.7007 23.1578 27.747 23.1015 27.8362C23.0879 27.8578 22.9842 28.0254 22.8711 28.2088C22.758 28.3921 22.5754 28.6546 22.4652 28.7921L22.2648 29.0421L22.5127 29.4171C23.0228 30.1887 23.2701 31.3048 23.3686 33.2799C23.4213 34.3357 23.493 34.4865 24.1395 34.9002C24.7598 35.2973 24.7583 35.2995 24.6018 34.2197ZM18.7143 34.9039C19.1541 34.6757 20.4586 34.6583 20.8208 34.8756C20.9776 34.9698 21.0742 34.9831 21.1633 34.9228C21.2315 34.8767 21.2712 34.8349 21.2515 34.83C19.4599 34.3854 18.2953 33.6753 17.5817 32.5923C17.3884 32.299 17.2303 32.1013 17.2303 32.153C17.2303 32.2802 17.7455 33.7508 18.0167 34.3977C18.1371 34.6849 18.2356 34.9568 18.2356 35.0019C18.2356 35.1229 18.3289 35.1038 18.7143 34.9039ZM22.6798 34.3547C22.6264 34.2745 22.516 34.1271 22.4345 34.0272C22.3531 33.9273 22.2394 33.7403 22.1818 33.6117C22.1243 33.4831 22.0288 33.3105 21.9695 33.2282C21.9103 33.1458 21.8603 33.0515 21.8584 33.0187C21.8565 32.9858 21.7811 32.7901 21.6907 32.5838C21.4025 31.9262 21.2517 31.28 21.2038 30.4973L21.1573 29.7358L20.8274 29.7825C19.7577 29.9341 18.6756 29.5977 18.9588 29.2016C19.1158 28.982 19.5402 28.6996 19.8031 28.6397C19.9346 28.6098 20.1447 28.5322 20.2699 28.4674C20.3951 28.4025 20.5801 28.3283 20.681 28.3024C20.7819 28.2766 21.0081 28.1425 21.1836 28.0044C21.3592 27.8664 21.5432 27.7528 21.5926 27.752C21.6419 27.7512 21.6823 27.7129 21.6823 27.6671C21.6823 27.6213 21.715 27.5838 21.7551 27.5838C21.8431 27.5838 22.903 26.7369 22.903 26.6666C22.903 26.5641 22.5445 25.2664 22.3276 24.5837C22.2038 24.1941 22.0849 23.8093 22.0633 23.7286C21.9924 23.4626 21.4243 23.4354 20.678 23.6622C20.5008 23.716 20.1938 23.7744 19.9958 23.7919C19.7978 23.8094 19.5579 23.8437 19.4626 23.8682C19.2373 23.9261 17.3106 23.9447 17.1186 23.8909C17.0375 23.8682 16.8598 23.7956 16.7237 23.7296C16.5876 23.6636 16.452 23.604 16.4222 23.5972C16.0111 23.5026 16.0113 23.2111 16.4225 23.0445C18.4931 22.2054 19.2481 22.0964 20.2112 22.4973C21.0719 22.8556 22.062 22.9492 21.6173 22.6302C21.5815 22.6045 21.4294 22.3398 21.2792 22.0419C21.0302 21.5478 20.9854 21.5003 20.7679 21.5003C20.5823 21.5003 20.4603 21.4198 20.2158 21.1361C19.9707 20.8517 19.8306 20.7594 19.5767 20.7152C19.2381 20.6563 18.809 20.3759 18.7525 20.1766C18.6986 19.9863 19.4504 20.1027 19.8589 20.348C20.0522 20.464 20.302 20.5848 20.414 20.6164L20.6177 20.6738L20.4725 20.3579C20.3079 19.9997 20.1886 19.6772 19.955 18.9586C19.8656 18.6836 19.7016 18.2336 19.5905 17.9586C19.4794 17.6836 19.2664 17.0921 19.1172 16.6442C18.8265 15.7712 18.1083 14.7502 17.785 14.7502C17.7507 14.7502 17.6795 14.7034 17.6268 14.6461C17.574 14.5888 17.2659 14.3356 16.9421 14.0836C16.6183 13.8315 16.2598 13.5375 16.1456 13.4303C16.0313 13.3231 15.9378 13.2544 15.9378 13.2777C15.9378 13.3009 15.9198 13.3743 15.8978 13.4408C15.8734 13.5147 15.9113 13.5779 15.9954 13.6034C16.1672 13.6555 16.2635 14.0543 16.1445 14.2207C15.8959 14.5683 15.4696 14.0592 15.6613 13.6437C15.7053 13.5481 15.71 13.4572 15.6725 13.4271C15.5325 13.3149 15.3024 12.857 15.2271 12.5411C15.104 12.0239 15.0241 11.9214 14.9632 12.2027C14.9289 12.3613 14.9508 12.5136 15.0301 12.6695C15.1974 12.9981 15.1877 13.4169 15.0129 13.4169C14.7898 13.4169 14.2385 14.0876 14.384 14.1821C14.4487 14.2241 14.5016 14.3504 14.5016 14.4627C14.5016 14.575 14.5259 14.671 14.5555 14.676C14.5851 14.6811 14.7203 14.6958 14.856 14.7087C15.1631 14.7381 15.2918 14.934 15.2905 15.3703C15.289 15.9137 15.2316 16.0337 14.8562 16.2786C14.5706 16.4649 14.5134 16.5377 14.5635 16.6511C14.5978 16.7285 14.6385 16.8394 14.6539 16.8974C14.672 16.9656 14.8595 16.8545 15.1838 16.5836C15.4598 16.353 15.6966 16.2024 15.71 16.2489C15.7234 16.2955 15.7659 16.3336 15.8044 16.3336C15.8429 16.3336 15.8568 16.3005 15.8353 16.26C15.692 15.9909 16.3054 15.5747 16.5174 15.7973C16.7629 16.0552 16.2985 16.5667 15.9191 16.4562C15.4771 16.3274 14.6744 17.2836 14.8751 17.6998C14.9168 17.7863 14.9122 17.8336 14.862 17.8336C14.8193 17.8336 14.7658 17.7774 14.743 17.7086C14.7203 17.6399 14.6532 17.5836 14.594 17.5836C14.532 17.5836 14.5024 17.6323 14.5242 17.6985C14.5451 17.7616 14.526 17.8554 14.4817 17.9068C14.363 18.0445 14.7546 18.0279 15.1938 17.8765C15.4293 17.7953 15.6624 17.6291 15.871 17.3934C16.2251 16.9935 16.4791 16.9145 16.5522 17.1817C16.6156 17.4135 16.4421 17.5965 16.1438 17.6124C16.0107 17.6195 15.8857 17.6455 15.866 17.6701C15.8462 17.6948 15.717 17.7973 15.5787 17.8979L15.3274 18.0808L15.5501 18.0822C16.0552 18.0854 16.439 18.3541 16.2635 18.5817C16.2098 18.6515 16.0865 18.9176 15.9895 19.173C15.6805 19.9876 14.9281 20.3037 14.5984 19.7575C14.316 19.2896 14.1622 19.1487 13.8645 19.0856C13.5572 19.0203 13.555 19.0216 13.5955 19.2392C13.6179 19.3599 13.6579 19.8562 13.6844 20.3421L13.7325 21.2255L13.9606 21.3213C14.0861 21.3739 14.2833 21.4175 14.399 21.4181C15.2618 21.4228 14.9562 21.9948 13.8554 22.4356C13.7685 22.4704 13.7523 22.6134 13.7716 23.1751C13.7904 23.7212 13.8118 23.836 13.8708 23.7068C14.241 22.897 14.4967 22.5806 14.6271 22.7712C14.91 23.1849 14.7666 24.0172 14.3187 24.5596C14.0794 24.8494 13.9996 25.0113 14.0014 25.2028L14.0039 25.4587L14.1271 25.16C14.1949 24.9957 14.3082 24.7946 14.379 24.7131C14.4497 24.6316 14.6245 24.3535 14.7673 24.0951C14.9394 23.7838 15.0389 23.6675 15.0623 23.7504C15.0817 23.8191 15.1276 23.8981 15.1642 23.9259C15.2043 23.9564 15.1968 24.1223 15.1455 24.3426C15.0972 24.5495 15.0782 24.9115 15.1017 25.175C15.1461 25.6721 15.1275 25.7161 14.6914 26.1457C14.4316 26.4016 14.4498 26.5213 14.8354 27.0908C15.2314 27.6759 15.183 27.6606 15.3609 27.2559C15.6727 26.5466 15.9719 26.3337 16.657 26.3337C17.2246 26.3337 17.8078 26.1838 17.9889 25.9913C18.2946 25.6664 18.5629 25.8691 18.4495 26.3393C18.2483 27.1728 17.5338 27.8194 16.8019 27.8301C15.7205 27.846 15.6569 28.2845 16.4511 30.2505C16.6455 30.7317 16.8652 31.2755 16.9393 31.4588L17.0741 31.7922L17.0346 31.3153C16.9234 29.9706 18.8123 30.5384 20.3741 32.3192C20.8434 32.8544 21.4509 33.5029 21.7241 33.7604C22.3808 34.3793 22.9194 34.7143 22.6798 34.3547L22.6798 34.3547ZM28.6476 31.1648C29.2597 30.4528 29.9203 29.7215 30.1154 29.5395C30.3106 29.3576 30.5993 29.0732 30.7569 28.9074L31.0436 28.606L30.9515 28.0075C30.8462 27.3241 30.537 26.8698 30.1281 26.7977C30.0049 26.776 29.7749 26.7314 29.617 26.6986C29.459 26.6659 29.3053 26.6454 29.2753 26.6533C29.2454 26.6611 29.0753 26.6296 28.8972 26.5833C27.9692 26.342 27.5581 26.5215 27.4371 27.2209C27.3171 27.9142 27.3265 27.9563 27.6567 28.21C28.2401 28.658 28.4192 28.9291 28.7194 29.8189C28.8851 30.3099 28.6735 30.4509 27.7319 30.4766C27.3079 30.4882 26.9554 30.5264 26.9485 30.5616C26.9417 30.5967 26.8645 31.0005 26.777 31.4588C26.6895 31.9172 26.5575 32.5711 26.4838 32.912C26.2404 34.0375 26.2723 34.0581 26.9426 33.2091C27.2682 32.7967 28.0354 31.8768 28.6476 31.1648ZM25.8448 31.4172C25.9748 30.7984 26.0925 30.2546 26.1065 30.2088C26.1205 30.163 25.9872 30.013 25.8102 29.8755C25.6332 29.738 25.4883 29.5856 25.4882 29.537C25.4882 29.4883 25.3917 29.3658 25.2739 29.2647L25.0596 29.0809L25.1024 29.4433C25.1323 29.6964 25.11 29.8848 25.0283 30.0681C24.8891 30.3807 24.9136 30.6422 25.2088 31.9887C25.3229 32.5092 25.4175 32.9593 25.4191 32.9887C25.4286 33.1699 25.6426 32.38 25.8448 31.4172ZM33.6061 28.0969C33.9351 27.8529 34.924 26.8015 35.5697 26.0094C35.7711 25.7622 35.9683 25.5287 36.0078 25.4906C36.0473 25.4524 36.1765 25.3277 36.295 25.2134C36.8899 24.6397 35.5559 25.2772 34.7624 25.9459C33.7812 26.7727 32.5599 28.1556 32.7662 28.2062C33.1258 28.2944 33.2094 28.315 33.2471 28.3241C33.269 28.3294 33.4306 28.2272 33.6061 28.0969ZM26.6176 27.3963L26.6784 27.0421L26.4275 27.0152C26.1071 26.9809 25.7035 27.0677 25.7035 27.1709C25.7035 27.2146 25.7493 27.2504 25.8052 27.2504C25.8612 27.2504 25.9177 27.2801 25.9309 27.3163C25.9562 27.3859 26.4227 27.7318 26.5071 27.7435C26.5344 27.7473 26.5841 27.5911 26.6176 27.3963ZM25.5599 25.9954C25.8561 25.9519 26.2345 25.8884 26.4009 25.8542L26.7033 25.7921L26.3151 25.2969L25.927 24.8018L25.5101 25.1741C25.2808 25.3789 24.9544 25.6548 24.7848 25.7873C24.3481 26.1284 24.3309 26.2033 24.7052 26.1335C24.8791 26.101 25.2637 26.0389 25.5599 25.9954ZM30.5146 26.0366C30.5146 25.826 30.0008 25.2808 28.9707 24.3983C28.7732 24.2292 28.4998 23.9552 28.3631 23.7895C28.1428 23.5225 28.1087 23.5055 28.063 23.6402C27.9272 24.0401 27.9853 24.1418 28.5578 24.5059C29.2315 24.9344 30.0457 25.5883 30.2541 25.8683C30.3997 26.0639 30.5146 26.1381 30.5146 26.0366ZM23.9801 25.4744C23.9801 25.4143 24.0383 25.2925 24.1094 25.2036C24.1805 25.1148 24.2612 24.9858 24.2887 24.9171C24.3163 24.8483 24.5137 24.5342 24.7276 24.2191C25.0671 23.7188 25.4163 22.8935 25.4163 22.5914C25.4163 21.9428 26.5407 20.6862 26.8254 21.0167C27.0583 21.287 27.0403 22.8229 26.7975 23.3907L26.5791 23.9015L26.8953 23.9307C27.0692 23.9468 27.2114 23.9543 27.2114 23.9474C27.2114 23.9405 27.2621 23.6503 27.3241 23.3025C27.4325 22.6941 27.4308 22.6424 27.2783 21.9394C26.8889 20.1452 27.2271 18.8812 27.8646 19.748C27.9909 19.9197 28.029 19.7986 28.2568 18.5003C28.3455 17.9946 28.3945 17.7433 28.6788 16.3336C29.0014 14.7337 28.8999 14.2554 28.2408 14.2709C27.6873 14.2839 27.4599 13.9957 27.0082 12.7085C26.7044 11.843 26.8096 11.2012 27.1384 11.9141C27.179 12.0022 27.4055 12.1938 27.6419 12.34C27.8937 12.4958 28.1831 12.765 28.341 12.9905C28.5802 13.3318 28.882 13.6766 28.9085 13.6389C28.936 13.5998 28.6318 11.2079 28.5341 10.6948L28.4205 10.0977L28.165 10.2989C27.9861 10.4398 27.81 10.5002 27.5778 10.5002C27.2505 10.5002 27.2424 10.5069 26.95 11.021C26.3917 12.0028 26.1055 12.6189 26.1191 12.8095C26.1285 12.941 26.094 13.0004 26.0079 13.0008C25.8743 13.0014 25.3486 14.3662 25.4407 14.4731C25.4668 14.5033 25.4881 14.4872 25.4881 14.4372C25.4881 14.3105 25.9705 14.1387 26.1193 14.2125C26.1868 14.246 26.2999 14.2808 26.3707 14.2898C27.0556 14.3772 27.1253 16.0836 26.444 16.0836C26.3922 16.0836 26.3498 16.1088 26.3498 16.1395C26.3498 16.2419 26.5861 16.5003 26.6798 16.5003C26.7306 16.5003 26.7921 16.5378 26.8165 16.5836C26.8435 16.6343 26.737 16.6669 26.544 16.6669C26.2181 16.6669 26.0179 16.5218 25.766 16.103L25.6524 15.9141L25.3767 16.2072C25.225 16.3684 25.075 16.5003 25.0432 16.5003C25.0114 16.5003 24.9854 16.5378 24.9854 16.5836C24.9854 16.6309 25.1951 16.6671 25.4701 16.6674C26.0975 16.668 26.996 16.9616 26.996 17.166C26.996 17.2952 26.5368 17.3297 26.0525 17.2369C25.5844 17.1472 25.5403 17.1524 25.3441 17.3208C25.229 17.4195 25.0862 17.5003 25.0268 17.5003C24.864 17.5003 24.7934 17.7273 24.742 18.417C24.7163 18.7607 24.6638 19.2857 24.6253 19.5836C24.4303 21.0934 24.2508 22.3182 24.1917 22.542C23.9503 23.4572 23.7522 25.5837 23.9083 25.5837C23.9478 25.5837 23.9801 25.5346 23.9801 25.4744ZM13.2486 24.8962C13.2333 24.8389 13.1802 24.2577 13.1306 23.6045C13.0755 22.8793 13.0104 22.4166 12.9632 22.4159C12.9207 22.4153 12.8052 22.3909 12.7064 22.3619L12.5269 22.309L12.6837 22.5088C12.896 22.7794 12.9947 23.1088 12.9886 23.5266C12.9847 23.7979 12.9699 23.8383 12.9219 23.7087C12.863 23.5497 12.8599 23.5506 12.8551 23.7295C12.8476 24.009 12.6928 23.9548 12.4969 23.604C12.3032 23.2574 12.2179 23.3423 12.362 23.7382C12.5259 24.1887 13.3455 25.2591 13.2486 24.8962ZM23.2153 23.2504C23.2753 22.9983 23.3918 22.3795 23.4742 21.8753C23.5565 21.3712 23.6544 20.7712 23.6917 20.542C23.9562 18.9173 24.0206 17.8855 23.8308 18.3129C23.7748 18.4389 23.7128 18.5607 23.693 18.5836C23.6392 18.6458 23.5047 18.9333 23.185 19.6692L22.8972 20.3315L22.9063 21.789C22.9137 22.9693 23.0212 24.1277 23.0912 23.7819C23.0994 23.7416 23.1552 23.5025 23.2153 23.2504ZM5.06402 23.2633C4.99174 23.2472 4.905 23.2845 4.87125 23.3463C4.75793 23.5538 4.80626 23.5886 5.00156 23.4401C5.16775 23.3137 5.17667 23.2885 5.06402 23.2633ZM10.9405 22.6857C10.7665 22.6268 10.624 22.5423 10.624 22.4978C10.624 22.4534 10.5756 22.417 10.5163 22.417C10.3165 22.417 10.4067 22.6263 10.6959 22.8337C10.8538 22.947 10.9831 23.0725 10.9831 23.1126C10.9831 23.1527 11.0447 23.0971 11.1201 22.9892L11.257 22.7928L10.9405 22.6857ZM5.09492 22.7582C5.09492 22.7166 5.03029 22.7022 4.9513 22.7262C4.87231 22.7502 4.80769 22.7842 4.80769 22.8017C4.80769 22.8193 4.87231 22.8337 4.9513 22.8337C5.03029 22.8337 5.09492 22.7997 5.09492 22.7582ZM10.1214 22.2503C10.1214 22.1194 10.0735 22.0837 9.89802 22.0837H9.67465L9.84417 22.2476C10.0606 22.4569 10.1214 22.4575 10.1214 22.2504V22.2503ZM6.38744 21.785C6.38744 21.6681 6.14968 21.7856 5.99541 21.9787C5.71962 22.3238 5.7767 22.381 6.10021 22.0837C6.25819 21.9385 6.38744 21.8041 6.38744 21.785ZM22.1091 20.9639C22.1031 20.348 22.0539 19.5741 21.9997 19.2441C21.8452 18.3034 21.8474 18.3078 21.5685 18.3603C21.2674 18.417 21.1742 18.2744 21.3837 18.0776C21.6054 17.8693 21.5902 17.8568 21.067 17.8182C20.7674 17.796 20.5727 17.7408 20.5332 17.6666C20.4358 17.4837 20.5113 17.4295 20.8027 17.4729C21.1791 17.5289 21.4565 17.3059 21.169 17.1784C20.7804 17.0062 20.5667 16.0294 20.8565 15.7502C20.9158 15.6932 20.9642 15.6066 20.9642 15.5579C20.9642 15.4285 21.2605 15.0836 21.3717 15.0836C21.424 15.0836 21.4669 15.0148 21.4669 14.9308C21.4669 14.8449 21.5183 14.778 21.5844 14.778C21.6491 14.778 21.7175 14.8468 21.7364 14.9308C21.7574 15.0237 21.8363 15.0836 21.9378 15.0836C22.0296 15.0836 22.1246 15.1211 22.1491 15.1669C22.1735 15.2127 22.2651 15.2502 22.3527 15.2502C22.9459 15.2502 23.2183 16.347 22.7519 16.8577C22.5812 17.0446 22.5755 17.2007 22.7415 17.1417C22.8106 17.1172 22.9717 17.0593 23.0995 17.0132C23.4379 16.8909 23.4516 17.0291 23.1393 17.4143C22.9524 17.6448 22.8065 17.75 22.6739 17.7501C22.402 17.7503 22.3887 17.8174 22.5281 18.4878C22.6665 19.1535 22.7114 19.1777 22.9298 18.704C23.0138 18.5219 23.2522 18.0841 23.4595 17.7311C23.6669 17.3781 23.8365 17.0628 23.8365 17.0305C23.8365 16.9982 23.8887 16.9048 23.9525 16.823C24.0622 16.6823 24.0544 16.6769 23.8089 16.7232C23.5308 16.7755 23.4882 16.7169 23.6516 16.5068C23.7412 16.3917 23.7285 16.332 23.5498 16.0281C23.4375 15.8372 23.3645 15.6591 23.3876 15.6323C23.4572 15.5516 23.8248 15.5775 23.8722 15.6665C23.9611 15.8334 24.1955 15.9322 24.1955 15.8028C24.1955 15.7368 24.0525 15.5855 23.8777 15.4666C23.7028 15.3476 23.5009 15.1643 23.4289 15.0592C23.3569 14.9541 23.1051 14.7009 22.8695 14.4966C22.1891 13.9069 21.9366 13.5414 21.8578 13.0324L21.8076 12.7085L22.0142 12.9282C22.1279 13.049 22.3202 13.2059 22.4417 13.277C22.5631 13.348 22.7886 13.5679 22.9427 13.7657C23.0968 13.9634 23.2564 14.1259 23.2975 14.1268C23.4206 14.1293 24.0519 14.5843 24.0519 14.6704C24.0519 14.7143 24.0879 14.7502 24.1319 14.7502C24.215 14.7502 24.2085 14.6827 24.0392 13.7919L23.9442 13.2919L23.5852 13.2388C23.2256 13.1857 22.5156 12.8958 22.3467 12.7331C22.187 12.5793 22.2366 12.3897 22.4183 12.459C23.4123 12.8376 23.7662 12.2364 23.0495 11.3867L22.8483 11.1482L22.5201 11.3714C21.8234 11.8453 21.3511 11.437 21.6949 10.6582C21.884 10.2297 21.852 9.75439 21.6084 9.37515C21.579 9.32931 21.5332 9.14181 21.5066 8.95847C21.4382 8.4864 21.2854 8.2635 21.1239 8.40024C20.6634 8.79012 19.7931 9.11326 19.6502 8.94741C19.5948 8.88307 19.8825 8.61152 20.1136 8.51011C20.2338 8.45733 20.1289 8.43934 19.7476 8.4473L19.2131 8.45847L19.0768 8.01363C18.9421 7.574 18.9421 7.56668 19.0822 7.38862C19.2738 7.14488 19.3231 6.68275 19.1783 6.48653C19.0286 6.28366 18.9779 6.29338 18.9256 6.53489C18.9017 6.64569 18.7641 6.82093 18.62 6.92432C18.3905 7.08891 18.3749 7.11965 18.4942 7.17137C19.1361 7.44957 18.8625 9.32689 18.1793 9.3322C18.0686 9.33309 17.9671 9.42833 17.867 9.62515C17.7852 9.78617 17.661 9.91682 17.5899 9.91682C17.4404 9.91682 17.362 10.093 17.4434 10.2458C17.4831 10.3204 17.5139 10.3243 17.5487 10.2591C17.5757 10.2083 17.6824 10.1668 17.7859 10.1668C18.1515 10.1668 18.4251 9.99065 18.5168 9.69625C18.6469 9.2789 19.1691 9.08758 19.1691 9.45728C19.1691 9.77677 18.7435 10.1256 18.147 10.2951C17.878 10.3715 18.0567 10.6993 18.3775 10.718C18.7488 10.7397 18.8171 10.801 18.7382 11.0418C18.6836 11.2086 18.6918 11.2667 18.7749 11.3037C18.8337 11.3299 18.8818 11.406 18.8818 11.4728C18.8818 11.554 18.9472 11.5883 19.0793 11.5763C19.5858 11.5304 19.5715 11.5072 19.5605 12.3544C19.555 12.7783 19.5455 13.1742 19.5393 13.2341C19.5231 13.3914 18.9406 13.6691 18.7489 13.6109C18.5912 13.5631 18.5927 13.5742 18.8115 14.074C19.0178 14.5451 19.1691 14.6693 19.1691 14.3675C19.1691 14.17 19.4936 13.4825 19.7971 13.0369C20.327 12.2591 20.9428 12.0959 20.6463 12.8119C20.5495 13.0457 20.5186 13.3076 20.5244 13.8441C20.5331 14.6452 20.4983 14.7327 19.9141 15.3805L19.6087 15.7192L19.8824 16.6306C20.2614 17.8926 20.5046 18.623 20.741 19.2086C20.8519 19.4836 21.0642 20.0086 21.2127 20.3753C21.4505 20.9626 22.0301 22.0837 22.0959 22.0837C22.1092 22.0837 22.1151 21.5798 22.1091 20.9639H22.1091ZM7.32093 20.9949C7.32093 20.7034 7.01162 20.3006 6.52062 19.9527C6.20124 19.7264 5.88049 19.6393 5.88519 19.7801C5.89915 20.1985 6.32844 20.9651 6.57356 21.0093C7.04163 21.0939 7.32093 21.0884 7.32093 20.9949ZM13.0655 20.929C13.0655 20.8107 13.0148 20.7763 12.8502 20.7831C12.7318 20.788 12.6349 20.7983 12.6348 20.806C12.6347 20.8137 12.6543 20.8793 12.6782 20.9518C12.7417 21.1438 13.0655 21.1246 13.0655 20.929ZM12.5606 20.3614C12.5618 20.2621 12.5969 20.1677 12.6385 20.1516C12.7075 20.1249 12.7389 19.8515 12.7155 19.4821C12.698 19.205 12.2018 19.6136 12.0989 19.9899C12.0746 20.0788 12.0075 20.1726 11.9497 20.1983C11.7915 20.2688 11.8237 20.4019 12.0063 20.432C12.11 20.4491 12.1761 20.5257 12.1908 20.6457C12.2217 20.8984 12.5571 20.6406 12.5606 20.3614ZM5.3403 16.7614C5.36144 16.7217 5.23747 16.5157 5.06483 16.3036C4.83517 16.0214 4.74012 15.9506 4.71069 16.0396C4.64922 16.2255 5.25551 16.9206 5.3403 16.7614ZM13.2379 16.3727C13.2341 16.2824 13.2179 16.1169 13.202 16.0049C13.1792 15.8434 13.2103 15.7908 13.352 15.7513C13.4728 15.7176 13.5019 15.6807 13.4417 15.6376C13.339 15.5639 13.3228 15.2376 13.4161 15.1211C13.5673 14.9324 13.5938 14.1974 13.4438 14.3549C13.3508 14.4526 13.187 14.5002 12.9438 14.5002H12.5821L12.6477 14.8544C12.6838 15.0492 12.732 15.4974 12.7548 15.8503C12.7868 16.3447 12.8231 16.5006 12.9129 16.529C13.1255 16.5964 13.2451 16.5388 13.2379 16.3727ZM18.1885 14.1841C18.1657 14.083 18.1185 14.0002 18.0836 14.0002C18.0487 14.0002 18.0202 13.9481 18.0202 13.8845C18.0202 13.6974 17.7383 13.3379 17.7353 13.521C17.7324 13.6992 17.529 13.7152 17.4717 13.5419C17.4489 13.4731 17.3959 13.4169 17.3539 13.4169C17.3119 13.4169 17.2216 13.3582 17.1533 13.2864C17.0828 13.2124 17.0109 13.1901 16.9871 13.2349C16.9425 13.3187 17.3175 13.7043 17.8665 14.1389C18.2422 14.4364 18.2454 14.4368 18.1885 14.1841ZM30.0137 12.1386C30.0969 11.9168 30.1838 11.4751 30.2067 11.157L30.2485 10.5787L29.9706 10.2543C29.6701 9.90352 29.5811 9.89484 29.5811 10.2163C29.5811 10.3298 29.5264 10.5195 29.4596 10.6378C29.3498 10.8323 29.3462 10.9563 29.4224 11.9321C29.5379 13.4111 29.5368 13.4107 30.0137 12.1386ZM24.7532 12.5366C24.906 12.3905 24.9207 12.338 24.8515 12.1879C24.5625 11.5612 25.177 10.8398 25.7151 11.174C26.1488 11.4434 26.4191 10.1034 25.9888 9.81676C25.6611 9.5985 25.4733 9.18822 25.5233 8.79975C25.5738 8.40673 25.6311 8.28085 25.7003 8.41072C25.7341 8.47435 25.8145 8.43196 25.9433 8.28243C26.2646 7.90959 26.765 8.68815 26.6659 9.4068C26.6019 9.87144 26.6541 9.83956 26.9169 9.25356C27.1848 8.65617 27.1913 8.47699 26.9605 8.04179C26.6728 7.49913 26.5689 7.21145 26.6487 7.17824C26.8007 7.115 27.2919 7.45494 27.4339 7.72175C27.5672 7.97199 27.7141 8.08915 27.7141 7.9452C27.7141 7.91499 27.5848 7.69159 27.4269 7.44876C27.2689 7.20594 27.1396 6.98139 27.1396 6.94977C27.1396 6.88755 26.7691 6.35137 26.4658 5.97477C26.3623 5.84626 26.2269 5.62715 26.1648 5.48785C26.0295 5.18432 25.9564 5.21783 26.0605 5.53562C26.2195 6.02077 26.0735 6.28136 25.8471 5.91676C25.6293 5.56611 25.4663 5.70727 25.638 6.09783C25.9014 6.69706 25.7043 7.36017 25.2093 7.53965C25.0772 7.58756 25.0608 7.61827 25.1375 7.67462C25.2118 7.72926 25.1973 7.74789 25.0794 7.74885C24.7687 7.75137 24.7841 8.20923 25.0979 8.30064C25.32 8.36531 25.3183 8.44639 25.0906 8.65421L24.9086 8.82039L25.0727 8.88052C25.2422 8.94265 25.4881 9.21994 25.4881 9.34904C25.4881 9.38941 25.375 9.49988 25.2368 9.59453C24.9312 9.80376 24.9284 9.8369 25.2013 10.0171C25.8183 10.4245 25.0353 11.388 24.4053 10.9967C24.3104 10.9377 24.2253 10.9369 24.1407 10.9941C24.0722 11.0405 24.0503 11.0796 24.0922 11.081C24.1698 11.0836 24.2634 11.4565 24.4244 12.4037C24.4738 12.6944 24.5276 12.8819 24.5438 12.8204C24.5601 12.7589 24.6543 12.6312 24.7532 12.5366L24.7532 12.5366ZM16.4404 12.1761C16.4404 12.1353 16.3731 12.0135 16.2908 11.9053C16.1743 11.7521 16.1504 11.7423 16.1831 11.8612C16.2061 11.9451 16.225 12.067 16.225 12.132C16.225 12.197 16.2735 12.2502 16.3327 12.2502C16.3919 12.2502 16.4404 12.2168 16.4404 12.1761ZM14.6741 9.53632C14.6632 9.21839 14.6876 9.05939 14.7516 9.03087C14.813 9.00354 14.743 8.87845 14.5477 8.6664C14.2235 8.31447 14.1391 8.34936 14.3164 8.76193C14.3788 8.90703 14.4266 9.08561 14.4227 9.15878C14.4187 9.23195 14.3896 9.19806 14.358 9.08348C14.3099 8.90933 14.2993 8.93581 14.2934 9.24477C14.2881 9.51741 14.3272 9.66502 14.4423 9.80728C14.6664 10.0841 14.6918 10.0545 14.6741 9.53632ZM15.8283 8.82926C15.7654 8.53365 15.6654 8.08554 15.6062 7.83346C15.5471 7.58137 15.4809 7.29298 15.4593 7.1926C15.3489 6.67977 15.0295 6.66777 14.7984 7.16778C14.7091 7.36109 14.5927 7.47446 14.4347 7.52196L14.2024 7.59183L14.4777 7.9548C14.6291 8.15443 14.7933 8.3213 14.8427 8.32561C14.9499 8.33499 14.9622 8.19796 14.8607 8.12513C14.7688 8.05925 14.7682 7.65738 14.8595 7.37862C14.9238 7.18238 15.1909 7.13972 15.354 7.29965C15.4456 7.38953 15.2658 8.10686 15.1423 8.14436C14.9757 8.19491 14.9665 8.29011 15.1145 8.43435C15.1751 8.49345 15.2697 8.58868 15.3248 8.64597C15.3798 8.70326 15.455 8.75014 15.4919 8.75014C15.5288 8.75014 15.6361 8.93965 15.7304 9.17128C15.9406 9.68752 15.981 9.54627 15.8283 8.82926H15.8283ZM27.8815 9.41554C28.0591 9.41284 28.1497 9.27965 28.0933 9.10423C28.0308 8.90988 27.9449 8.95627 27.6782 9.32814C27.5461 9.51227 27.5452 9.52391 27.6661 9.47261C27.7384 9.44192 27.8354 9.41624 27.8815 9.41554ZM16.6851 7.67095C16.6424 7.39722 16.721 7.2674 16.944 7.24341C17.3372 7.2011 17.4943 7.25242 17.587 7.45354L17.6809 7.65696L17.8056 7.4782C17.9317 7.29747 17.3913 6.91843 17.0057 6.91716C16.9414 6.91696 16.7685 6.85846 16.6215 6.78719C16.2247 6.59476 16.0346 7.01947 16.1989 7.73121C16.2683 8.0318 16.7325 7.97427 16.6851 7.67095ZM21.5855 7.16678C21.6519 7.16678 21.6881 7.14572 21.6659 7.11998C21.6437 7.09424 21.4232 7.09976 21.1759 7.13223L20.7262 7.19128L20.9687 7.42099L21.2112 7.6507L21.338 7.40874C21.4077 7.27566 21.5191 7.16678 21.5855 7.16678ZM11.6293 7.2607C11.8071 7.2105 12.0494 7.14645 12.1679 7.11835C12.3708 7.07025 12.3582 7.05803 11.9525 6.90834C11.3761 6.69572 11.2684 6.72337 11.1524 7.11371C11.0646 7.40917 11.067 7.43221 11.1815 7.39381C11.2501 7.37079 11.4516 7.31089 11.6293 7.2607ZM24.0089 6.93761C23.9456 6.62127 23.7809 6.33343 23.6631 6.33343C23.4817 6.33343 23.447 5.89131 23.6173 5.75038C23.7006 5.68147 23.9295 5.44696 24.1261 5.22925L24.4835 4.83341H24.2223C23.9073 4.83341 23.5354 5.08282 23.1723 5.53769C22.8504 5.941 22.8539 5.89559 23.1049 6.39227C23.2159 6.61199 23.3271 6.85486 23.3521 6.93197C23.3782 7.01271 23.4982 7.08658 23.6349 7.10614C23.7655 7.12482 23.9134 7.14611 23.9635 7.15344C24.0273 7.16277 24.0409 7.09791 24.0089 6.93761ZM13.4089 6.70685C13.343 6.42042 13.3538 6.3243 13.4852 6.02537L13.6382 5.67735L13.4924 5.62366C13.4123 5.59413 13.2224 5.42855 13.0704 5.25571C12.3622 4.45006 12.4511 5.93651 13.1612 6.77305C13.4856 7.1552 13.5105 7.14854 13.4089 6.70685ZM22.1226 6.11827C22.0287 5.41823 21.8977 5.21837 21.8977 5.77509C21.8977 5.9952 21.931 6.16676 21.9738 6.16676C22.0156 6.16676 22.0279 6.20784 22.0012 6.25804C21.9527 6.34915 22.1102 6.78134 22.1676 6.71469C22.1843 6.69535 22.164 6.42696 22.1226 6.11827ZM12.132 6.21257C12.132 6.1461 12.0892 6.06172 12.0368 6.02507C11.9845 5.98842 11.9209 5.8928 11.8955 5.81259C11.869 5.72895 11.7756 5.66676 11.6765 5.66676C11.5814 5.66676 11.3946 5.64485 11.2613 5.61807C11.126 5.59088 11.0539 5.60007 11.098 5.63891C11.1414 5.67714 11.2153 5.7928 11.2621 5.89593C11.3089 5.99905 11.4026 6.08398 11.4703 6.08466C11.538 6.08533 11.6742 6.13791 11.773 6.20149C12.0124 6.35568 12.132 6.35937 12.132 6.21257ZM35.2337 4.98381C35.4776 4.792 35.558 4.66191 35.6465 4.31604C35.7796 3.7961 35.7849 3.68368 35.6703 3.81673C35.6229 3.87173 35.4691 3.91673 35.3285 3.91673C35.0755 3.91673 35.0713 3.92255 34.9098 4.50001C34.8201 4.82082 34.7279 5.14 34.705 5.2093C34.6497 5.37674 34.8338 5.29818 35.2337 4.98381ZM30.7121 4.79125C30.6446 4.73684 29.9104 4.89321 29.8896 4.96642C29.8266 5.18846 30.327 5.22251 30.5324 5.01015C30.6411 4.89773 30.722 4.79922 30.7121 4.79125ZM26.9554 3.58545C27.0567 3.54075 27.1396 3.44432 27.1396 3.37116C27.1396 3.298 27.1881 3.1819 27.2473 3.11314C27.4798 2.84336 27.3315 2.8552 26.8202 3.14726L26.2854 3.45275L26.515 3.5498C26.6413 3.60317 26.7507 3.65131 26.758 3.65678C26.7653 3.66225 26.8541 3.63015 26.9554 3.58545ZM27.1755 2.75004C27.247 2.65838 27.2732 2.58337 27.2337 2.58337C27.1942 2.58337 27.1034 2.65838 27.0319 2.75004C26.9604 2.84171 26.9343 2.91671 26.9738 2.91671C27.0133 2.91671 27.1041 2.84171 27.1755 2.75004ZM35.541 89.6681C35.541 89.6222 35.5734 89.5847 35.6128 89.5847C35.6523 89.5847 35.6847 89.6222 35.6847 89.6681C35.6847 89.7139 35.6523 89.7514 35.6128 89.7514C35.5734 89.7514 35.541 89.7139 35.541 89.6681ZM35.9719 89.4181C35.9719 89.3722 36.0061 89.3347 36.0479 89.3347C36.0897 89.3347 36.104 89.3722 36.0796 89.4181C36.0552 89.4639 36.021 89.5014 36.0035 89.5014C35.9861 89.5014 35.9719 89.4639 35.9719 89.4181Z" fill="#D7AE1E"/>
</svg>
