<svg width="377" height="703" viewBox="0 0 377 703" fill="none" xmlns="http://www.w3.org/2000/svg">
<path d="M147.424 700.976C147.614 700.52 148.26 699.332 148.86 698.338C152.559 692.202 148.916 677.63 141.256 667.92C138.369 664.261 130.602 638.268 133.081 640.564C136.243 643.492 139.024 647.193 139.878 649.61C140.191 650.496 140.66 651.442 140.92 651.713C141.179 651.983 141.939 653.166 142.607 654.341C147.965 663.765 157.346 671.691 161.796 670.554C162.228 670.444 162.498 670.669 162.403 671.061C162.299 671.485 162.584 671.619 163.116 671.397C163.604 671.193 164.371 671.076 164.82 671.131C171.447 671.98 174.044 671.233 174.119 668.457C174.309 661.432 166.011 649.374 158.069 645.132C155.961 644.007 148.328 641.563 147.528 641.757C146.824 641.929 140.716 638.03 141.389 637.84C141.711 637.748 142.149 637.864 142.361 638.098C143.539 639.388 152.55 639.585 154.615 638.365C157.196 636.841 152.09 630.466 146.262 627.936C145.57 627.636 147.013 622.211 147.714 622.484C147.996 622.594 148.038 621.822 147.807 620.767C147.346 618.669 147.099 617.719 144.707 608.824C143.818 605.517 143.052 602.545 143.004 602.221C142.812 600.912 149.461 612.777 153.203 620.424C159.297 632.873 161.908 637.224 163.712 637.928C164.041 638.056 164.375 638.42 164.456 638.736C164.537 639.051 164.339 639.207 164.017 639.081C163.695 638.956 163.504 639.138 163.593 639.486C163.682 639.835 164.051 639.963 164.413 639.772C165.341 639.282 169.349 643.219 169.32 644.591C169.301 645.457 169.358 645.491 169.586 644.749C169.827 643.969 170.194 643.993 171.745 644.888C176.772 647.79 183.336 647.956 183.999 645.198C185.595 638.56 177.465 622.669 171.203 620.189C170.63 619.962 170.077 619.451 169.976 619.053C169.874 618.655 169.624 618.372 169.419 618.423C169.215 618.475 167.989 617.894 166.695 617.13C165.401 616.367 163.558 615.326 162.599 614.817C161.641 614.308 159.649 612.613 158.172 611.052C156.696 609.49 154.86 607.594 154.094 606.837C151.712 604.486 152.874 604.627 158.114 607.326C164.467 610.598 165.815 611.037 170.037 611.215C176.572 611.489 183.015 608.168 182.193 604.948C181.709 603.053 173.179 596.044 171.789 596.399C171.576 596.454 170.776 596.089 170.011 595.589C168.665 594.711 161.541 594.121 159.271 594.7C158.658 594.857 157.314 594.821 156.285 594.62C155.256 594.42 153.292 594.35 151.922 594.466C147.82 594.813 145.529 592.942 138.084 583.164C131.054 573.932 130.672 573.041 134.898 575.744C136.457 576.742 137.928 577.508 138.167 577.447C138.406 577.386 139.291 577.779 140.135 578.321C142.231 579.668 146.846 582.134 148.077 582.566C154.6 584.854 158.177 585.188 162.992 583.958C166.715 583.007 171.864 580.12 173.325 578.165C173.898 577.397 174.584 576.713 174.849 576.646C177.032 576.088 175.467 572.279 172.166 570.112C170.336 568.911 169.549 567.596 170.512 567.35C170.8 567.276 170.847 567.008 170.615 566.754C170.383 566.5 170.391 566.057 170.632 565.77C170.873 565.482 170.859 564.916 170.599 564.512C170.34 564.107 170.325 563.726 170.564 563.664C170.804 563.603 170.887 562.481 170.748 561.17C170.609 559.859 170.679 558.739 170.904 558.682C171.128 558.625 171.19 557.438 171.041 556.046C170.494 550.924 171.175 550.604 174.231 554.546C182.836 565.647 184.967 572.13 184.45 585.631C183.856 601.163 190.533 617.103 194.228 608.97C194.61 608.129 194.749 607.252 194.538 607.02C194.327 606.788 194.395 606.537 194.69 606.462C194.985 606.386 195.267 605.557 195.316 604.619C195.365 603.681 195.469 602.346 195.547 601.653C195.806 599.334 195.362 592.571 194.626 587.621C194.225 584.925 193.946 582.518 194.006 582.272C194.066 582.025 193.891 580.386 193.618 578.63C193.345 576.874 193.21 575.258 193.319 575.038C194.091 573.485 203.376 584.712 206.645 591.151C209.223 596.227 212.512 600.566 214.208 601.128C214.822 601.331 215.48 601.639 215.67 601.812C215.86 601.985 216.952 602.08 218.097 602.022C219.241 601.964 221.141 602.313 222.319 602.797C225.991 604.307 230.675 603.397 230.638 601.181C230.497 592.72 225.88 585.641 217.797 581.492C216.771 580.966 215.16 580.112 214.217 579.596C213.274 579.079 212.256 578.72 211.955 578.796C211.654 578.873 211.342 578.678 211.261 578.362C211.181 578.046 210.773 577.875 210.355 577.981C209.429 578.218 206.728 577.131 206.555 576.453C206.416 575.91 207.206 575.969 210.696 576.762C218.389 578.511 225.65 576.246 228.09 571.335C229.015 569.473 223.846 564.132 221.66 564.69C221.295 564.783 220.936 564.623 220.862 564.333C220.484 562.855 212.335 563.037 203.334 564.726C197.111 565.893 195.143 565.258 190.273 560.512C189.022 559.292 187.836 558.198 187.638 558.08C187.44 557.962 186.25 556.945 184.993 555.82C182.684 553.755 182.21 552.358 184.228 553.57C185.211 554.16 193.79 556.508 194.396 556.354C194.532 556.319 196.203 556.674 198.11 557.144C200.017 557.613 202.962 557.843 204.654 557.655C206.347 557.468 208.891 557.21 210.309 557.082C214.532 556.701 218.709 554.622 221.421 551.551C222.739 550.06 224.029 548.785 224.29 548.719C224.59 548.642 229.687 568.366 238.225 602.653L251.687 656.708L253.166 656.09C254.689 655.453 258.044 652.258 258.431 651.075C258.577 650.63 258.701 650.598 258.804 650.98C258.888 651.295 259.626 651.381 260.443 651.173C261.26 650.964 261.879 650.6 261.818 650.363C261.758 650.126 261.485 649.989 261.213 650.058C260.941 650.128 260.606 649.731 260.469 649.177C260.256 648.318 260.321 648.279 260.912 648.911C261.709 649.764 259.272 641.131 258.168 639.19C257.797 638.537 257.72 638.091 257.996 638.199C258.588 638.429 258.467 637.942 236.668 552.044C222.825 497.497 219.623 485.375 218.989 485.119C218.401 484.881 218.418 484.752 219.06 484.581C221.688 483.88 224.855 470.541 223.579 465.545C222.982 463.207 224.407 465.068 225.815 468.464C232.228 483.937 247.82 498.229 249.886 490.529C251.841 483.242 246.101 474.881 232.641 465.411C227.603 461.865 223.438 458.799 223.386 458.597C223.162 457.717 233.957 457.359 241.165 458.008C246.317 458.471 252.967 465.503 257.099 474.856C257.834 476.52 258.71 478.493 259.045 479.241C260.971 483.531 265.818 489.192 268.989 490.854C274.846 493.923 277.606 493.874 277.71 490.7C277.743 489.685 277.851 488.696 277.95 488.502C279.522 485.436 269.075 467.828 262.894 463.127C260.717 461.471 261.649 461.324 264.171 462.926C265.441 463.733 268.857 465.526 271.761 466.911C274.665 468.295 278.879 470.587 281.126 472.003C285.028 474.463 289.355 476.518 293.729 477.989C297.269 479.179 308.46 476.652 306.955 475.002C306.78 474.81 307.435 473.949 308.411 473.088C313.072 468.972 313.545 465.793 310.124 461.571C303.193 453.018 299.74 452.185 284.251 455.335C273.984 457.422 267.346 457.305 259.884 454.905L255.575 453.52L262.177 451.446C265.982 450.251 269.623 448.762 270.771 447.932C274.517 445.224 276.472 443.46 276.333 442.913C276.256 442.613 276.455 442.47 276.775 442.594C278.373 443.218 283.737 429.547 283.499 425.458C283.312 422.245 282.494 422.152 274.133 424.393C264.093 427.085 263.345 427.825 255.856 442.501C252.072 449.914 247.613 452.611 240.969 451.501C238.999 451.172 229.522 452.302 226.241 453.258L223.542 454.044L225.24 450.846C228.521 444.67 232.754 441.757 246.647 436.113C248.355 435.42 249.964 434.752 250.223 434.629C250.482 434.506 250.939 434.311 251.24 434.196C252.348 433.769 257.373 426.491 257.153 425.63C257.12 425.5 257.523 423.813 258.05 421.882C258.947 418.592 258.94 418.336 257.933 417.812C252.525 414.995 243.391 416.638 238.601 421.289C237.072 422.773 235.658 424.029 235.459 424.08C235.26 424.131 233.728 426.187 232.054 428.649C230.379 431.111 228.945 432.871 228.865 432.56C228.785 432.248 228.886 431.795 229.089 431.554C230.038 430.424 226.944 416.472 225.295 414.442C224.458 413.411 224.485 413.338 225.657 413.465C232.184 414.172 237.621 409.032 236.206 403.492C236.091 403.04 236.615 401.378 237.372 399.797C238.128 398.217 238.714 396.795 238.674 396.637C238.283 395.101 238.317 394.966 238.918 395.657C239.278 396.07 239.934 397.555 240.377 398.956C242.67 406.221 249.164 412.045 254.285 411.428C255.87 411.238 256.281 406.79 254.991 403.792C254.665 403.033 253.984 401.287 253.479 399.91C252.91 398.356 251.376 396.078 249.436 393.905C245.656 389.668 241.046 370.185 244.474 372.932C244.574 373.012 246.315 375.133 248.343 377.644C255.624 386.662 260.602 390.186 268.332 391.795L271.742 392.505L271.841 395.352L271.939 398.198L274.249 398.803C275.519 399.136 277.496 399.879 278.642 400.455C283.108 402.699 289.092 398.621 290.495 392.379C291.117 389.608 292.189 391.059 291.893 394.272C291.519 398.338 295.562 408.52 297.075 407.323C297.688 406.839 298.276 407.971 298.734 410.52C298.835 411.083 299.132 411.489 299.392 411.423C299.653 411.356 299.833 411.768 299.794 412.339C299.754 412.913 299.89 413.176 300.098 412.927C300.305 412.681 300.998 412.734 301.637 413.046C302.74 413.583 302.753 413.624 301.888 413.845C301.286 413.999 301.864 414.471 303.593 415.235C306.952 416.72 307.18 416.635 308.332 413.468C310.309 408.031 309.435 405.397 302.609 396.22C294.89 385.843 294.155 384.026 299.973 389.702C301.818 391.503 303.502 393.069 303.715 393.183C303.928 393.297 304.355 393.739 304.663 394.165C305.234 394.953 310.874 400.958 315.136 405.316C316.74 406.955 317.478 408.111 317.458 408.951C317.252 417.915 324.182 428.086 330.586 428.216C332.503 428.255 333.306 424.215 332.112 420.542C331.513 418.701 331.417 417.49 331.787 416.439C332.076 415.619 332.321 414.537 332.331 414.034C332.344 413.408 332.983 413.774 334.356 415.195C336.14 417.041 338.494 418.567 346.925 423.344C348.228 424.083 350.201 425.303 351.309 426.056C352.416 426.809 354.09 427.759 355.028 428.166C355.966 428.574 357.433 429.209 358.289 429.577C363.697 431.909 377.673 424.558 376.461 420.02C373.674 409.586 363.845 404.832 349.407 406.935C344.001 407.722 340.009 407.115 336.02 404.898C334.136 403.851 332.053 402.823 331.391 402.614C329.456 402.004 330.245 401.681 333.075 401.924C334.517 402.049 336.62 401.915 337.748 401.626C339.129 401.274 341.33 401.512 344.482 402.355C350.675 404.011 358.353 402.731 357.694 400.151C357.623 399.871 358.192 399.079 358.959 398.392C360.744 396.792 361.498 395.551 361.593 394.059C361.762 391.389 350.876 385.984 345.896 386.267C344.616 386.339 344.11 386.025 343.571 384.82C342.763 383.014 339.418 380.211 337.026 379.336C335.159 378.652 334.694 377.927 335.921 377.614C336.991 377.34 343.923 379.268 344.08 379.882C344.227 380.458 346.998 381.384 350.422 382.003C356.123 383.034 361.246 379.975 364.478 373.61L366.665 369.303L365.337 368.189C357.694 361.777 354.541 360.815 347.051 362.609C344.181 363.297 340.571 364.49 339.027 365.26C332.179 368.677 327.11 370.061 331.905 367.204C338.603 363.213 343.338 356.316 343.554 350.237L343.654 347.435L342.162 347.176C336.024 346.112 327.472 351.57 322.162 359.94C319.005 364.915 318.589 365.32 313.535 368.331C311.226 369.706 308.444 371.514 307.352 372.35C305.026 374.13 305.129 374.085 301.894 374.725C299.502 375.198 299.447 375.176 300.724 374.273C303.476 372.328 305.586 370.412 306.717 368.832C307.932 367.134 309.789 365.586 310.559 365.628C310.805 365.642 310.992 365.155 310.974 364.548C310.957 363.94 311.365 363.061 311.88 362.594C312.395 362.126 312.681 361.445 312.515 361.079C312.349 360.713 312.416 360.361 312.664 360.298C312.912 360.235 313.311 358.962 313.55 357.471C313.789 355.979 314.086 354.32 314.21 353.783C314.427 352.843 314.437 345.943 314.227 342.685C314.115 340.957 312.816 340.675 309.212 341.596C307.586 342.011 306.9 342.481 303.297 345.647C299.651 348.85 297.382 355.328 296.985 363.667C296.482 374.252 294.123 377.083 288.557 373.783C286.315 372.453 283.266 371.107 278.059 369.149C275.331 368.123 272.706 367.134 272.224 366.95C267.933 365.313 262.332 363.361 262.097 363.421C261.937 363.462 260.178 363.085 258.189 362.584C256.2 362.082 254.242 361.756 253.838 361.859C253.434 361.962 252.921 361.845 252.697 361.6C252.473 361.354 251.095 361.128 249.635 361.096C245.811 361.014 245.821 360.588 249.737 356.822C254.649 352.098 255.447 352.025 263.511 355.549C271.164 358.893 272.955 359.316 277.454 358.839C281.447 358.416 282.999 357.844 283.336 356.673C283.421 356.379 285.866 355.503 288.771 354.725L294.052 353.312L293.617 351.608C292.308 346.484 281.479 342.999 273.668 345.188C270.751 346.006 265.814 347.112 262.699 347.646L257.034 348.618L260.069 346.44C269.278 339.829 276.928 336.428 282.076 336.658C290.94 337.054 306.227 331.68 308.957 327.209C310.736 324.295 308.809 320.279 305.978 321.002C305.607 321.097 304.544 320.948 303.617 320.671C302.317 320.282 300.128 320.622 294.067 322.156C287.158 323.905 286.182 324.033 286.032 323.208C285.392 319.709 277.256 323.55 273.987 328.894C273.429 329.805 272.208 331.064 271.274 331.692C270.339 332.32 269.182 333.155 268.703 333.549C264.586 336.929 264.792 336.858 265.377 334.693C265.83 333.017 270.286 325.153 272.037 322.939C272.538 322.306 273.129 321.452 273.35 321.04C273.572 320.628 274.1 320.019 274.523 319.688C274.946 319.357 275.209 318.755 275.107 318.349C275.006 317.944 275.543 316.799 276.303 315.804C277.062 314.809 277.604 313.686 277.507 313.308C277.411 312.93 277.728 311.88 278.213 310.976C278.699 310.071 278.921 309.14 278.709 308.907C278.496 308.673 278.558 308.422 278.846 308.348C279.134 308.275 279.176 307.454 278.939 306.525C278.701 305.596 278.701 304.604 278.939 304.321C279.492 303.662 277.689 297.469 276.836 297.1C275.584 296.558 269.966 299.705 267.423 302.374C266.26 303.594 265.811 304.51 263.64 310.09C262.507 313.004 259.014 331.746 259.355 333.081C259.876 335.122 253.812 346.566 251.958 347.039C251.695 347.107 251.3 347.62 251.083 348.181C249.819 351.432 249.545 348.445 250.781 344.892C255.71 330.725 253.146 299.025 247.461 303.829C242.261 308.223 239.436 319.249 241.086 328.702C242.21 335.137 242.972 339.181 244.165 345.052C245.489 351.565 245.253 354.547 243.229 356.855C242.576 357.6 242.105 358.453 242.181 358.751C242.709 360.818 241.23 358.902 240.284 356.294C238.299 350.823 238.019 350.176 236.36 347.243C228.066 332.576 211.282 322.424 214.197 333.837C214.627 335.522 214.883 336.925 214.764 336.955C214.646 336.985 213.848 336.881 212.991 336.724C209.306 336.046 207.832 336.326 205.332 338.177C203.156 339.788 200.098 341.254 202.003 339.773C202.86 339.107 206.035 332.615 206.59 330.394C207.195 327.974 206.179 327.256 201.797 327.005L198.207 326.799L198.596 323.335C198.809 321.43 199.257 314.845 199.59 308.701C199.922 302.558 200.299 297.026 200.427 296.409C200.555 295.792 200.593 295.026 200.511 294.706C200.43 294.387 200.593 292.345 200.874 290.168C201.155 287.992 201.71 282.686 202.108 278.377C202.505 274.068 202.942 269.688 203.078 268.643C203.426 265.965 203.864 261.477 204.026 258.915C204.51 251.264 204.853 249.362 205.823 248.93C210.394 246.896 211.293 244.2 208.046 242.267L205.805 240.933L206.174 235.374C206.376 232.317 206.718 228.67 206.934 227.27C207.149 225.871 207.172 224.557 206.984 224.351C206.795 224.145 206.915 223.906 207.248 223.821C207.582 223.735 207.68 223.543 207.466 223.394C207.251 223.244 207.255 221.557 207.474 219.644C207.694 217.73 207.812 215.927 207.738 215.635C207.663 215.344 207.904 212.907 208.274 210.22C208.643 207.532 208.992 204.771 209.049 204.083C209.343 200.557 210.053 195.222 210.271 194.897C210.408 194.694 210.755 193.176 211.043 191.525C211.33 189.873 211.77 188.602 212.019 188.7C212.269 188.797 212.446 188.125 212.412 187.205C212.346 185.428 212.515 184.832 213.935 181.849C214.429 180.811 215.629 177.969 216.602 175.532C219.937 167.185 226.869 153.911 228.022 153.666C228.302 153.606 229.183 153.784 229.979 154.062C232.799 155.046 233.402 154.439 232.317 151.711C231.001 148.402 232.869 146.334 237.184 146.324C244.136 146.306 252.13 140.99 252.465 136.16C252.58 134.494 251.689 134.726 248.63 137.157C245.93 139.304 245.497 139.482 243.526 139.253C241.247 138.988 240.1 138.248 240.987 137.615C241.28 137.406 241.723 136.827 241.971 136.328C245.452 129.323 250.996 129.974 253.702 137.706C256.06 144.441 260.002 147.924 264.085 146.881C265.675 146.475 265.684 146.189 264.164 144.413C263.545 143.689 262.677 141.571 262.115 139.412C261.481 136.979 260.755 135.288 260.043 134.586C259.439 133.992 259.173 133.448 259.452 133.377C260.412 133.132 261.856 135.532 263.257 139.702C264.757 144.164 266.73 146.206 268.987 145.629C270.138 145.335 270.108 145.179 268.318 142.203C267.549 140.926 266.971 139.78 267.032 139.657C267.314 139.089 271.889 142.653 272.14 143.637C272.707 145.856 278.413 149.103 279.808 148C280.634 147.346 280.558 146.842 279.524 146.12C278.925 145.702 279.026 145.513 279.98 145.269C281.945 144.768 283.013 142.86 282.501 140.766C282.151 139.335 282.337 138.58 283.34 137.365C284.049 136.506 284.568 135.272 284.492 134.623C284.417 133.974 284.456 132.797 284.579 132.008C284.741 130.967 284.563 130.258 283.931 129.42C283.453 128.784 282.749 127.592 282.367 126.77C281.657 125.241 278.657 123.85 278.13 124.806C277.976 125.084 277.85 124.623 277.85 123.782C277.851 119.999 277.579 119.058 276.265 118.284C274.847 117.45 273.939 115.108 274.95 114.895C276.793 114.508 277.28 113.919 277.662 111.606C278.044 109.305 278.23 109.064 279.652 109.032C281.734 108.987 281.392 106.604 279.293 106.534C278.573 106.51 277.71 106.01 277.376 105.423C276.928 104.635 276.471 104.505 275.636 104.928C275.013 105.243 274.327 105.308 274.111 105.071C273.389 104.279 271.791 105.099 272.005 106.15C272.12 106.71 271.646 106.167 270.953 104.943C269.237 101.913 267.504 100.846 264.563 101.009C262.315 101.134 262.059 101.008 261.873 99.6904C261.2 94.923 262.788 87.2375 264.539 86.7904C266.726 86.2317 267.367 82.648 265.292 82.5787C264.563 82.5544 263.745 82.0096 263.4 81.3181C262.904 80.3234 262.536 80.2145 261.392 80.7236C260.188 81.2596 259.987 81.1793 259.958 80.1489C259.931 79.2104 259.604 78.9613 258.448 78.998C255.848 79.0805 254.879 81.444 256.206 84.4609C256.527 85.19 256.335 86.3006 255.669 87.572C255.048 88.7593 254.554 89.2374 254.435 88.7687C254.325 88.3395 253.731 87.5981 253.115 87.1212C252.199 86.4133 252.051 86.0225 252.307 84.9926C253.006 82.1796 251.516 80.6368 247.199 79.7049C242.604 78.713 241.947 85.3947 246.014 91.7488C246.896 93.1264 245.744 92.9699 243.572 91.4172C241.148 89.6842 241.139 89.6564 242.147 87.1131C243.723 83.1345 241.398 80.0159 239.492 83.5533C238.11 86.1201 236.755 86.8925 236.053 85.5152C234.631 82.7276 231.782 85.2195 231.188 89.7703C230.45 95.4221 231.992 98.2141 236.561 99.5006C239.267 100.263 242.749 102.588 245.951 105.771L247.808 107.616L247.078 109.204C246.03 111.488 246.426 112.224 248.43 111.712C250.518 111.179 250.7 111.64 249.563 114.589C248.096 118.395 247.721 118.763 246.412 117.676C245.174 116.648 244.675 118.996 245.857 120.292C246.404 120.892 245.159 123.369 241.214 129.535C238.231 134.196 237.643 134.727 237.589 132.81C237.569 132.124 236.919 130.787 236.144 129.837C234.925 128.343 234.704 127.684 234.502 124.933C234.23 121.217 234.117 121.059 232.678 122.364C231.757 123.2 231.506 123.209 231.032 122.425C228.189 117.732 226.657 117.155 224.557 119.986C222.871 122.26 223.74 117.683 225.457 115.25C226.862 113.258 224.184 112.117 221.27 113.467C219.755 114.168 219.646 114.147 220.356 113.287C220.815 112.731 222.471 112.021 224.206 111.638C228.229 110.75 229.23 109.521 227.446 107.66C225.521 105.65 221.837 107.731 222.528 110.437C222.618 110.787 222.299 111.007 221.82 110.925C220.708 110.735 218.616 111.95 219.114 112.496C219.322 112.723 219.104 113.038 218.63 113.195C218.156 113.352 216.301 114.004 214.506 114.644C212.323 115.422 211.191 115.6 211.085 115.183C210.997 114.84 211.103 114.558 211.32 114.556C211.537 114.554 212.011 114.318 212.373 114.032C212.735 113.746 213.622 113.189 214.345 112.793C215.188 112.333 215.498 111.822 215.208 111.369C214.504 110.269 220.534 106.981 225.925 105.526C231.152 104.116 231.989 103.171 229.593 101.386C227.833 100.075 225.048 100.647 224.728 102.386C224.606 103.046 224.718 103.747 224.975 103.943C225.233 104.139 224.845 104.279 224.113 104.252C223.381 104.226 222.415 104.294 221.966 104.404C220.14 104.852 220.789 100.029 222.907 97.4138C225.48 94.2355 224.882 90.9049 222.129 93.0818C221.739 93.3905 221.14 93.1908 220.651 92.5888C219.82 91.5653 215.259 92.4572 214.067 93.8763C213.062 95.0737 212.986 93.7943 213.963 92.1086C214.583 91.0381 215.629 90.1333 216.522 89.8938C218.842 89.2714 219.805 87.6471 218.425 86.6836C215.467 84.6186 211.642 86.0027 212.968 88.6581C213.383 89.491 213.396 90.1721 213.004 90.5979C212.671 90.9587 212.01 92.4225 211.535 93.8508C210.953 95.602 210.236 96.6184 209.333 96.9719C207.88 97.5408 208.045 96.6303 209.552 95.7629C210.237 95.3688 210.114 95.3069 209.071 95.5204C207.053 95.9334 205.627 98.9261 206.775 100.339C207.238 100.909 207.607 101.918 207.596 102.581C207.584 103.265 207.804 103.729 208.104 103.652C208.395 103.578 208.469 102.879 208.27 102.099C208.022 101.126 208.148 100.722 208.673 100.811C209.281 100.915 209.434 101.373 209.419 103.049C209.403 104.972 208.771 106.124 208.441 104.831C208.365 104.537 207.785 104.242 207.151 104.177C205.002 103.955 203.209 89.1385 205.309 88.9559C206.287 88.8709 206.402 88.5891 206.037 87.1619C205.555 85.2741 203.922 83.9061 203.807 85.2934C203.769 85.7543 203.596 85.6124 203.404 84.9628C203.22 84.3368 202.547 83.169 201.909 82.3679C201.271 81.5667 200.626 80.4296 200.476 79.841C200.326 79.2525 199.604 78.5174 198.872 78.2075C197.105 77.459 195.137 74.8536 194.002 71.7585L193.079 69.2404L195.755 68.4748C201.334 66.879 202.257 66.2856 203.27 63.6408C203.932 61.9101 203.136 61.1922 200.658 61.2879C198.812 61.3592 197.104 63.3553 197.068 65.4835C197.047 66.7144 192.332 68.5998 192.048 67.4905C191.984 67.2411 192.535 66.8938 193.272 66.7188C194.378 66.4564 194.589 66.0731 194.478 64.5289C194.403 63.4994 194.686 61.6372 195.105 60.3906C197.007 54.7397 196.447 47.4797 193.918 44.9888C192.691 43.7811 189.615 44.1685 189.273 45.5738C189.139 46.1203 188.863 45.9441 188.421 45.0312C188.061 44.2877 187.174 43.5125 186.45 43.3086L185.133 42.9378L186.186 42.186C187.732 41.0823 189.22 41.051 192.83 42.0464C198.354 43.5694 204.522 42.5932 208.313 39.5957C209.271 38.8383 208.749 36.9447 207.568 36.8922C207.054 36.8694 208.475 36.3485 210.726 35.7347C215.206 34.5127 217.472 32.8305 217.021 31.0624C216.782 30.1277 216.521 30.1222 214.768 31.015C211.679 32.5875 211.547 32.5794 211.482 30.8138C211.426 29.299 211.36 29.2663 209.939 30.0422C208.459 30.8497 208.456 30.8475 209.042 29.3906C209.365 28.5865 209.417 27.101 209.159 26.0894L208.689 24.2501L212.575 22.9452C216.567 21.6044 219 19.7329 219.127 17.9055C219.186 17.0446 218.828 17.0648 216.334 18.0626L213.473 19.2073L213.539 17.123C213.575 15.9766 213.803 14.5533 214.046 13.9599C215.347 10.7757 212.846 7.58275 209.683 8.39054C208.848 8.60373 208.104 8.53947 208.03 8.24773C207.36 5.62654 202.977 4.42604 201.573 6.47923C200.67 7.79938 198.682 7.10986 197.922 5.21343C197.075 3.09725 194.893 0.542957 194.036 0.663917C192.377 0.897946 190.9 1.64678 190.063 2.67687C188.656 4.41073 186.913 4.80352 185.046 3.80789C182.228 2.30579 180.144 3.92631 179.674 7.98473L179.478 9.67927L179.034 8.10962C178.486 6.17066 177.459 6.32323 176.169 8.53529C175.651 9.42514 174.781 10.4153 174.236 10.7357C173.593 11.1145 173.257 12.0565 173.277 13.4287C173.294 14.5895 173.146 15.751 172.948 16.01C172.751 16.2689 172.732 17.1811 172.906 18.037C173.169 19.3274 173.026 19.5868 172.069 19.5553C170.623 19.5077 169.47 20.3835 169.715 21.3431C169.818 21.7446 169.642 22.4923 169.325 23.0047C168.933 23.6385 168.978 24.4264 169.465 25.4686C169.858 26.3114 170.079 27.5055 169.954 28.1224C169.77 29.0361 169.524 28.7914 168.628 26.8014C167.786 24.9309 167.339 24.4506 166.717 24.7505C165.816 25.1853 165.547 23.4972 165.938 19.8694C166.05 18.831 166.072 17.1017 165.988 16.0266C165.903 14.9514 166.194 13.697 166.634 13.2391C167.691 12.1374 167.05 9.78865 165.345 8.52043L163.992 7.51445L163.236 9.54368C162.332 11.9681 162.645 13.676 164.005 13.7367C164.991 13.7807 165.277 15.9676 164.623 18.4701C164.513 18.8902 164.677 20.7983 164.986 22.7103L165.547 26.1867L164.023 25.1224C163.12 24.4921 162.325 23.3797 162.074 22.3945C161.84 21.4796 161.345 20.6125 160.974 20.4677C159.904 20.0501 159.422 22.4867 160.203 24.3643C161.233 26.8412 160.433 28.9093 158.833 27.9062C158.195 27.5065 157.568 27.3904 157.44 27.6483C156.893 28.7505 156.958 26.7819 157.522 25.2179C158.593 22.2413 156.078 20.4721 151.779 21.1785C151.204 21.273 150.489 20.9206 150.19 20.3953C149.816 19.7377 149.148 19.5676 148.047 19.849C147.166 20.0738 146.151 20.0515 145.79 19.7994C145.005 19.2512 142.013 21.5767 141.176 23.3862C140.407 25.0478 141.482 28.4389 143.222 29.8384C144.006 30.4685 145.007 31.7556 145.448 32.6986C147.003 36.0282 152.409 38.9304 155.558 38.1263C156.064 37.997 156.693 38.1272 156.956 38.4156C157.572 39.0912 153.843 39.5705 152.143 39.0341C151.471 38.8218 150.633 38.8017 150.283 38.9893C149.932 39.1769 148.607 38.5628 147.339 37.6245C146.07 36.6862 144.509 36.0205 143.869 36.1452C140.965 36.7108 140.258 36.3308 137.675 32.8141C133.523 27.163 125.247 26.8612 126.664 32.4127C126.713 32.604 126.393 33.671 125.952 34.7836C125.511 35.8963 125.253 37.2413 125.378 37.7725C125.849 39.7674 125.051 42.1096 124.311 40.9049C121.228 35.8844 120.046 35.4064 121.121 39.6139C121.493 41.0682 121.473 41.9358 121.067 42.0395C120.719 42.1284 119.999 42.7914 119.466 43.513C117.759 45.8247 116.176 45.8605 112.829 43.6629C111.151 42.5616 110.276 41.7486 110.883 41.8561C116.056 42.7716 120.203 36.8815 117.08 33.0554C115.847 31.5448 115.657 31.0114 115.837 29.5675C115.954 28.63 115.895 27.7546 115.705 27.6222C115.515 27.4897 115.413 27.6204 115.477 27.9126C115.541 28.2047 114.793 27.1396 113.815 25.5456C111.075 21.0821 106.052 19.8423 107.084 23.8845C107.186 24.2814 107.017 25.0134 106.709 25.5111C106.401 26.0087 106.339 27.1599 106.571 28.0691C106.934 29.491 106.802 29.7711 105.627 30.0712C104.797 30.2832 104.134 30.933 103.936 31.727C103.014 35.4363 101.797 33.5216 102.43 29.3579C102.696 27.607 102.805 25.7389 102.671 25.2066C102.538 24.6742 102.802 23.9819 103.258 23.668C105.733 21.9638 103.728 16.0445 101.135 17.4009C98.7848 18.6302 97.8955 22.6855 99.9557 22.7774C101.706 22.8556 102.09 28.4536 100.385 29.0387C98.896 29.5495 98.6498 29.697 98.3804 30.2391C98.2368 30.5283 97.2653 30.9829 96.2216 31.2495C93.8696 31.8502 93.4166 30.7567 95.0754 28.4823C96.4762 26.5615 96.0703 23.6529 94.377 23.4781C93.8108 23.4196 93.0471 22.77 92.6799 22.0343C92.3126 21.2987 91.6822 20.7811 91.279 20.8841C90.7576 21.0173 90.3816 20.4281 89.9769 18.8436C89.6501 17.5643 89.014 16.3922 88.4827 16.0904C87.9738 15.8013 87.4741 15.2384 87.3722 14.8395C87.2079 14.1964 84.6864 12.776 84.0139 12.9478C83.8716 12.9842 83.4752 14.1181 83.133 15.4678C82.6072 17.5413 82.2224 18.0144 80.6503 18.5202C78.125 19.3326 77.4375 21.0165 77.8389 25.4066C78.0594 27.8189 77.9538 29.0003 77.5344 28.811C74.6154 27.4928 73.6276 30.9071 76.2234 33.3425C77.6477 34.6786 77.6523 34.6953 76.7702 35.3027C76.0451 35.8019 76.0112 36.4273 76.5871 38.6821C77.1542 40.9025 77.125 41.5512 76.4391 41.9668C75.9691 42.2516 75.4528 43.642 75.292 45.0566C75.0722 46.9895 74.7886 47.5574 74.151 47.3419C73.2139 47.0252 71.6275 47.7825 70.8909 48.8983C70.1442 50.0294 69.686 47.3341 70.0807 44.1322C70.4319 41.2835 70.0257 38.8853 68.6843 35.8874C67.6246 33.5191 66.865 34.2986 67.1908 37.4198C67.5713 41.0645 67.4173 41.007 65.222 36.6845C63.1624 32.6293 61.1222 29.9804 59.8976 29.7716C58.7104 29.5691 56.7333 31.4618 56.7704 32.7652C56.8102 34.1649 56.7419 34.2071 55.217 33.7258C52.6196 32.906 51.1467 34.6473 52.132 37.3729C52.8585 39.3827 52.8749 39.8762 52.2212 40.059C49.2752 40.8831 50.0348 44.8703 53.6322 47.4653C54.986 48.4419 55.4333 49.011 54.945 49.1357C54.5376 49.2398 53.8958 49.1095 53.5188 48.8463C52.2713 47.9753 49.1015 49.5527 48.9248 51.1323C48.8376 51.9119 48.485 52.6216 48.1411 52.7095C47.7209 52.8168 47.7565 53.811 48.2496 55.7417L48.9833 58.6143L46.278 59.3052C44.0793 59.8668 43.5284 60.2367 43.3363 61.2805C43.1933 62.0572 43.2885 62.5167 43.577 62.443C43.8394 62.376 44.4344 62.5683 44.8992 62.8703C47.59 64.6187 50.1685 64.7375 55.5569 63.3612C60.2846 62.1537 60.9481 62.1079 61.17 62.9739C61.3084 63.514 62.5571 64.6852 63.9448 65.5764C65.5042 66.5779 66.5992 67.7103 66.8113 68.5409C67.1569 69.8942 69.297 71.7857 70.2167 71.5508C70.489 71.4812 70.9075 72.1906 71.1467 73.1272C71.9804 76.3913 76.9041 77.6574 78.3539 74.9804C79.8098 72.292 82.8094 73.4112 82.5993 76.5645C82.4863 78.2604 81.8721 78.8233 81.0809 77.9558C79.2154 75.9102 79.0262 79.3186 80.8742 81.6806C81.6906 82.7241 81.8226 83.274 81.601 84.7079C81.333 86.4411 80.5543 87.2496 80.2606 86.0997C79.9289 84.8009 77.7703 83.0634 77.3441 83.7521C77.0464 84.2332 76.4501 83.7445 75.3616 82.1272C73.8482 79.8787 72.2136 79.327 71.8219 80.9326C71.7343 81.2916 71.2691 81.6858 70.7881 81.8087C68.2923 82.4461 68.1111 85.4007 70.0662 93.5823L70.4021 94.988L68.4953 93.7161C66.2534 92.2207 65.7325 90.6711 65.4284 84.5925C65.1493 79.0128 62.4117 70.4843 61.0144 70.8412C60.7713 70.9033 60.6668 71.3238 60.7822 71.7758C60.8976 72.2277 60.7517 74.4438 60.458 76.7005C60.0135 80.1154 60.1099 81.5316 61.0328 85.145C61.8636 88.3978 61.9669 89.4497 61.445 89.3398C60.4168 89.1233 52.1534 81.4291 48.4696 77.2582C46.711 75.267 45.0844 73.6858 44.8549 73.7445C44.6254 73.8031 44.3537 73.5282 44.2511 73.1337C44.1487 72.7391 43.5123 71.7312 42.8371 70.8939C40.9255 68.523 39.4659 63.6592 39.6815 60.378C40.1254 53.6229 38.6473 51.567 37.1724 56.8879C36.4093 59.6409 36.3847 59.6649 35.6801 58.3401C33.8089 54.8216 33.8942 53.8554 36.506 48.9902C39.1902 43.9899 39.6585 40.4178 37.1439 44.1238C35.4219 46.6616 35.2738 46.635 35.553 43.8378C36.3362 35.9898 31.699 28.7574 26.702 30.0336C25.7071 30.2878 24.6178 30.0921 23.8889 29.5282C21.1888 27.4394 16.7389 31.4714 17.6795 35.1544C17.9622 36.2612 17.7375 36.7169 16.6251 37.2934C13.8073 38.7537 14.756 43.4766 18.9681 48.9568C20.3751 50.7875 21.2057 52.2657 20.9355 52.4582C20.6128 52.6882 20.8877 53.7001 21.8217 55.722C23.3631 59.0583 23.3434 60.0398 21.7791 57.8386C20.7662 56.4132 19.6043 55.2646 17.908 54.0114C16.7936 53.1882 11.6826 53.8318 10.6305 54.9278C9.68282 55.9151 9.7717 56.7784 11.0236 58.746C11.7785 59.9326 11.7349 60.1153 10.5859 60.5806C8.84588 61.2852 8.2197 64.2179 9.50985 65.6203C10.011 66.165 10.6476 67.4976 10.9244 68.5815C11.3421 70.2169 11.6803 70.5824 12.9118 70.7297C13.9663 70.8559 14.4998 71.3014 14.755 72.2687C15.0098 73.2343 15.5017 73.6466 16.4469 73.6866C17.7118 73.74 17.6874 73.8203 15.9676 75.2637C14.1904 76.7552 13.3878 78.7214 14.692 78.3883C17.9629 77.5529 20.3954 75.5452 22.1629 72.2222C24.963 66.958 25.9817 66.7335 32.8721 69.8621C38.4563 72.3977 38.6374 72.8962 34.6476 74.7491C33.9994 75.0501 32.3631 76.4765 31.0113 77.9189C28.1476 80.9745 26.8632 81.4918 23.806 80.8207C19.7104 79.9216 19.2721 81.4557 22.8592 84.1343C29.7113 89.2508 35.2419 87.8844 36.4161 80.7847C37.2136 75.9629 40.2041 76.2407 45.2326 81.6038C46.633 83.0974 47.9493 84.4136 48.1577 84.5287C48.9455 84.9638 51.7338 87.8993 51.4324 87.9762C51.259 88.0205 49.7204 87.3012 48.0134 86.3778C44.6478 84.5571 43.1699 84.6896 43.9071 86.746C44.1973 87.5556 44.1277 87.9252 43.7152 87.7642C42.7254 87.3779 44.1775 89.7698 46.1491 91.7736C47.9972 93.6518 51.9577 96.3981 52.6207 96.261C53.2916 96.1222 55.4114 97.5051 57.1863 99.2393C59.8374 101.83 62.9411 102.785 66.0933 101.979L68.8074 101.286L71.7061 104.219C75.6848 108.245 84.6142 121.728 85.4379 124.953C85.8788 126.679 82.2007 125.401 77.7786 122.291C74.589 120.049 72.1339 118.73 71.1482 118.731C70.2872 118.731 68.4592 118.352 67.0858 117.889C64.6964 117.083 59.952 116.42 58.7213 116.721C57.2547 117.079 58.6036 119.217 62.4057 122.562C64.6573 124.543 67.1139 126.759 67.8647 127.488C70.0914 129.647 76.5235 131.081 80.0788 130.211C81.8465 129.778 85.0468 130.734 86.3217 132.075C86.6098 132.378 87.5859 132.775 88.491 132.956C90.2683 133.313 91.1394 134.632 95.0731 142.925C96.1411 145.177 97.9103 148.79 99.0046 150.955C101.744 156.373 101.747 156.423 99.6414 160.878C97.3581 165.709 95.7778 175.76 96.7208 179.452C96.9625 180.398 96.8448 186.635 96.5286 189.637L96.301 191.798L95.2473 187.884C92.4184 177.376 86.4233 167.896 81.0297 165.4C76.4472 163.28 76.2024 163.514 76.9775 169.272C77.1966 170.899 77.2291 172.612 77.0498 173.079C76.8371 173.632 76.955 174.134 77.3893 174.522C77.7552 174.849 78.8118 176.975 79.7372 179.246C80.6627 181.516 81.6769 183.598 81.9911 183.872C82.3053 184.146 82.9568 185.224 83.4388 186.268C83.9208 187.312 84.6052 188.514 84.9597 188.939C85.3143 189.365 86.6099 191.246 87.839 193.12C89.0681 194.994 90.6174 197.28 91.2818 198.201C92.7065 200.176 95.0314 208.211 95.7312 213.578L96.2117 217.264L93.7097 215.954C76.9916 207.202 66.3938 195.815 67.4278 187.716C67.5677 186.619 67.7304 183.92 67.7893 181.717C67.8481 179.514 68.023 177.383 68.1779 176.98C68.3328 176.578 68.4625 174.342 68.466 172.011C68.4696 169.68 68.6745 166.69 68.9214 165.366C69.7176 161.098 67.211 148.378 64.5398 143.13C59.752 133.724 57.9459 133.175 54.4287 140.054C48.8927 150.882 48.5736 156.28 52.8431 166.869C53.7045 169.005 55.5983 174.029 57.0518 178.033C60.079 186.374 62.7167 193.168 63.5371 194.737C63.9155 195.46 63.0528 195.107 60.9213 193.664C57.8379 191.577 57.6985 191.389 56.3521 187.487C54.224 181.32 51.4774 175.551 49.4 172.884C48.3664 171.557 47.0981 169.386 46.5814 168.059C41.0735 153.92 28.8855 143.127 19.5721 144.143C14.9652 144.646 14.6545 149.95 18.7527 158.134C19.1263 158.88 19.7057 160.109 20.0404 160.865C21.2484 163.594 23.536 167.025 28.6893 173.837C31.1238 177.055 36.1307 181.102 37.7525 181.163C38.463 181.19 39.6544 182.203 40.8869 183.829C41.9805 185.272 44.3191 187.753 46.0837 189.343C47.8484 190.933 49.2347 192.349 49.1645 192.49C48.9578 192.906 39.3597 190.238 39.2296 189.729C38.9918 188.797 34.8083 185.976 33.4962 185.862C32.7546 185.798 31.1616 185.349 29.956 184.865C28.7504 184.38 27.6262 184.019 27.4577 184.062C27.2893 184.105 26.3563 183.955 25.3844 183.728C10.6695 180.293 -5.92659 189.938 3.14041 196.654C3.60245 196.996 5.06157 198.257 6.38293 199.456C7.70429 200.655 8.97627 201.598 9.20957 201.551C9.44287 201.504 10.4088 201.832 11.3561 202.278C13.791 203.426 19.4003 203.233 25.0334 201.806L29.8524 200.586L28.9628 203.506C28.089 206.373 28.3724 207.696 29.7834 207.336C30.1758 207.235 30.555 207.381 30.6261 207.66C30.9815 209.051 39.9089 207.87 40.674 206.33C40.9519 205.771 41.8966 206.525 44.1267 209.087C47.9479 213.476 53.1828 217.307 56.5104 218.148C59.6568 218.944 58.1832 219.533 53.637 219.297C45.3899 218.868 34.6751 225.578 35.9066 230.399C36.3291 232.054 43.1405 236.803 45.4432 237.048C46.5273 237.164 47.8282 237.486 48.3341 237.764C50.3479 238.869 57.7365 238.891 60.2085 237.8C60.7298 237.57 62.339 236.902 63.7845 236.317C65.2301 235.731 67.3358 234.317 68.4638 233.176C70.7035 230.908 71.5381 230.333 74.2273 229.2C75.2092 228.786 75.9627 228.252 75.9017 228.013C75.8406 227.774 76.3575 227.56 77.0502 227.538L78.3098 227.498L77.8267 229.655C77.1277 232.778 79.0385 238.969 81.2853 240.862C81.6604 241.178 82.543 241.961 83.2466 242.602L84.526 243.768L86.5357 242.185C90.7067 238.899 91.5943 234.24 89.285 227.754C88.1064 224.445 88.0847 224.177 89.0005 224.254C89.5459 224.3 91.1859 224.367 92.645 224.402C94.1041 224.437 96.2201 224.824 97.3473 225.263C98.4745 225.702 100.889 226.485 102.712 227.004C104.536 227.523 107.478 228.821 109.25 229.89C111.022 230.958 113.423 232.304 114.586 232.881C119.478 235.309 137.506 248.685 137.07 249.563C136.891 249.924 127.217 247.763 126.055 247.102C111.785 238.991 95.3376 238.972 86.7193 247.057C81.2917 252.148 96.5779 257.081 110.977 254.884C125.512 252.667 128.039 253.478 121.03 258.111C117.647 260.347 112.08 265.406 111.975 266.339C111.908 266.941 108.389 271.714 107.926 271.832C106.847 272.107 102.054 280.854 102.349 282.008C102.466 282.468 102.331 283.217 102.049 283.673C101.389 284.739 104.071 297.027 105.244 298.314C107.524 300.813 117.201 295.992 119.184 291.37C120.456 288.403 120.986 286.847 120.874 286.408C120.813 286.169 121.09 284.835 121.49 283.443C121.889 282.052 122.174 280.58 122.123 280.171C122.072 279.763 122.24 278.656 122.495 277.71C122.751 276.765 122.904 275.774 122.837 275.509C122.612 274.631 124.274 268.881 124.79 268.749C125.068 268.678 125.457 269.251 125.654 270.022C125.851 270.793 126.265 271.523 126.573 271.643C126.882 271.764 128.062 273.867 129.195 276.318C132.254 282.933 138.983 288.186 141.116 285.625C144.487 281.579 142.328 274.205 135.716 267.182C127.806 258.78 127.516 254.714 134.86 255.186C142.544 255.679 146.598 259.478 148.954 268.391C149.954 272.175 152.725 281.657 155.11 289.462C157.496 297.268 160.612 308.039 162.034 313.398C163.456 318.756 165.08 324.676 165.644 326.551C166.208 328.427 167.621 333.436 168.784 337.683C169.947 341.93 171.559 347.301 172.368 349.619C173.894 353.997 174.056 355.082 172.929 353.39C167.784 345.663 147.426 333.883 138.419 333.421C131.93 333.088 131.717 333.597 135.649 340.026C140.762 348.386 144.839 351.067 155.815 353.287C158.149 353.759 160.657 354.463 161.387 354.851C162.117 355.239 163.91 355.754 165.371 355.995C166.831 356.237 168.936 356.896 170.047 357.461L172.067 358.488L171.182 359.843C170.466 360.942 169.74 361.277 167.356 361.608C159.007 362.767 156.053 369.196 163.696 369.577C166.399 369.712 166.153 370.511 162.966 371.949C157.833 374.265 156.12 377.281 155.47 385.147C154.852 392.628 166.955 391.906 171.222 384.206C171.556 383.603 172.279 382.376 172.83 381.478C173.381 380.58 173.644 379.885 173.414 379.933C173.184 379.982 173.322 379.654 173.721 379.205C174.12 378.756 174.256 378.179 174.022 377.923C173.788 377.667 173.846 377.393 174.151 377.316C174.455 377.238 174.531 376.985 174.32 376.753C174.109 376.521 174.216 375.716 174.558 374.962C174.9 374.209 175.194 372.922 175.212 372.102C175.243 370.635 179.484 379.143 180.239 382.187C180.396 382.82 181.148 384.968 181.911 386.961C182.674 388.954 184.061 393.007 184.993 395.966C185.926 398.925 187.352 403.105 188.162 405.255C188.972 407.404 190.251 411.547 191.004 414.461L192.374 419.76L190.584 421.526C189.599 422.497 187.872 425.142 186.746 427.404C184.977 430.958 182.87 433.01 184.015 430.065C184.235 429.5 184.381 428.73 184.34 428.353C184.3 427.977 184.546 425.532 184.887 422.921C186.203 412.842 184.533 406.765 178.802 400.784C175.604 397.447 171.404 404.703 171.023 414.222L170.764 420.714L174.458 434.764C176.49 442.492 178.194 449.768 178.246 450.932L178.34 453.05L171.789 448.39L165.239 443.73L163.596 436.713C162.693 432.854 161.452 428.447 160.838 426.921C160.225 425.395 159.313 423.055 158.812 421.722C156.526 415.645 155.554 413.865 152.761 410.652C146.132 403.023 138.105 398.382 135.963 400.939C133.186 404.255 136.344 417.504 140.822 421.323C141.277 421.712 142.508 423.164 143.556 424.55C144.605 425.936 146.922 428.138 148.706 429.444C154.044 433.352 160.208 440.813 155.475 437.637C152.245 435.47 149.027 433.463 145.87 431.647C144.462 430.837 142.419 429.635 141.331 428.977C139.136 427.649 134.292 426.185 132.308 426.25C131.603 426.273 129.468 426.231 127.564 426.157C122.605 425.965 119.938 426.813 117.623 429.318C116.558 430.472 115.378 431.494 115.002 431.59C113.118 432.071 107.579 442.884 108.123 445.016C109.894 451.95 122.801 450.259 131.851 441.909C136.335 437.77 138.634 437.372 144.476 439.723L146.827 440.669L144.316 441.161C137.66 442.467 130.464 446.161 129.875 448.575C129.785 448.945 128.742 449.311 127.435 449.432C122.452 449.893 121.711 452.047 125.019 456.454C127.555 459.832 128.07 461.377 126.288 460.26C122.07 457.616 116.912 469.579 118.438 478.463L119.129 482.483L116.312 479.508C113.115 476.133 104.529 470.044 102.722 469.871C102.062 469.807 100.791 469.416 99.8973 469C99.0035 468.585 97.0625 468.146 95.5839 468.024C94.1053 467.903 92.6971 467.586 92.4546 467.32C91.8132 466.617 89.9675 467.261 89.1351 468.479C86.4851 472.354 99.6258 491.208 104.168 490.048C104.427 489.982 105.519 490.471 106.595 491.135C107.671 491.799 111.804 493.282 115.781 494.429C119.757 495.577 123.327 496.727 123.714 496.985C124.1 497.243 125.342 497.825 126.473 498.279C129.033 499.307 127.968 499.702 123.657 499.323C119.121 498.924 103.441 502.911 102.426 504.722C102.04 505.409 101.41 506.059 101.025 506.166C98.5146 506.861 95.1184 515.913 96.0293 519.48C97.5855 525.573 116.707 522.599 120.478 515.677C120.944 514.823 121.525 514.006 121.769 513.862C122.013 513.718 122.504 513.114 122.859 512.519C123.215 511.924 123.562 511.626 123.63 511.858C123.698 512.09 123.931 511.821 124.147 511.261C124.658 509.937 126.344 508.097 126.497 508.697C126.562 508.953 126.456 509.483 126.261 509.876C123.949 514.529 128.09 530.31 132.111 532.166C133.301 532.715 133.292 532.823 131.732 536.606C128.667 544.039 126.28 551.332 125.333 556.152C124.432 560.739 124.333 560.936 123.534 559.728C118.226 551.71 114.748 547.881 109.725 544.524C104.837 541.259 102.161 540.976 95.3054 543.003C92.8354 543.733 92.7411 543.835 93.1287 545.346C93.3517 546.214 93.904 548.921 94.3563 551.361C96.3391 562.055 104.749 567.067 120.552 566.973C122.123 566.963 118.295 571.261 112.541 575.965C111.712 576.642 110.449 577.693 109.734 578.299C107.317 580.349 106.961 580.439 105.025 579.484C98.1762 576.108 86.8157 578.085 84.1417 583.12C79.9306 591.048 84.2734 597.64 92.2085 595.366C94.6246 594.673 94.8134 594.698 93.9912 595.603C92.8547 596.853 87.2291 603.73 82.8131 609.267C79.0707 613.959 78.2969 617.492 79.4227 624.744C79.6905 626.469 82.3136 631.934 83.2542 632.726C85.0731 634.258 96.4194 626.305 95.8114 623.925C95.709 623.524 95.7952 623.152 96.003 623.099C96.2109 623.046 96.3244 621.709 96.2554 620.128C96.1863 618.547 96.2376 616.194 96.3693 614.9C96.5009 613.606 96.5632 612.409 96.5076 612.24C96.4521 612.072 96.9586 611.046 97.6333 609.961C98.3079 608.876 98.8846 607.775 98.9149 607.515C98.9451 607.255 99.2752 606.964 99.6485 606.868C100.022 606.773 100.81 605.293 101.401 603.579C101.992 601.865 102.537 600.693 102.614 600.974C102.69 601.256 102.847 601.173 102.962 600.791C103.215 599.954 105.696 596.558 105.789 596.922C105.825 597.063 105.76 598.164 105.645 599.37C105.529 600.576 105.649 602.576 105.911 603.814C106.173 605.052 106.485 607.693 106.605 609.682C106.844 613.634 108.099 618.998 109.174 620.653C109.981 621.897 107.29 623.748 102.256 625.412C98.5504 626.637 95.6276 629.82 94.9688 633.347C94.2954 636.954 103.13 638.386 112.111 636.126C118.877 634.423 118.768 635.08 111.072 642.383C105.496 647.676 104.932 648.448 103.189 653.18C100.967 659.212 101.655 673.129 104.316 675.989C105.628 677.398 112.67 672.958 114.464 669.591C114.708 669.132 115.629 668.023 116.51 667.125C119.329 664.253 121.343 659.468 122.295 653.38C122.786 650.242 123.342 647.542 123.532 647.382C123.721 647.221 123.784 646.732 123.673 646.294C123.426 645.328 124.224 640.499 124.73 639.897C124.929 639.659 125.232 640.013 125.403 640.682C125.574 641.351 125.896 641.682 126.118 641.417C126.364 641.125 126.72 641.802 127.023 643.139C127.504 645.258 127.494 645.28 126.761 643.701C126.145 642.373 126.098 643.321 126.512 648.66C126.795 652.291 127.174 658.253 127.354 661.909C128.16 678.19 130.817 692.128 133.82 695.829C134.526 696.699 135.006 697.61 134.886 697.851C134.766 698.093 134.965 698.215 135.328 698.122C135.691 698.029 135.901 698.129 135.794 698.344C135.687 698.559 136.567 699.367 137.749 700.14C141.154 702.364 141.433 702.486 142.079 702.026C142.447 701.764 142.617 701.882 142.509 702.328C142.257 703.36 146.972 702.063 147.425 700.976L147.424 700.976ZM132.601 622.424C129.821 618.344 126.921 602.93 127.308 594.296C127.315 594.126 127.327 593.572 127.333 593.066C127.339 592.559 127.367 591.451 127.397 590.602C127.426 589.753 127.196 587.474 126.885 585.537C126.575 583.601 126.446 581.844 126.599 581.632C126.753 581.421 126.904 580.018 126.935 578.516L126.992 575.783L128.201 578.025C132.676 586.323 135.121 599.183 134.107 609.083C133.801 612.07 134.234 618.774 134.776 619.434C135.075 619.798 135.739 621.113 136.252 622.358C137.71 625.895 134.999 625.944 132.601 622.424V622.424ZM116.738 604.952C115.119 601.601 114.424 599.579 114.223 597.638C114.07 596.163 113.84 594.638 113.713 594.25C113.585 593.861 113.665 593.497 113.889 593.44C114.113 593.382 114.347 592.373 114.408 591.198C114.469 590.022 114.735 589.144 114.999 589.247C115.262 589.35 115.402 589.137 115.309 588.774C115.089 587.911 116.601 582.985 117.133 582.832C117.638 582.687 121.125 578.057 121.425 577.133C121.84 575.856 122.017 577.838 121.693 580.14C121.473 581.7 121.572 582.503 122.006 582.682C122.387 582.838 122.601 583.443 122.542 584.192C122.447 585.383 122.428 585.39 122.126 584.349C121.386 581.789 120.699 591.86 121.005 600.802C121.056 602.303 121.05 604.095 120.991 604.783C120.932 605.472 120.818 607.413 120.737 609.097C120.563 612.715 120.412 612.557 116.738 604.952V604.952ZM135.935 567.761C132.048 567.541 131.613 566.941 131.918 562.213C132.268 556.781 132.952 551.851 133.37 551.745C133.592 551.688 133.7 551.349 133.608 550.992C133.517 550.635 133.9 548.884 134.46 547.101C135.02 545.318 135.445 543.729 135.404 543.569C135.309 543.197 136.8 539.575 138.206 536.76C138.803 535.565 139.453 533.645 139.649 532.495C139.845 531.344 140.326 530.15 140.718 529.841C141.109 529.531 141.707 528.773 142.047 528.155C144.488 523.723 145.379 522.249 147.574 519.011C148.938 517 150.423 514.64 150.873 513.768C152.064 511.461 152.393 511.621 153.709 515.145C154.361 516.892 155.264 518.901 155.714 519.61C156.165 520.318 157.451 523.588 158.572 526.876C159.693 530.163 161.24 534.34 162.01 536.157C163.901 540.617 163.845 541.62 161.581 543.787C160.524 544.799 159.726 545.888 159.808 546.208C159.89 546.528 159.703 546.855 159.392 546.934C158.048 547.278 157.117 552.403 157.234 558.823L157.322 563.696L148.29 565.822C141.737 567.364 138.345 567.897 135.935 567.761V567.761ZM215.985 535.846C215.115 533.824 212.81 530.186 211.092 528.123C210.6 527.532 210.582 527.137 211.032 526.781C212.456 525.654 208.496 519.605 206.177 519.366C205.601 519.307 205.074 519.037 205.005 518.767C204.687 517.523 193.664 513.249 191.06 513.36C190.33 513.391 189.068 513.201 188.258 512.938C186.448 512.351 179.227 510.657 178.896 510.741C177.61 511.07 173.509 509.385 174.551 508.957C176.428 508.185 180.458 505.244 180.329 504.741C180.265 504.49 180.392 504.291 180.612 504.297C184.729 504.425 195.222 494.169 195.294 489.948C195.357 486.201 205.351 489.028 207.097 493.286C211.048 502.922 214.763 513.585 217.317 522.624C219.006 528.604 221.01 535.463 221.769 537.865L223.149 542.233L220.041 540.142C217.744 538.597 216.686 537.476 215.985 535.846ZM183.867 543.368C180.538 543.741 177.375 542.31 175.101 539.402C174.279 538.35 171.852 535.322 169.708 532.672C166.077 528.184 158.492 514.655 159.016 513.601C159.398 512.831 172.166 516.731 174.578 518.354C177.628 520.406 180.281 522.627 179.823 522.745C179.641 522.791 180.089 523.296 180.819 523.867C182.271 525.003 189.007 532.521 189.18 533.198C189.42 534.138 197.506 539.656 198.446 539.522C200.169 539.276 191.345 542.148 188.948 542.613C187.704 542.855 185.418 543.194 183.867 543.368ZM136.53 522.021C136.413 520.62 135.686 516.961 134.916 513.888C132.87 505.73 134.613 504.696 144.195 508.384L146.073 509.107L144.917 511.212C144.281 512.369 142.518 515.418 140.998 517.986C139.479 520.555 138.141 523.025 138.024 523.475C137.542 525.332 136.743 524.553 136.53 522.021V522.021ZM157.586 506.941C156.345 506.549 157.324 503.399 158.805 503.021C159.105 502.944 159.196 502.712 159.007 502.505C158.606 502.065 162.482 498.4 164.041 497.746C164.303 497.636 165.285 496.836 166.224 495.968C167.162 495.101 168.131 494.249 168.377 494.077C168.857 493.74 177.512 489.08 177.827 488.989C178.298 488.853 174.021 496.096 173.084 497.021C172.505 497.592 171.774 498.448 171.46 498.921C169.212 502.312 159.926 507.679 157.586 506.941V506.941ZM150.098 504.027C149.023 503.687 148.651 500.106 149.665 499.848C149.877 499.793 149.962 499.401 149.854 498.976C149.284 496.747 159.975 485.952 161.408 487.31C162.123 487.988 162.693 488.01 163.878 487.407C164.726 486.976 165.688 486.514 166.016 486.379C166.344 486.245 166.558 485.92 166.49 485.656C166.423 485.393 166.691 485.095 167.086 484.994C167.481 484.893 167.9 484.442 168.016 483.992C168.266 483.03 169.505 481.432 170.621 480.634C171.054 480.324 171.263 479.748 171.086 479.355C170.908 478.962 171.324 477.649 172.009 476.439C172.695 475.229 173.092 474.28 172.891 474.332C172.442 474.446 173.161 470.757 173.948 468.916C174.265 468.172 174.459 467.303 174.378 466.985C173.07 461.867 180.06 460.47 185.218 464.818C186.657 466.032 188.132 467.259 188.495 467.546C191.261 469.732 196.84 476.475 197.268 478.149C197.428 478.776 197.055 478.929 195.477 478.882C192.087 478.78 179.727 481.547 176.397 483.152C174.719 483.961 172.097 485.228 170.571 485.966C169.045 486.705 167.309 487.806 166.714 488.414C166.118 489.022 164.245 490.594 162.55 491.909C158.641 494.94 151.757 502.188 151.676 503.357C151.602 504.412 151.482 504.463 150.098 504.027V504.027ZM139.919 499.927C133.614 496.729 129.898 488.472 131.751 481.779C132.202 480.149 132.52 478.611 132.458 478.361C132.329 477.847 133.498 473.774 133.876 473.417C134.574 472.76 131.11 465.625 128.466 462.27C127.617 461.194 129.567 461.845 132.401 463.584C134.16 464.664 136.283 465.532 137.118 465.513C139.581 465.459 139.88 466.047 142.621 476.329L145.197 485.995L144.948 493.909C144.668 502.774 144.925 502.467 139.919 499.927V499.927ZM203.982 468.349C203.72 468.18 203.49 468.391 203.469 468.817C203.41 470.04 202.554 469.941 202.23 468.674C201.808 467.02 199.289 465.336 199.002 466.515C198.775 467.444 199.72 469.783 200.662 470.625C200.964 470.896 201.113 471.525 200.991 472.023C200.828 472.693 200.414 472.403 199.403 470.911C198.65 469.802 197.271 468.197 196.338 467.346C195.404 466.495 194.598 465.631 194.545 465.426C194.404 464.873 189.84 460.928 186.502 458.474L183.579 456.325L183.889 454.123C184.059 452.912 184.872 450.702 185.696 449.213C186.519 447.724 187.657 445.639 188.225 444.58C188.792 443.52 189.29 442.784 189.331 442.944C189.371 443.104 189.754 442.589 190.181 441.801C190.608 441.012 191.687 439.432 192.58 438.288C193.472 437.144 194.573 435.57 195.026 434.79L195.85 433.371L197.077 437.907C197.751 440.402 198.557 443.205 198.866 444.136C199.506 446.062 206.022 470.749 206.129 471.656C206.168 471.983 205.808 471.441 205.328 470.453C204.849 469.464 204.243 468.517 203.982 468.349V468.349ZM214.709 467.979C214.532 467.286 216.486 464.308 216.919 464.61C217.317 464.888 215.839 468.258 215.254 468.408C215.029 468.465 214.784 468.273 214.709 467.979V467.979ZM149.733 484.05C149.67 483.803 150.484 481.883 151.544 479.784C152.603 477.685 153.384 475.636 153.281 475.23C153.177 474.825 153.293 474.441 153.539 474.378C154.171 474.217 154.24 470.727 153.657 468.443C153.114 466.319 152.364 466.174 151.343 467.996C150.717 469.113 150.659 469.095 150.293 467.66L149.905 466.142L153.834 465.523C155.994 465.182 157.821 464.932 157.892 464.967C158.049 465.044 155.287 473.576 153.511 478.503C152.813 480.441 152.025 481.942 151.762 481.839C151.498 481.737 151.175 482.238 151.043 482.955C150.808 484.231 149.96 484.94 149.733 484.05V484.05ZM203.7 423.195C191.136 373.87 191.031 373.28 194.8 372.995C195.297 372.957 195.661 372.755 195.608 372.546C195.554 372.337 196.12 371.998 196.865 371.792C197.611 371.587 199.887 370.795 201.925 370.032C206.5 368.318 219.838 364.847 222.474 364.683C227.421 364.376 235.211 364.803 238.522 365.562L240.349 365.98L239.531 368.758C237.59 375.354 235.335 376.569 230.037 373.875C220.725 369.139 209.959 376.016 215.513 383.154C218.492 386.983 221.126 389.02 223.026 388.963C223.877 388.938 225.31 388.896 226.21 388.87C227.21 388.842 227.675 388.637 227.407 388.343C226.998 387.894 232.121 385.532 232.671 385.916C233.703 386.636 228.119 392.294 225.787 392.89C219.525 394.493 217.983 405.439 222.992 412.729C223.442 413.383 223.391 413.699 222.812 413.846C219.289 414.746 218.14 422.247 219.97 432.402C220.882 437.463 220.983 439.379 220.512 442.668C220.193 444.892 219.672 448.568 219.353 450.837C218.826 454.59 214.692 460.803 213.265 459.985C213.141 459.914 208.836 443.359 203.7 423.195V423.195ZM163.108 455.897C161.073 455.308 159.26 454.714 159.08 454.576C158.298 453.98 154.272 452.772 153.621 452.938C153.229 453.038 152.85 452.896 152.78 452.623C152.71 452.349 151.18 451.902 149.38 451.63C143.834 450.79 144.078 448.101 149.881 446.094C154.252 444.583 163.007 446.024 162.484 448.168C162.406 448.485 165.042 450.492 168.341 452.628C171.64 454.763 174.382 456.681 174.436 456.889C174.626 457.636 166.732 456.945 163.108 455.897V455.897ZM319.225 395.265C317.329 395.2 315.961 394.53 312.478 391.958C310.075 390.185 305.669 387.076 302.687 385.05L297.264 381.367L298.925 380.943C304.688 379.471 312.785 381.513 319.218 386.062C324.369 389.705 327.687 390.662 331.872 389.712C332.807 389.5 333.271 389.539 332.902 389.799C332.534 390.06 331.848 390.625 331.377 391.056C328.788 393.428 323.101 395.398 319.225 395.265V395.265ZM286.013 381.224C280.332 379.434 278.187 379.538 275.594 381.728C274.327 382.799 274.172 383.159 274.861 383.436C275.598 383.733 275.599 383.823 274.869 384.017C274.394 384.144 273.931 383.956 273.84 383.6C273.571 382.549 268.737 376.413 268.271 376.532C268.036 376.592 267.757 376.319 267.652 375.925C267.425 375.08 265.343 373.662 262.875 372.671C261.905 372.282 260.964 371.85 260.784 371.713C260.122 371.206 257.488 370.154 250.112 367.45C247.451 366.475 245.53 365.493 245.844 365.27C246.157 365.046 246.748 365.041 247.157 365.259C247.565 365.477 248.595 365.67 249.444 365.687C252.897 365.76 268.715 370.929 273.658 373.599C275.004 374.326 277.573 375.544 279.366 376.305C285.239 378.797 290.377 382.599 286.013 381.224ZM229.709 360.296C228.267 360.213 227.041 360.083 226.983 360.008C224.259 356.414 224.073 355.997 225.074 355.742C225.614 355.604 226.001 355.278 225.935 355.018C225.868 354.757 227.685 355.83 229.972 357.402C234.304 360.38 234.945 361.005 233.307 360.656C232.771 360.541 231.152 360.38 229.709 360.296V360.296ZM193.02 363.385C193.924 358.268 194.002 358.17 197.964 357.158C203.445 355.758 206.539 356.293 212.516 359.674L214.242 360.65L203.369 363.495L192.497 366.34L193.02 363.385ZM183.823 356.918C182.206 352.656 182.188 352.727 185.185 351.51L187.372 350.623L187.98 353.004C188.508 355.072 188.195 358.447 187.026 363.298C186.833 364.099 185.663 361.768 183.823 356.918V356.918ZM217.461 349.207C215.723 348.937 213.107 348.917 211.649 349.163C210.191 349.409 208.061 349.399 206.917 349.14C205.736 348.874 203.532 349.004 201.821 349.441C197.594 350.521 198.45 348.941 203.085 347.11C203.612 346.902 204.12 346.498 204.214 346.214C204.308 345.929 205.905 345.756 207.764 345.828C211.392 345.969 214.026 345.079 216.06 343.024C217.232 341.839 217.283 341.847 217.996 343.312C218.399 344.139 218.956 345.034 219.234 345.299C219.512 345.565 220.056 346.433 220.443 347.229C220.83 348.024 221.422 349.112 221.759 349.646C222.256 350.434 222.206 350.531 221.496 350.158C221.015 349.905 219.199 349.477 217.461 349.207ZM179.394 345.224C178.967 344.239 178.27 341.783 177.844 339.766L177.071 336.099L180.381 339.111L183.692 342.123L182.617 343.736C182.026 344.623 181.387 345.671 181.198 346.064C180.613 347.277 180.2 347.085 179.394 345.224V345.224ZM187.733 331.757C185.706 325.479 180.184 321.27 175.358 322.325L172.9 322.862L170.33 313.115C168.917 307.753 167.499 302.607 167.181 301.679C164.227 293.081 157.478 263.599 157.769 260.564C158.397 254.011 173.407 248.137 184.145 250.242C188.456 251.087 195.586 251.175 198.89 250.423C199.129 250.369 199.198 250.701 199.044 251.161C198.762 252.003 198.447 255.326 197.652 265.852C197.414 269.001 197.078 272.392 196.905 273.387C196.731 274.382 196.7 275.634 196.835 276.168C196.97 276.703 196.925 277.325 196.735 277.551C196.546 277.776 196.311 279.298 196.214 280.933C196.117 282.568 195.938 284.757 195.817 285.797C195.242 290.733 194.592 298.369 194.707 298.822C194.778 299.099 194.725 300.223 194.59 301.318C194.454 302.413 193.941 308.232 193.449 314.248C192.135 330.32 191.986 331.314 190.62 333.119C188.898 335.395 188.91 335.401 187.733 331.757L187.733 331.757ZM154.562 246.231C154.243 243.239 153.815 239.595 153.61 238.132C153.405 236.67 153.181 232.872 153.114 229.691C153.046 226.511 152.945 221.855 152.888 219.345C152.832 216.835 152.839 214.217 152.905 213.527C153.052 211.987 153.07 209.414 152.941 208.622C152.547 206.215 153.12 199.065 153.665 199.581C153.797 199.706 154.807 200.679 155.909 201.744C157.012 202.809 158.733 204.297 159.735 205.05L161.556 206.421L160.508 209.443C158.35 215.66 158.61 223.791 161.409 237.58C162.904 244.952 162.675 246.117 158.947 250.108C155.37 253.938 155.384 253.95 154.562 246.231V246.231ZM196.355 240.581C192.922 239.782 183.898 241.959 181.783 244.095C180.868 245.02 180.225 245.282 179.505 245.024C178.953 244.826 178.606 244.608 178.734 244.539C190.302 238.319 197.08 231.373 200.093 222.65C200.909 220.288 201.651 218.647 201.742 219.003C201.966 219.88 201.004 230.926 200.273 235.863C199.949 238.055 199.749 240.102 199.828 240.413C200.041 241.248 199.364 241.28 196.355 240.581L196.355 240.581ZM168.05 243.777C168.277 243.13 168.778 241.92 169.164 241.088C169.55 240.255 170.004 238.766 170.175 237.778C170.345 236.79 170.699 235.432 170.963 234.76C171.226 234.088 171.405 233.35 171.36 233.12C171.315 232.89 171.491 231.408 171.751 229.827C172.58 224.786 172.481 220.065 171.433 214.585L170.413 209.253L172.77 208.994C180.411 208.156 187.279 203.931 184.629 201.7C183.16 200.462 179.737 199.262 177.819 199.313C176.86 199.338 175.275 199.173 174.298 198.946C173.32 198.719 171.914 198.533 171.173 198.533C170.432 198.532 168.636 198.006 167.183 197.364C165.73 196.721 164.261 196.262 163.919 196.343C163.578 196.424 163.232 196.232 163.151 195.916C163.07 195.6 162.779 195.399 162.503 195.47C161.896 195.625 153.098 191.653 152.974 191.168C152.793 190.462 152.98 180.883 153.274 175.795C153.441 172.891 153.583 170.029 153.59 169.435C153.61 167.476 157.479 166.288 163.023 166.538C164.34 166.597 166.559 166.459 167.954 166.231C169.35 166.003 171.065 165.817 171.765 165.818C173.42 165.82 186.736 162.556 187.964 161.847C188.484 161.548 189.581 160.734 190.403 160.04C191.225 159.345 192.055 158.695 192.248 158.596C194.916 157.22 194.401 155.211 191.273 154.786C175.521 152.648 170.124 153.225 164.19 157.685C158.887 161.67 152.226 164.059 154.73 161.077C154.932 160.837 155.515 158.744 156.025 156.426C156.872 152.581 157.098 152.175 158.596 151.792C159.876 151.465 160.576 150.696 161.762 148.309C162.95 145.917 163.754 145.034 165.427 144.282C167.657 143.279 170.122 140.591 170.16 139.118C170.197 137.71 165.219 139.837 162.834 142.247C161.706 143.387 160.197 144.66 159.48 145.075L158.177 145.83L158.622 143.396C159.126 140.637 159.38 138.203 159.725 132.838C159.857 130.785 160.196 127.394 160.478 125.302C160.759 123.211 161.186 118.758 161.426 115.407C161.893 108.877 165.047 100.574 167.275 100.004C167.512 99.944 167.92 99.4955 168.183 99.0076C168.446 98.5198 170.124 96.2322 171.913 93.9241C173.701 91.616 175.655 88.9583 176.254 88.018C176.853 87.0777 177.376 86.4395 177.417 86.5998C177.458 86.76 177.712 87.2344 177.98 87.654C178.279 88.1204 178.129 88.6228 177.594 88.9468C176.501 89.6087 176.539 92.5277 177.653 93.4654C179.978 95.4239 182.021 91.1634 179.968 88.6361C179.496 88.0547 179.304 87.4369 179.51 87.163C180.277 86.1431 181.057 82.581 181.02 80.2707C180.958 76.488 181.329 75.6409 182.243 77.4727C182.759 78.5058 182.877 79.5943 182.604 80.8089C182.03 83.3687 182.833 86.2389 184.038 85.9311C185.577 85.5382 190.558 89.1915 189.722 90.0993C189.35 90.5028 189.207 91.4665 189.405 92.2408C189.603 93.015 189.605 93.7195 189.409 93.8063C189.214 93.8931 188.308 94.2326 187.395 94.5608C185.329 95.3038 184.787 96.881 185.564 99.8871C186.532 103.63 187.139 104.356 190.158 105.384C192.455 106.165 192.978 106.567 192.832 107.436C192.732 108.031 192.646 108.867 192.642 109.294C192.637 109.796 191.149 109.36 188.436 108.063C186.127 106.96 184.23 106.338 184.219 106.683C184.209 107.027 183.984 107.365 183.718 107.433C183.452 107.5 183.298 107.297 183.375 106.98C183.89 104.872 178.927 103.083 177.858 104.991C176.619 107.201 180.722 109.91 183.143 108.48C185.963 106.814 193.181 111.992 192.53 115.215C192.395 115.885 192.51 116.203 192.856 116.115C193.15 116.039 193.42 115.557 193.456 115.043C193.492 114.529 193.855 114.023 194.263 113.919C194.691 113.81 194.981 114.094 194.946 114.588C194.914 115.06 195.211 115.673 195.607 115.949C196.668 116.69 193.939 117.265 190.644 116.994C188.877 116.849 186.978 116.114 185.125 114.857C181.98 112.723 180.089 112.626 180.056 114.596C180.027 116.306 181.546 117.262 183.63 116.846C184.56 116.661 185.467 116.62 185.647 116.755C185.826 116.891 186.898 117.37 188.028 117.82L190.083 118.638L188.55 119.04C185.073 119.951 182.9 122.479 184.511 123.74C185.005 124.126 186.323 125.743 187.441 127.334C191.006 132.405 196.75 133.26 198.061 128.914C199.183 125.191 199.996 123.949 201.937 122.989C203.941 121.998 203.959 122.003 204.063 123.575C204.12 124.446 204.718 127.938 205.391 131.334L206.615 137.51L205.211 138.571C204.439 139.155 203.156 139.803 202.359 140.011C196.419 141.563 199.534 144.968 207.899 146.068C208.559 146.155 208.923 147.113 209.778 151.019C210.611 154.817 210.665 155.646 210.03 154.859C206.053 149.928 203.732 148.197 203.169 149.741C201.947 153.091 204.402 158.576 208.444 161.527C210.604 163.104 211.44 164.079 211.764 165.403L212.198 167.171L210.823 165.329C210.066 164.316 208.931 163.129 208.299 162.691C207.668 162.254 205.974 160.645 204.534 159.115C202.799 157.272 201.909 156.645 201.893 157.258C201.88 157.766 201.703 158.391 201.5 158.647C201.277 158.928 201.621 160.058 202.363 161.487C203.06 162.828 203.828 165.29 204.13 167.148C204.699 170.654 204.905 170.925 208.668 173.118C210.909 174.425 210.995 175.282 209.34 179.887C207.639 184.618 207.946 184.428 206.007 181.951C202.608 177.61 200.171 176.669 195.448 177.875C191.535 178.875 187.251 178.868 185.663 177.86C182.983 176.158 181.49 178.028 183.1 181.07C185.955 186.462 192.019 189.661 197.084 188.446C204.567 186.652 205.778 189.563 203.764 204.515C203.271 208.175 202.714 212.311 202.526 213.705L202.184 216.24L201.616 212.883C200.015 203.417 187.993 210.658 180.361 225.685C178.068 230.2 175.022 235.741 173.592 237.997C170.154 243.42 167.031 246.678 168.05 243.777L168.05 243.777ZM121.291 232.294C115.817 228.463 109.976 224.584 108.31 223.674C106.644 222.763 104.153 221.31 102.774 220.445L100.267 218.872L99.8486 214.584C99.3708 209.687 100.703 206.011 103.395 204.794C104.206 204.427 105.713 203.715 106.744 203.211C107.775 202.707 108.799 202.295 109.019 202.296C109.239 202.298 110.357 201.781 111.503 201.148C117.475 197.851 120.626 198.364 122.692 202.973C124.74 207.541 124.749 207.848 122.919 210.179C119.687 214.294 118.929 216.479 118.426 223.142C118.148 226.818 119.856 227.417 126.392 225.937C129.336 225.27 131.833 224.913 131.942 225.143C132.051 225.374 133.294 228.021 134.705 231.027C136.115 234.033 138.176 238.309 139.285 240.529C142.944 247.86 142.761 248.058 136.645 243.385C133.674 241.115 126.765 236.124 121.291 232.294ZM141.058 229.098C139.072 225.062 137.303 221.52 137.126 221.229C136.948 220.938 137.604 219.669 138.582 218.409C139.56 217.149 140.291 215.844 140.205 215.508C140.12 215.173 140.57 214.158 141.204 213.254L142.357 211.609L142.7 214.183C142.94 215.981 143.425 217.241 144.311 218.36C145.822 220.27 146.113 222.116 146.449 231.919C146.579 235.708 146.719 238.977 146.76 239.183C147.013 240.449 144.147 235.38 141.058 229.098V229.098ZM81.7045 219.875C79.0072 218.771 70.338 213.264 64.4921 208.94C62.668 207.591 60.8978 206.329 60.5583 206.135C60.2189 205.942 59.1082 205.31 58.0902 204.73C52.9786 201.822 63.2979 203.868 69.946 207.081C78.1664 211.054 89.0204 218.437 87.6876 219.149C85.3641 220.391 84.8233 220.679 84.5798 220.809C84.4382 220.884 83.1444 220.464 81.7045 219.875V219.875ZM128.65 202.739L127.607 200.404L129.29 199.777C131.438 198.976 134.373 198.864 134.555 199.576C134.632 199.877 134.38 200.205 133.994 200.303C133.608 200.402 133.271 200.705 133.244 200.978C133.192 201.503 130.585 204.709 130.023 204.938C129.842 205.013 129.224 204.023 128.65 202.739ZM133.475 191.219C131.357 191.441 128.636 191.669 127.429 191.726L125.235 191.831L127.039 187.733L128.843 183.636L132.373 185.469C134.314 186.477 137.05 187.805 138.452 188.42C142.064 190.002 142.314 190.488 139.611 190.666C138.355 190.748 135.594 190.997 133.475 191.219V191.219ZM99.3903 200.227C99.0194 198.775 101.601 194.112 107.149 186.214C108.212 184.7 109.615 182.33 110.266 180.947C111.314 178.719 111.52 178.542 112.072 179.389C113.712 181.907 113.491 182.711 110.185 186.229C106.295 190.369 101.833 196.311 100.889 198.608C100.23 200.213 99.5691 200.927 99.3903 200.227V200.227ZM143.449 184.846C143.343 184.431 142.728 183.694 142.081 183.206C141.434 182.719 140.651 181.972 140.34 181.547C140.029 181.121 138.115 179.304 136.086 177.508C132.864 174.656 129.004 169.581 128.472 167.499C127.33 163.027 117.365 156.344 115.984 159.124C114.854 161.397 117.683 171.954 120.357 175.441L122.762 178.578L120.634 179.336C119.463 179.753 118.496 180.055 118.483 180.008C118.471 179.96 117.611 178.049 116.571 175.76C114.752 171.757 114.673 171.397 114.487 166.282C114.012 153.227 109.455 145.109 106.586 152.207C106.018 153.613 105.542 152.845 101.685 144.296C100.183 140.966 99.4036 139.32 94.9613 130.102C89.9197 119.64 89.7776 116.164 94.3487 115.11C98.1875 114.226 99.2475 111.838 100.095 102.169C100.665 95.6671 98.8103 91.4276 97.7991 96.9214C97.6742 97.5999 96.4497 99.3201 95.0779 100.744C93.616 102.261 92.0952 104.627 91.4031 106.46C90.3555 109.234 88.8822 112.142 88.6327 111.929C88.3744 111.708 86.2596 94.6825 86.0296 90.9729L85.762 86.6566L87.8777 87.5939C89.3591 88.2502 90.679 88.3562 92.2798 87.9473C94.5365 87.371 94.6044 87.4031 97.525 90.4326C103.103 96.2183 106.16 99.9613 106.402 101.299C106.569 102.222 106.912 102.571 107.506 102.422C108.428 102.191 114.455 110.675 114.008 111.574C113.882 111.828 113.707 111.754 113.619 111.41C113.396 110.536 109.768 110.202 108.871 110.972C108.465 111.322 107.746 111.761 107.274 111.948C102.707 113.756 105.231 125.643 109.927 124.443C110.285 124.352 110.622 124.451 110.676 124.663C110.856 125.369 109.682 127.566 109.036 127.731C108.686 127.82 108.328 128.187 108.24 128.546C108.143 128.944 108.935 128.981 110.265 128.641C112.513 128.067 113.637 126.714 114.636 123.383L115.087 121.881L117.504 123.416C118.833 124.26 120.099 124.905 120.319 124.849C120.538 124.793 120.783 125.006 120.864 125.322C120.947 125.648 119.565 126.267 117.67 126.753C113.345 127.862 107.668 131.468 108.028 132.878C108.256 133.768 111.482 133.198 114.658 131.705C117.727 130.262 118.04 130.221 119.689 131.036C120.656 131.514 121.783 131.819 122.193 131.714C123.315 131.428 124.201 132.868 125.77 137.533C126.552 139.857 127.839 143.384 128.629 145.37C132.632 155.435 136.026 163.563 136.827 165.002C140.103 170.886 145.213 185.198 144.137 185.473C143.864 185.542 143.555 185.26 143.449 184.846V184.846ZM216.415 161.964C216.419 161.542 215.762 157.441 214.954 152.851C214.056 147.754 213.691 144.449 214.015 144.361C214.306 144.282 215.06 143.911 215.69 143.537L216.834 142.856L216.105 144.51C215.118 146.749 215.018 149.194 215.795 152.064C216.3 153.927 216.473 154.18 216.576 153.201C216.702 152.001 216.725 152.003 217.073 153.228C217.617 155.141 218.589 154.495 219.322 151.732C220.046 149.001 220.784 149.436 220.488 152.419C220.151 155.813 216.386 164.636 216.415 161.964V161.964ZM144.806 168.166C143.948 166.534 142.055 162.473 140.6 159.143C139.145 155.812 137.413 151.848 136.753 150.333C132.068 139.598 129.808 132.599 131.869 135.211C132.476 135.981 133.118 136.712 133.295 136.835C133.775 137.169 135.209 138.914 138.709 143.424L141.859 147.484L144.363 157.548C146.39 165.697 147.689 173.873 146.597 171.612C146.47 171.349 145.664 169.798 144.806 168.166V168.166ZM269.964 136.295C270.434 136.056 271.098 136.161 271.439 136.528C272.586 137.759 272.314 138.084 270.706 137.404C269.338 136.825 269.232 136.667 269.964 136.295ZM228.434 142.66C229.531 141.948 230.364 141.114 230.285 140.808C230.207 140.501 230.477 140.165 230.886 140.061C232.263 139.709 232.01 141.311 230.382 143.25C229.492 144.309 228.822 145.402 228.893 145.678C228.963 145.955 228.44 145.68 227.731 145.068L226.441 143.956L228.434 142.66V142.66ZM268.862 132.867C268.789 132.58 269.209 132.367 269.796 132.394C270.382 132.42 270.888 132.54 270.919 132.662C270.95 132.783 270.529 132.996 269.985 133.135C269.44 133.274 268.935 133.153 268.862 132.867ZM233.315 138.216C233.084 137.314 233.351 136.983 234.561 136.674L236.101 136.281L235.221 137.709C234.097 139.533 233.679 139.644 233.315 138.216L233.315 138.216ZM258.237 128.434C258.032 127.628 259.878 128.019 261.281 129.078C263.79 130.972 263.497 131.467 260.744 129.987C259.399 129.264 258.271 128.565 258.237 128.434ZM148.406 150.455C147.363 146.199 146.34 140.777 146.132 138.407C145.54 131.649 145.533 131.683 147.549 131.554C149.724 131.415 150.115 130.268 148.325 129.28C146.43 128.234 146.512 128.122 150.051 126.934C152.078 126.254 153.323 125.53 153.464 124.949C153.814 123.517 153.198 123.276 151.265 124.088C148.769 125.137 146.464 124.088 148.222 122.703C150.598 120.831 150.351 113.721 147.861 112.307C147.352 112.018 146.866 111.506 146.78 111.17C146.552 110.278 143.902 108.422 143.136 108.618C142.775 108.71 142.358 108.311 142.21 107.732C142.059 107.14 141.587 106.769 141.131 106.886C140.685 107 140.335 107.594 140.352 108.207C140.371 108.884 139.932 109.436 139.233 109.615C138.6 109.776 138.011 110.202 137.923 110.561C137.836 110.92 137.27 111.34 136.666 111.494C132.576 112.539 132.63 120.58 136.744 123.279C138.25 124.267 138.565 125.333 137.316 125.219C136.797 125.171 135.584 125.056 134.621 124.963C132.074 124.716 132.222 125.693 135.054 127.798C136.748 129.058 137.939 129.527 138.853 129.294C140.728 128.817 140.938 129.255 141.157 134.123C141.375 138.956 141.109 139.202 138.769 136.321C137.869 135.213 135.455 132.615 133.404 130.546C131.353 128.478 129.628 126.603 129.571 126.38C129.514 126.157 128.99 125.605 128.406 125.154C127.402 124.377 127.446 124.326 129.221 124.213C131.23 124.084 131.42 123.605 129.924 122.444C129.104 121.808 129.086 121.374 129.783 118.965C130.221 117.451 130.41 116.095 130.204 115.95C129.582 115.517 127.093 116.343 126.923 117.039C126.605 118.346 125.162 119.44 124.934 118.548C124.818 118.093 125.538 116.798 126.534 115.671C127.53 114.543 128.599 112.924 128.91 112.072C129.222 111.22 130.511 109.032 131.776 107.209C135.428 101.945 136.526 98.9807 136.173 95.3328L135.948 93.0118L134.911 94.8899C134.34 95.9229 133.29 97.3436 132.578 98.047C131.866 98.7505 130.699 100.663 129.985 102.298C129.271 103.933 128.456 105.334 128.174 105.413C127.33 105.647 123.779 109.895 123.93 110.489C124.008 110.791 123.823 111.102 123.52 111.18C122.947 111.326 122.873 110.849 122.471 104.41L122.246 100.795L124.627 99.7977C127.013 98.7983 131.397 95.5496 132.275 94.1302C133.105 92.7889 132.43 91.5692 131.299 92.3666C125.113 96.7273 121.615 93.2055 125.06 86.0856L126.026 84.0872L128.682 85.0483C134.319 87.0881 136.857 83.4422 133.115 78.6781C131.057 76.0573 130.441 72.7239 131.452 69.6806C131.574 69.3128 131.56 67.9394 131.42 66.6287C131.061 63.2538 131.722 61.448 133.076 62.1063C136.937 63.9834 143.506 64.6787 144.199 63.2837C144.468 62.7425 142.006 61.3771 140.235 61.0848C139.313 60.9327 140.004 60.624 142.647 60.0074L146.352 59.1432L146.508 55.8365C146.663 52.5685 146.649 52.5181 145.371 51.5371C143.62 50.1942 142.467 47.095 143.119 45.4873C143.794 43.8252 144.161 43.8029 144.946 45.3759C145.307 46.0975 146.563 47.0635 147.739 47.5224C149.611 48.2531 149.773 48.4374 149.041 49.0041C145.106 52.0523 150.298 64.5129 155.017 63.3465C155.782 63.1578 156.649 63.6355 157.686 64.8163C158.534 65.7822 159.619 66.4643 160.11 66.3391C161.14 66.0759 161.991 67.152 161.699 68.3489C161.557 68.9336 161.351 69.0146 160.997 68.6259C160.721 68.3237 159.912 68.2256 159.199 68.4078C156.679 69.0514 154.482 68.3187 153.331 66.4506C151.7 63.8024 147.763 63.4028 148.414 65.9516C148.976 68.1541 152.524 69.8097 156.935 69.9279C158.924 69.9812 158.27 72.5552 156.091 73.2493C153.569 74.0525 153.206 74.5955 154.174 76.117C154.844 77.1702 154.891 77.5853 154.382 77.9871C154.023 78.2712 153.825 78.8802 153.943 79.3406C154.086 79.9007 153.696 80.2519 152.764 80.402C149.191 80.9773 149.249 80.7926 150.816 86.6134C151.601 89.5266 152.364 92.2389 152.511 92.6408C152.9 93.6967 157.405 94.5858 158.624 93.8472C159.627 93.2396 159.636 93.3192 159.008 97.1496C158.415 100.761 157.591 101.883 157.06 99.8031C156.712 98.4416 153.264 94.273 150.387 91.7358C145.364 87.3063 140.831 87.2654 144.136 91.6794C145.216 93.1211 145.89 94.8718 146.795 98.5806C148.145 104.119 148.539 104.661 153.707 108.099L156.409 109.895L156.127 116.66C155.736 126.028 155.346 131.492 154.747 135.946C154.466 138.037 153.927 142.03 153.549 144.819C152.944 149.287 150.922 158.036 150.468 158.152C150.377 158.175 149.449 154.712 148.406 150.455L148.406 150.455ZM250.411 124.63C249.897 122.621 251.321 119.299 254.093 116.036C255.896 113.914 257.954 112.748 258.17 113.727C258.81 116.636 257.201 122.677 255.589 123.414C252.51 124.821 250.575 125.275 250.411 124.63V124.63ZM210.691 134.291C210.483 133.475 210.772 133.149 211.919 132.906C212.743 132.731 213.43 132.632 213.444 132.685C213.458 132.738 213.439 133.225 213.402 133.767C213.302 135.201 211.036 135.64 210.691 134.291V134.291ZM213.173 129.489C212.99 128.807 212.581 128.217 212.266 128.18C211.744 128.117 211.046 126.288 210.557 123.7C210.19 121.758 214.329 123.702 215.701 126.115C216.026 126.685 216.654 127.214 217.097 127.289C218.312 127.496 218.324 128.471 217.118 129C216.433 129.3 216.113 129.944 216.223 130.798C216.455 132.595 213.689 131.408 213.173 129.489ZM256.611 91.9571C256.395 91.7207 256.887 90.082 257.704 88.3156C258.79 85.966 259.321 85.3102 259.681 85.8719C260.432 87.0455 257.476 92.9054 256.611 91.9571V91.9571ZM201.48 103.183C201.348 102.554 201.168 101.385 201.08 100.584C200.953 99.4306 200.646 99.123 199.6 99.1002C198.708 99.0807 198.442 98.8777 198.781 98.4744C199.359 97.7853 198.896 95.5072 198.048 94.8683C196.674 93.8337 195.196 88.8133 196.508 89.6353C197.321 90.145 198.534 90.1847 200.211 89.7565L202.704 89.1196L202.876 91.6768C202.97 93.0832 203.427 96.2577 203.891 98.7313C204.541 102.196 204.565 103.334 203.996 103.689C202.649 104.527 201.723 104.341 201.48 103.183V103.183ZM163.497 96.8117C163.476 96.0744 163.656 95.4209 163.896 95.3595C164.137 95.2981 164.242 94.8886 164.13 94.4497C163.801 93.1603 165.11 90.1851 165.454 91.4428C165.787 92.6656 167.218 92.4182 167.308 91.1222C167.344 90.6082 167.61 90.1271 167.9 90.0531C168.189 89.9791 168.708 89.4155 169.053 88.8007C169.408 88.1665 169.865 87.8861 170.108 88.1527C170.563 88.652 168.657 91.9706 165.637 95.9337C163.571 98.6456 163.55 98.6543 163.497 96.8117V96.8117ZM78.3715 103.532C77.4076 102.149 76.0311 99.2569 75.3127 97.1047L74.0065 93.1916L75.3509 90.4657C76.8047 87.5182 77.4036 87.3015 77.9697 89.5179C78.1695 90.3004 78.8802 91.5116 79.5491 92.2097C80.6486 93.3572 80.8915 94.2058 82.0844 101.067C83.8923 111.467 83.8996 111.462 78.3715 103.532V103.532ZM115.339 97.0128C114.028 96.2746 113.834 95.939 114.047 94.782C114.936 89.9528 109.43 86.0615 106.308 89.3131C103.792 91.9341 99.5697 83.1713 102.031 80.4379C103.906 78.3562 104.479 75.197 103.45 72.607C102.409 69.9865 101.793 69.2195 101.545 70.2366C101.423 70.7349 100.795 70.5841 99.6433 69.7801C96.772 67.7754 94.6932 74.024 96.6412 78.804C97.9007 81.8945 97.4846 81.7667 94.641 78.1895C91.7422 74.5427 91.3823 73.3189 92.2069 69.9123C93.2351 65.6645 93.4446 63.4983 92.8358 63.4099C91.6765 63.2416 88.8893 66.4499 88.3796 68.5395C87.9015 70.4993 87.0951 71.5656 86.8417 70.5732C86.7885 70.3649 87.2862 68.5972 87.9477 66.645C88.6093 64.6928 89.1049 62.9172 89.0493 62.6992C88.9397 62.2702 90.5503 57.9213 91.9779 54.791C92.4651 53.7228 93.0131 51.9737 93.1957 50.9042C93.5937 48.5735 94.1569 48.6757 93.9987 51.0499C93.7572 54.6744 95.222 56.214 96.1411 53.3017C97.025 50.5009 98.3973 51.187 97.9014 54.1819C97.1405 58.7768 99.6673 63.0011 103.396 63.3669C104.391 63.4646 104.558 63.6475 104.128 64.171C103.712 64.6786 103.845 64.7814 104.659 64.5804C106.806 64.0508 107.506 67.2343 105.504 68.4171C104.087 69.2539 104.241 69.8099 106.176 70.8418L107.724 71.6669L106.699 72.3704C105.639 73.0973 104.432 75.4418 104.66 76.3318C104.731 76.6101 105.705 77.1725 106.825 77.5817C109.3 78.4861 109.377 78.7097 107.813 80.4326C104.277 84.3277 111.371 89.5911 115.026 85.784C115.576 85.2107 116.161 85.0553 116.845 85.3007C117.399 85.4996 117.619 85.7306 117.332 85.814C116.802 85.9683 116.813 88.704 117.371 95.5181C117.543 97.6092 117.502 98.9965 117.282 98.6009C117.062 98.2053 116.187 97.4907 115.339 97.0128L115.339 97.0128ZM172.013 79.8906C171.941 79.6096 172.19 78.6508 172.567 77.7599C173.101 76.4986 173.248 76.3894 173.232 77.2664C173.221 77.8858 173.306 78.7592 173.42 79.2073C173.535 79.6555 173.294 80.1075 172.886 80.2118C172.477 80.3161 172.084 80.1715 172.013 79.8906ZM179.542 58.5817C179.057 56.3707 178.609 55.3175 178.117 55.2337C177.646 55.1533 177.908 54.1677 178.881 52.3619C180.496 49.3649 181.14 49.4568 180.644 52.6133C180.469 53.7234 180.454 55.0388 180.61 55.5363C180.766 56.0338 180.907 55.7489 180.923 54.9033C180.948 53.6181 181.068 53.7819 181.653 55.9015C182.169 57.7717 182.16 58.8582 181.616 60.0417C180.559 62.3449 180.332 62.1852 179.542 58.5817V58.5817ZM170.339 55.7396C170.253 53.5909 170.153 50.3256 170.117 48.4835C170.081 46.6414 170.029 44.5368 170.001 43.8067C169.86 40.0767 172.041 39.4317 174.514 42.4719C175.47 43.6473 176.472 44.2239 177.645 44.2732L179.37 44.3458L178.111 47.3328C177.419 48.9757 176.58 50.4153 176.247 50.532C175.525 50.7854 175.199 49.8623 175.771 49.1815C176.288 48.5655 175.585 45.794 174.464 44.033C173.675 42.7933 171.758 42.9696 170.916 44.3593C170.443 45.1402 172.945 49.7689 173.863 49.8098C175.101 49.8651 175.331 50.5053 174.565 51.7601C174.251 52.2743 173.767 53.0974 173.488 53.5893C173.21 54.0813 172.774 54.5368 172.519 54.6018C172.265 54.6667 171.859 56.1622 171.617 57.9251C171.077 61.8541 170.549 60.9516 170.339 55.7396L170.339 55.7396ZM88.2763 81.0046C87.0474 81.2987 86.1882 80.54 86.268 79.2313C86.3565 77.7815 87.0311 77.9499 89.5243 80.044C90.7588 81.0809 90.786 81.1595 89.8619 81.0188C89.3092 80.9346 88.5956 80.9282 88.2763 81.0046V81.0046ZM162.393 49.2628C162.206 47.3005 161.435 46.5439 159.856 46.7711C157.07 47.1719 156.077 47.8023 155.792 49.3521L155.504 50.9197L154.329 49.9069C153.141 48.883 156.2 45.3183 158.856 44.6306C159.299 44.516 160.387 43.8084 161.275 43.0582C163.672 41.0329 165.731 43.626 165.851 48.8221C165.902 51.0166 162.601 51.4373 162.393 49.2628ZM127.722 54.4156C127.264 54.5325 126.977 54.4511 127.085 54.2346C127.193 54.0181 128.723 53.6678 130.485 53.4562L133.689 53.0714L132.422 55.082L131.154 57.0927L129.854 55.6479C129.139 54.8532 128.18 54.2987 127.722 54.4156V54.4156ZM196.525 37.5324C195.212 37.4993 193.428 37.4844 192.562 37.4993C191.078 37.5249 191.143 37.4186 193.677 35.6722C197.276 33.1915 198.067 33.1925 199.554 35.6793C200.68 37.5616 200.704 37.7247 199.847 37.6615C199.334 37.6236 197.839 37.5655 196.525 37.5324V37.5324ZM110.612 57.1027C110.491 54.8105 111.119 52.5361 111.931 52.3287C113.182 52.0093 112.643 48.9001 111.221 48.2285C110.525 47.9 108.534 46.6865 106.795 45.5317L103.634 43.432L105.435 42.9722C107.607 42.4174 110.61 43.4821 113.914 45.9786C116.843 48.1922 116.739 47.8854 115.884 51.7513C115.505 53.4616 115.166 55.3318 115.13 55.9074C115.092 56.51 114.395 57.2305 113.486 57.6062C112.619 57.9649 111.637 58.3721 111.304 58.5109C110.881 58.6874 110.673 58.2643 110.612 57.1027V57.1027ZM183.282 36.8476C183.231 34.7569 182.988 34.1132 181.556 32.2837L179.888 30.1539L180.799 29.5271C181.299 29.1824 182.317 27.7065 183.06 26.2474C186.524 19.4462 188.528 29.8504 185.106 36.8678C183.542 40.0735 183.359 40.0715 183.282 36.8476V36.8476ZM122.173 48.1329C121.588 43.1414 122.139 41.5329 123.119 45.371C123.506 46.8885 123.579 48.1299 123.284 48.2051C122.996 48.2788 122.983 48.5837 123.256 48.8827C123.751 49.4254 123.426 52.6822 122.913 52.3238C122.764 52.2199 122.431 50.3339 122.173 48.1329V48.1329ZM191.215 31.1916C191.097 30.7333 191.244 30.0762 191.54 29.7314C191.837 29.3865 192.107 28.6153 192.141 28.0176C192.176 27.3944 192.711 26.8012 193.394 26.6267C194.049 26.4593 195.298 25.9794 196.17 25.5601C197.056 25.1342 197.569 25.0706 197.333 25.4161C197.101 25.7562 196.795 26.6836 196.654 27.4769C196.513 28.2703 196.017 29.0208 195.551 29.1447C195.085 29.2686 194.239 29.8708 193.67 30.483C192.291 31.9676 191.473 32.2036 191.215 31.1916V31.1916ZM29.7871 63.3976C27.7676 62.5048 26.984 61.7496 25.7648 59.521C23.9321 56.1708 23.6973 55.4052 24.7219 56.1205C25.1455 56.4163 26.285 56.4557 27.2541 56.2082C28.9986 55.7626 29.0377 55.7954 31.1678 59.4921C32.3512 61.5458 33.5485 63.584 33.8285 64.0214C34.505 65.0782 33.0972 64.8609 29.7871 63.3976V63.3976ZM60.62 54.1086C60.9897 53.6146 66.3262 53.3999 66.5984 53.8681C67.424 55.2878 64.0338 56.4037 62.2441 55.3013C61.2966 54.7178 60.5658 54.181 60.62 54.1086ZM84.3952 39.1811C83.6181 39.0513 82.8769 38.5325 82.7481 38.0281C82.6193 37.5238 82.0807 36.8086 81.5512 36.439C79.4735 34.9884 80.5166 34.8089 84.5559 35.9221L88.7811 37.0864L87.3687 38.1598C86.5918 38.7502 85.9229 39.2746 85.8822 39.3252C85.8415 39.3757 85.1723 39.3109 84.3952 39.1811V39.1811ZM81.4069 33.8093C80.7527 33.3032 80.4402 32.8322 80.7125 32.7627C80.9847 32.6932 81.7428 33.0503 82.397 33.5564C83.0512 34.0625 83.3637 34.5335 83.0914 34.6031C82.8192 34.6726 82.0611 34.3154 81.4069 33.8093ZM176.779 647.756C176.698 647.44 176.41 647.238 176.137 647.308C175.865 647.377 175.708 647.693 175.789 648.009C175.87 648.325 176.159 648.526 176.431 648.457C176.703 648.387 176.86 648.072 176.779 647.756ZM173.369 646.791C173.288 646.475 172.986 646.277 172.698 646.35C172.409 646.424 172.377 646.707 172.626 646.98C172.875 647.253 173.177 647.452 173.297 647.421C173.417 647.39 173.449 647.107 173.369 646.791Z" fill="black" fill-opacity="0.08"/>
</svg>
