<svg width="524" height="726" viewBox="0 0 524 726" fill="none" xmlns="http://www.w3.org/2000/svg">
<path d="M24.6471 699.96C25.1098 699.659 26.4531 698.971 27.6324 698.431C34.9069 695.102 40.7238 679.37 39.7748 665.591C39.4173 660.399 48.6224 631.537 49.4628 635.215C50.5347 639.907 50.7687 645.071 50.0346 647.838C49.7654 648.852 49.6018 650.02 49.6711 650.433C49.7404 650.846 49.6957 652.415 49.5718 653.92C48.5788 665.985 52.2383 679.201 57.0576 680.955C57.5261 681.126 57.6332 681.504 57.2984 681.805C56.9361 682.13 57.1146 682.434 57.7452 682.564C58.3228 682.683 59.104 683.058 59.4835 683.392C65.0599 688.348 67.9253 689.295 69.7427 686.782C74.3414 680.423 74.2831 664.077 69.6299 655.164C68.3949 652.799 62.8946 645.738 62.0343 645.414C61.2773 645.128 58.0991 637.687 58.8401 637.935C59.1947 638.053 59.5251 638.436 59.5744 638.785C59.8472 640.717 68.0333 646.573 70.7061 646.749C74.0456 646.968 73.3516 637.874 69.5707 631.871C69.1212 631.158 73.869 627.064 74.3426 627.757C74.5339 628.037 75.059 627.351 75.5096 626.232C76.4058 624.008 76.777 622.975 80.1724 613.266C81.4348 609.656 82.599 606.434 82.7596 606.105C83.4074 604.776 82.0665 619.906 80.7026 629.314C78.4818 644.632 78.1509 650.289 79.3711 652.074C79.5931 652.399 79.6729 652.945 79.5483 653.287C79.4238 653.629 79.1436 653.649 78.9257 653.33C78.7078 653.011 78.4171 653.059 78.2797 653.436C78.1424 653.814 78.4018 654.165 78.8563 654.216C80.0203 654.348 81.2375 660.503 80.3463 661.75C79.7839 662.537 79.8147 662.604 80.4925 662.064C81.2055 661.496 81.5289 661.749 82.3953 663.551C85.2042 669.392 91.1537 673.679 93.5017 671.554C99.1536 666.437 101.662 646.663 97.4499 640.433C97.0639 639.862 96.8764 639.043 97.0333 638.612C97.1902 638.181 97.1377 637.762 96.9166 637.681C96.6955 637.6 95.9314 636.292 95.2185 634.773C94.5057 633.254 93.4616 631.134 92.8984 630.06C92.3351 628.987 91.5648 626.17 91.1866 623.8C90.8083 621.43 90.3102 618.526 90.0799 617.345C89.3637 613.677 90.3468 614.539 93.4796 620.328C97.2775 627.345 98.2438 628.6 102.026 631.422C107.88 635.791 115.913 636.785 117.182 633.298C117.929 631.245 114.477 619.41 112.971 618.862C112.741 618.778 112.232 617.938 111.841 616.996C111.153 615.338 104.955 610.307 102.497 609.413C101.833 609.171 100.617 608.292 99.7939 607.459C98.971 606.626 97.2039 605.325 95.867 604.569C91.8662 602.305 90.9318 599.137 90.2231 585.432C89.5539 572.491 89.7621 571.429 91.9574 576.583C92.7674 578.485 93.6415 580.118 93.8999 580.212C94.1583 580.306 94.7271 581.226 95.1639 582.257C96.2493 584.819 98.9519 589.999 99.8155 591.173C104.39 597.391 107.478 599.951 112.693 601.85C116.725 603.317 123.292 603.897 125.87 603.014C126.883 602.667 127.946 602.469 128.233 602.573C130.596 603.433 131.553 598.934 129.873 594.858C128.942 592.598 129.044 590.889 130.087 591.269C130.399 591.383 130.611 591.164 130.557 590.784C130.503 590.404 130.789 590 131.193 589.887C131.596 589.774 131.939 589.243 131.955 588.707C131.971 588.17 132.196 587.809 132.456 587.903C132.716 587.998 133.499 587.014 134.196 585.718C134.894 584.422 135.664 583.434 135.907 583.522C136.15 583.61 136.954 582.555 137.693 581.178C140.414 576.11 141.244 576.243 141.58 581.804C142.524 597.459 140.407 604.78 131.429 616.905C121.099 630.855 117.219 649.759 125.748 644.585C126.63 644.05 127.311 643.329 127.262 642.983C127.213 642.636 127.435 642.447 127.754 642.564C128.074 642.68 128.856 642.093 129.492 641.258C130.128 640.424 131.064 639.259 131.572 638.668C133.272 636.693 137.122 630.176 139.559 625.148C140.887 622.41 142.146 620.014 142.356 619.824C142.567 619.635 143.438 618.014 144.292 616.222C145.146 614.43 146.039 612.855 146.278 612.722C147.968 611.775 149.461 627.976 148.421 635.972C147.601 642.277 147.902 648.35 149.113 649.936C149.551 650.51 149.963 651.208 150.03 651.487C150.096 651.767 151.043 652.541 152.135 653.209C153.227 653.877 154.76 655.395 155.541 656.583C157.977 660.288 162.869 662.398 164.231 660.331C169.428 652.439 169.628 643.004 164.787 634.088C164.172 632.956 163.224 631.155 162.68 630.085C162.136 629.014 161.424 628.042 161.098 627.923C160.772 627.804 160.607 627.427 160.731 627.085C160.856 626.743 160.587 626.328 160.135 626.163C159.132 625.798 157.326 623.096 157.594 622.361C157.808 621.773 158.498 622.325 161.217 625.254C167.21 631.712 175.333 634.195 180.676 631.202C182.701 630.068 181.298 621.887 178.93 621.025C178.535 620.882 178.305 620.507 178.419 620.193C179.002 618.592 171.372 613.629 162.008 609.518C155.534 606.676 154.119 604.851 152.617 597.408C152.23 595.494 151.826 593.738 151.718 593.505C151.61 593.272 151.153 591.584 150.702 589.755C149.873 586.397 150.315 584.81 151.414 587.199C151.948 588.361 158.381 595.93 159.038 596.169C159.185 596.222 160.502 597.603 161.965 599.236C163.429 600.87 165.999 602.937 167.678 603.829C169.357 604.722 171.866 606.086 173.253 606.861C177.388 609.169 182.55 609.883 186.984 608.759C189.138 608.213 191.131 607.85 191.414 607.953C191.739 608.071 184.018 629.47 170.301 666.466L148.674 724.794L150.428 725.155C152.234 725.527 157.34 724.693 158.442 723.845C158.856 723.526 158.991 723.575 158.845 723.992C158.725 724.336 159.351 724.881 160.235 725.203C161.12 725.525 161.92 725.578 162.014 725.322C162.107 725.065 161.942 724.767 161.647 724.66C161.353 724.553 161.293 723.976 161.516 723.379C161.861 722.453 161.946 722.457 162.092 723.412C162.29 724.701 165.479 715.205 165.684 712.719C165.753 711.884 165.962 711.424 166.149 711.697C166.549 712.282 166.745 711.757 200.734 618.814C222.318 559.794 226.999 546.599 226.576 545.963C226.183 545.373 226.28 545.265 226.98 545.511C229.845 546.521 241.166 536.213 243.135 530.802C244.057 528.27 244.199 530.884 243.359 534.903C239.529 553.21 244.908 576.208 251.662 570.408C258.054 564.92 258.025 553.595 251.577 536.385C249.163 529.943 247.253 524.493 247.333 524.273C247.68 523.32 257.861 529.788 264.1 534.926C268.558 538.598 270.263 549.27 268.183 560.497C267.813 562.494 267.379 564.865 267.217 565.767C266.291 570.935 267.197 579.209 269.074 582.738C272.543 589.257 275.119 590.95 277.214 588.088C277.883 587.172 278.606 586.329 278.819 586.213C282.2 584.376 283.653 561.558 280.914 553.331C279.949 550.432 280.901 550.883 282.218 553.949C282.882 555.494 284.902 559.298 286.708 562.404C288.514 565.509 290.957 570.276 292.138 572.997C294.187 577.723 296.883 582.342 299.991 586.453C302.506 589.78 314.417 594.497 314.069 592.028C314.028 591.741 315.175 591.359 316.617 591.179C323.508 590.319 325.946 587.685 325.449 581.638C324.443 569.385 321.783 566.443 305.517 559.593C294.734 555.053 288.686 550.765 283.316 543.853L280.215 539.862L287.609 542.106C291.87 543.4 296.166 544.32 297.747 544.278C302.907 544.139 305.821 543.744 306.036 543.152C306.155 542.827 306.428 542.82 306.645 543.136C307.726 544.718 321.282 535.489 323.638 531.568C325.489 528.487 324.792 527.886 315.671 524.688C304.716 520.847 303.561 521.06 287.412 529.877C279.254 534.331 273.444 534.009 268.016 528.802C266.406 527.258 256.955 522.333 253.328 521.148L250.343 520.172L253.924 518.293C260.838 514.664 266.576 514.643 282.942 518.187C284.954 518.623 286.859 519.02 287.175 519.07C287.491 519.12 288.035 519.228 288.385 519.311C289.676 519.616 298.893 516.068 299.232 515.136C299.284 514.995 300.718 513.693 302.42 512.244C305.319 509.775 305.474 509.534 304.875 508.417C301.662 502.414 292.204 498.176 284.857 499.449C282.513 499.855 280.418 500.123 280.203 500.045C279.987 499.966 277.279 500.897 274.185 502.114C271.09 503.33 268.659 504.049 268.782 503.712C268.904 503.375 269.283 503.021 269.622 502.926C271.208 502.481 277.141 487.666 276.898 484.756C276.776 483.278 276.847 483.228 277.847 484.082C283.421 488.845 291.673 487.529 293.857 481.528C294.035 481.039 295.565 479.837 297.258 478.856C298.95 477.874 300.386 476.932 300.449 476.761C301.056 475.099 301.171 474.996 301.291 476.011C301.363 476.619 301.033 478.401 300.559 479.972C298.098 488.116 300.42 497.576 305.531 500.232C307.113 501.055 310.293 497.212 310.991 493.634C311.168 492.73 311.64 490.691 312.042 489.103C312.494 487.311 312.515 484.244 312.095 481.019C311.276 474.731 319.294 453.861 320.725 458.553C320.767 458.69 321.037 461.742 321.326 465.335C322.362 478.236 324.733 484.62 330.849 490.973L333.546 493.775L331.845 496.462L330.143 499.149L331.892 501.161C332.854 502.268 334.209 504.199 334.903 505.452C337.608 510.333 345.695 510.341 350.92 505.467C353.238 503.304 353.313 505.317 351.018 508.094C348.111 511.608 345.428 523.543 347.578 523.393C348.447 523.332 348.276 524.747 347.094 527.386C346.833 527.969 346.85 528.53 347.132 528.633C347.414 528.735 347.321 529.229 346.926 529.73C346.527 530.235 346.487 530.563 346.836 530.465C347.182 530.368 347.787 530.853 348.181 531.543C348.859 532.734 348.845 532.78 347.909 532.439C347.256 532.201 347.493 533 348.605 534.793C350.768 538.278 351.032 538.344 354.089 536.148C359.335 532.38 360.188 529.399 359.672 516.638C359.089 502.207 359.555 500.069 361.346 508.967C361.914 511.79 362.481 514.295 362.605 514.534C362.729 514.773 362.845 515.45 362.861 516.037C362.891 517.123 364.311 526.213 365.497 532.915C365.943 535.437 365.897 536.967 365.35 537.73C359.514 545.867 359.5 559.611 365.323 563.763C367.067 565.007 370.352 561.787 371.564 557.647C372.171 555.572 372.845 554.395 373.848 553.659C374.631 553.085 375.538 552.241 375.864 551.783C376.271 551.214 376.629 551.954 377 554.129C377.483 556.956 378.692 559.845 383.459 569.559C384.196 571.061 385.247 573.429 385.794 574.821C386.342 576.213 387.287 578.143 387.896 579.109C388.504 580.076 389.457 581.585 390.014 582.464C393.533 588.02 411.051 590.042 412.792 585.093C416.792 573.716 410.721 563.142 396.083 555.99C390.601 553.312 387.302 550.238 385.02 545.682C383.941 543.529 382.667 541.269 382.188 540.66C380.789 538.879 381.72 539.077 384.176 541.085C385.428 542.107 387.452 543.308 388.673 543.753C390.169 544.297 392.049 545.903 394.424 548.664C399.092 554.092 406.98 557.746 407.996 554.953C408.107 554.649 409.13 554.277 410.27 554.126C412.924 553.775 414.401 553.106 415.428 551.79C417.265 549.433 410.63 537.594 405.86 534.719C404.633 533.979 404.365 533.371 404.627 531.92C405.019 529.746 403.699 525.055 402.044 522.741C400.753 520.935 400.781 519.973 402.11 520.457C403.268 520.879 408.448 527.022 408.205 527.687C407.979 528.31 409.95 530.91 412.719 533.637C417.327 538.178 423.978 538.583 430.967 534.748L435.695 532.154L435.172 530.289C432.162 519.563 429.86 516.691 421.822 513.629C418.743 512.456 414.662 511.283 412.754 511.021C404.286 509.859 398.741 507.943 404.961 508.328C413.651 508.866 422.362 505.488 426.389 500.017L428.245 497.496L427.033 496.318C422.043 491.471 410.719 491.119 400.55 495.494C394.507 498.094 393.868 498.206 387.311 497.799C384.316 497.613 380.611 497.529 379.078 497.612C375.813 497.789 375.936 497.813 372.55 496.365C370.046 495.295 370.009 495.241 371.755 495.213C375.518 495.151 378.67 494.713 380.708 493.968C382.898 493.168 385.586 492.909 386.268 493.433C386.487 493.6 386.965 493.27 387.332 492.698C387.699 492.127 388.628 491.573 389.398 491.466C390.167 491.36 390.86 490.911 390.938 490.469C391.015 490.027 391.298 489.745 391.567 489.843C391.835 489.941 393.004 489.019 394.164 487.794C395.324 486.569 396.643 485.226 397.095 484.809C397.887 484.078 402.242 477.722 404.099 474.585C405.084 472.921 404.064 471.843 400.16 470.422C398.399 469.781 397.471 469.783 392.154 470.433C386.775 471.091 380.603 475.636 374.986 483.076C367.856 492.521 363.898 493.646 360.843 487.098C359.613 484.46 357.648 481.298 354.08 476.214C352.21 473.55 350.412 470.984 350.083 470.511C347.158 466.299 343.221 460.973 342.966 460.88C342.793 460.817 341.409 459.362 339.89 457.646C338.372 455.931 336.772 454.397 336.334 454.238C335.897 454.079 335.497 453.648 335.445 453.281C335.393 452.913 334.265 451.836 332.939 450.888C329.464 448.404 329.742 448.017 335.724 447.011C343.229 445.748 344.01 446.182 349.228 454.51C354.179 462.413 355.565 463.931 360.015 466.325C363.963 468.449 365.754 468.899 366.803 468.031C367.066 467.814 369.873 468.546 373.042 469.658L378.802 471.68L379.474 469.834C381.494 464.285 373.702 454.252 365.12 451.352C361.914 450.269 356.665 448.18 353.455 446.711L347.619 444.04L351.79 443.942C364.446 443.645 373.642 445.327 378.245 448.781C386.17 454.727 403.652 459.398 408.984 456.994C412.461 455.427 413.212 450.51 410.146 449.394C409.744 449.248 408.858 448.441 408.178 447.601C407.223 446.424 404.991 445.36 398.435 442.958C390.962 440.219 389.983 439.723 390.363 438.868C391.977 435.238 382.055 433.656 375.674 436.526C374.586 437.015 372.668 437.408 371.41 437.398C370.153 437.388 368.56 437.43 367.87 437.491C361.944 438.016 362.18 438.081 364.083 436.452C365.556 435.192 374.617 430.746 377.626 429.807C378.486 429.538 379.569 429.122 380.033 428.882C380.497 428.642 381.367 428.413 381.965 428.374C382.564 428.335 383.186 427.945 383.348 427.507C383.509 427.07 384.727 426.352 386.053 425.913C387.379 425.474 388.587 424.779 388.736 424.37C388.885 423.96 389.839 423.192 390.856 422.663C391.873 422.135 392.665 421.416 392.615 421.067C392.566 420.718 392.781 420.525 393.094 420.639C393.406 420.753 393.961 420.022 394.327 419.016C394.694 418.009 395.318 417.095 395.715 416.983C396.641 416.724 398.877 409.877 398.323 409C397.51 407.712 390.348 407.077 386.321 407.936C384.48 408.328 383.49 408.89 377.974 412.67C375.095 414.643 360.07 429.727 359.544 431.173C358.739 433.384 345.941 440.118 343.933 439.388C343.647 439.284 342.961 439.509 342.407 439.889C339.194 442.091 340.823 439.164 344.2 436.666C357.666 426.705 375.264 395.857 366.996 396.707C359.434 397.484 349.885 405.873 345.454 415.631C342.438 422.273 340.594 426.481 337.998 432.647C335.117 439.487 333.021 442.089 329.702 442.943C328.631 443.218 327.659 443.708 327.541 444.031C326.726 446.269 326.569 443.572 327.339 440.57C328.954 434.275 329.103 433.502 329.42 429.753C331.007 411.004 321.922 391.073 317.423 403.434C316.759 405.258 316.111 406.713 315.983 406.666C315.855 406.619 315.184 406.021 314.494 405.336C311.522 402.391 309.986 401.721 306.515 401.853C303.494 401.969 299.75 401.395 302.439 401.228C303.649 401.153 310.666 397.166 312.577 395.468C314.658 393.617 314.174 392.315 310.29 389.323L307.11 386.873L309.649 383.924C311.046 382.302 315.605 376.51 319.781 371.054C323.957 365.598 327.788 360.734 328.295 360.246C328.801 359.757 329.319 359.074 329.445 358.728C329.57 358.382 331.007 356.602 332.636 354.772C334.266 352.942 338.119 348.398 341.199 344.675C344.28 340.951 347.441 337.187 348.224 336.309C350.232 334.059 353.461 330.196 355.224 327.935C360.489 321.185 362.003 319.646 363.17 319.859C368.665 320.861 371.193 318.941 369.415 315.114L368.189 312.473L372.029 307.578C374.142 304.886 376.753 301.738 377.833 300.584C378.914 299.429 379.762 298.231 379.718 297.922C379.674 297.614 379.934 297.469 380.296 297.6C380.657 297.732 380.868 297.616 380.765 297.343C380.662 297.071 381.728 295.517 383.135 293.89C384.542 292.264 385.787 290.675 385.902 290.36C386.016 290.044 387.774 287.949 389.807 285.703C391.839 283.457 393.9 281.131 394.386 280.532C396.877 277.466 400.892 272.993 401.298 272.831C401.552 272.729 402.828 271.548 404.133 270.207C405.438 268.865 406.644 267.969 406.813 268.216C406.982 268.463 407.568 267.954 408.115 267.085C409.174 265.405 409.706 264.961 412.893 263.105C414.002 262.459 416.899 260.593 419.331 258.959C427.662 253.361 442.414 245.485 443.632 245.985C443.928 246.107 444.628 246.826 445.187 247.583C447.168 250.266 448.107 250.086 448.824 246.887C449.694 243.007 452.719 242.276 456.705 244.984C463.127 249.346 473.847 249.477 477.197 245.234C478.353 243.77 477.385 243.422 473.033 243.739C469.191 244.018 468.68 243.909 467.006 242.457C465.071 240.777 464.479 239.373 465.696 239.348C466.098 239.34 466.871 239.085 467.414 238.78C475.036 234.512 479.738 238.604 477.365 247.439C475.298 255.134 476.739 260.829 481.162 262.438C482.884 263.065 483.072 262.807 482.789 260.212C482.674 259.155 483.208 256.654 484.049 254.309C484.996 251.667 485.392 249.65 485.177 248.554C484.994 247.627 485.092 246.957 485.393 247.067C486.433 247.445 486.253 250.569 484.92 255.297C483.493 260.356 484.027 263.481 486.471 264.371C487.718 264.825 487.788 264.662 488.011 260.79C488.107 259.128 488.295 257.707 488.428 257.632C489.047 257.286 491.021 263.453 490.633 264.519C489.758 266.922 492.976 273.51 494.957 273.371C496.13 273.289 496.378 272.776 495.879 271.459C495.59 270.696 495.802 270.586 496.835 270.962C498.963 271.736 501.149 270.649 501.996 268.396C502.575 266.856 503.221 266.277 504.912 265.788C506.106 265.443 507.361 264.631 507.701 263.985C508.041 263.339 508.817 262.278 509.427 261.628C510.232 260.77 510.515 260.004 510.46 258.833C510.419 257.946 510.52 256.403 510.686 255.405C510.994 253.547 509.104 250.375 508.015 250.925C507.698 251.085 507.873 250.581 508.403 249.805C510.785 246.316 511.127 245.278 510.403 243.737C509.621 242.074 510.258 239.342 511.324 239.783C513.268 240.587 514.087 240.349 515.897 238.458C517.697 236.576 518.021 236.471 519.353 237.338C521.301 238.606 522.486 236.194 520.595 234.808C519.945 234.332 519.464 233.327 519.526 232.575C519.609 231.567 519.27 231.159 518.233 231.023C517.46 230.921 516.787 230.549 516.737 230.195C516.57 229.01 514.58 228.759 514.116 229.864C513.868 230.452 513.774 229.653 513.905 228.088C514.231 224.212 513.305 222.138 510.489 220.436C508.338 219.136 508.181 218.859 508.839 217.526C511.221 212.706 517.525 206.618 519.421 207.308C521.791 208.171 524.638 205.269 522.768 203.899C522.111 203.417 521.7 202.4 521.817 201.545C521.986 200.315 521.715 199.983 520.34 199.732C518.892 199.468 518.757 199.268 519.379 198.299C519.946 197.417 519.801 196.981 518.711 196.287C516.262 194.726 513.879 196.295 513.204 199.913C513.04 200.787 512.164 201.691 510.75 202.444C509.429 203.147 508.673 203.278 508.858 202.77C509.027 202.305 508.946 201.247 508.678 200.419C508.279 199.19 508.389 198.736 509.273 197.948C511.69 195.794 511.287 193.433 507.893 189.855C504.28 186.047 499.466 191.795 499.216 200.216C499.161 202.041 498.198 201.172 497.173 198.372C496.028 195.247 496.037 195.216 498.568 193.505C502.528 190.829 502.347 186.489 498.362 188.551C495.471 190.047 493.735 189.907 493.955 188.194C494.399 184.728 490.202 185.232 486.789 189.055C482.549 193.802 482.213 197.348 485.616 201.411C487.632 203.818 489.379 208.155 490.328 213.107L490.877 215.978L489.205 216.983C486.799 218.429 486.701 219.357 488.871 220.147C491.133 220.97 491.01 221.509 488.105 223.514C484.356 226.1 483.778 226.203 483.256 224.376C482.761 222.648 480.822 224.5 481.096 226.439C481.223 227.337 478.515 228.838 470.994 232.039C465.307 234.459 464.431 234.579 465.588 232.776C466.002 232.132 466.245 230.489 466.128 229.125C465.944 226.98 466.156 226.233 467.702 223.569C469.791 219.97 469.787 219.754 467.637 220.051C466.262 220.241 466.025 220.092 466.081 219.07C466.415 212.953 465.365 211.456 461.646 212.744C458.659 213.779 462.343 210.106 465.458 208.943C468.009 207.991 466.257 205.252 462.72 204.662C460.881 204.354 460.794 204.266 461.99 203.92C462.764 203.696 464.738 204.085 466.579 204.824C470.848 206.538 472.545 206.035 472.073 203.196C471.562 200.131 466.855 199.729 465.788 202.66C465.65 203.039 465.218 203.041 464.828 202.664C463.922 201.789 461.228 201.592 461.343 202.409C461.391 202.749 460.992 202.902 460.456 202.749C459.921 202.595 457.799 202.028 455.741 201.488C453.237 200.83 452.082 200.282 452.246 199.83C452.381 199.459 452.657 199.265 452.858 199.4C453.059 199.535 453.645 199.616 454.159 199.58C454.673 199.544 455.842 199.589 456.758 199.68C457.825 199.786 458.433 199.509 458.451 198.91C458.494 197.452 466.126 198.217 472.013 200.27C477.722 202.261 479.088 201.917 478.002 198.762C477.205 196.445 474.276 195.219 472.887 196.62C472.359 197.152 472.02 197.869 472.134 198.212C472.248 198.555 471.802 198.439 471.144 197.954C470.486 197.469 469.552 196.924 469.069 196.742C467.103 196.005 470.739 191.967 474.338 190.888C478.713 189.578 480.259 186.13 476.349 186.404C475.795 186.443 475.369 185.881 475.297 185.018C475.175 183.551 470.407 181.501 468.414 182.06C466.733 182.531 467.469 181.303 469.431 180.364C470.678 179.767 472.211 179.591 473.185 179.932C475.717 180.82 477.628 179.928 476.962 178.171C475.535 174.404 471.136 173.271 470.686 176.555C470.545 177.585 470.128 178.221 469.498 178.366C468.964 178.49 467.433 179.424 466.095 180.442C464.456 181.69 463.154 182.176 462.099 181.933C460.401 181.543 461.126 180.807 463.062 180.956C463.942 181.024 463.868 180.889 462.771 180.429C460.651 179.54 457.451 181.402 457.619 183.427C457.687 184.244 457.393 185.407 456.965 186.012C456.523 186.636 456.434 187.201 456.759 187.32C457.073 187.434 457.583 186.837 457.89 185.992C458.274 184.938 458.645 184.645 459.072 185.058C459.568 185.536 459.42 186.055 458.352 187.592C457.126 189.355 455.817 190.019 456.327 188.619C456.443 188.3 456.093 187.663 455.55 187.203C453.708 185.645 461.384 170.852 463.436 172.007C464.392 172.544 464.674 172.356 465.237 170.811C465.981 168.766 465.337 166.476 464.357 167.683C464.032 168.084 463.962 167.844 464.194 167.125C464.418 166.431 464.533 164.931 464.449 163.79C464.365 162.65 464.487 161.195 464.719 160.557C464.951 159.92 464.748 158.788 464.269 158.041C463.11 156.238 462.936 152.596 463.839 149.027L464.573 146.123L467.523 147.103C473.673 149.144 474.897 149.178 477.497 147.377C479.198 146.198 478.915 145.034 476.571 143.563C474.823 142.466 471.991 143.231 470.618 145.171C469.823 146.293 464.287 145.062 464.724 143.861C464.823 143.59 465.549 143.617 466.339 143.92C467.524 144.374 467.96 144.153 468.83 142.659C469.41 141.663 470.843 140.124 472.015 139.238C477.327 135.224 481.382 128.177 480.618 124.287C480.248 122.401 477.167 120.821 475.966 121.901C475.499 122.321 475.355 121.984 475.523 120.864C475.659 119.952 475.329 118.679 474.79 118.035L473.809 116.863L475.253 116.833C477.374 116.789 478.766 117.697 481.468 120.888C485.604 125.772 491.906 128.755 497.29 128.378C498.65 128.283 499.361 126.208 498.305 125.416C497.846 125.071 499.485 125.486 501.946 126.337C506.848 128.032 509.997 127.907 510.694 125.993C511.062 124.98 510.825 124.811 508.646 124.53C504.807 124.035 504.691 123.945 505.742 122.275C506.645 120.843 506.605 120.772 504.805 120.592C502.932 120.405 502.931 120.401 504.388 119.426C505.192 118.888 506.177 117.551 506.575 116.456L507.3 114.464L511.705 115.707C516.231 116.984 519.654 116.791 520.921 115.185C521.518 114.429 521.175 114.222 518.247 113.572L514.888 112.826L516.261 110.945C517.016 109.911 518.123 108.742 518.72 108.347C521.925 106.23 521.629 101.71 518.204 100.464C517.3 100.135 516.654 99.6069 516.769 99.2909C517.803 96.452 514.517 92.5849 511.929 93.5941C510.265 94.243 508.865 92.3547 509.359 90.1277C509.91 87.6426 509.507 83.913 508.64 83.4847C506.963 82.6562 505.129 82.4161 503.709 82.8394C501.319 83.552 499.465 82.8169 498.37 80.7228C496.717 77.5634 493.775 77.7454 490.785 81.1919L489.537 82.631L490.117 80.904C490.832 78.7707 489.789 78.2649 487.207 79.4926C486.168 79.9865 484.742 80.3519 484.038 80.3046C483.206 80.2487 482.304 80.9061 481.458 82.184C480.742 83.2649 479.874 84.2429 479.529 84.3572C479.184 84.4716 478.592 85.3009 478.214 86.2002C477.644 87.5557 477.348 87.7049 476.486 87.0731C475.182 86.1188 473.567 86.2003 473.189 87.2396C473.031 87.6744 472.398 88.2534 471.783 88.5263C471.022 88.8638 470.567 89.6185 470.36 90.8863C470.192 91.9114 469.644 93.1514 469.14 93.6419C468.395 94.3683 468.322 93.9879 468.749 91.5887C469.151 89.3336 469.041 88.6089 468.279 88.494C467.174 88.3276 467.988 86.601 470.634 83.5017C471.391 82.6146 472.501 81.0341 473.1 79.9894C473.699 78.9448 474.757 77.971 475.451 77.8255C477.12 77.4755 478.007 74.9055 477.234 72.6623L476.62 70.883L474.644 72.2778C472.284 73.9444 471.497 75.7166 472.713 76.6289C473.595 77.2906 472.481 79.4873 470.303 81.3835C469.937 81.7019 468.886 83.5642 467.966 85.5221L466.295 89.0818L465.56 87.1403C465.124 85.9906 465.092 84.4641 465.48 83.3972C465.841 82.4063 465.93 81.2951 465.68 80.9279C464.956 79.8689 462.977 81.8123 462.514 84.0356C461.905 86.9686 459.865 88.372 459.02 86.4392C458.684 85.6689 458.179 85.1672 457.899 85.3243C456.699 85.9959 458 84.2219 459.504 83.1342C462.367 81.0641 461.161 77.8486 456.752 75.7928C456.162 75.5177 455.724 74.7423 455.78 74.0698C455.849 73.2279 455.341 72.6507 454.147 72.2163C453.194 71.8694 452.271 71.2092 452.097 70.7494C451.718 69.7494 447.495 70.0101 445.583 71.1515C443.828 72.1997 442.684 76.0043 443.408 78.3906C443.733 79.4649 443.846 81.2825 443.659 82.4296C442.997 86.4799 446.154 92.5605 449.564 93.8016C450.112 94.001 450.61 94.5172 450.671 94.9487C450.814 95.9598 447.073 94.0535 445.844 92.4886C445.357 91.8694 444.598 91.3235 444.156 91.2757C443.714 91.2278 442.879 89.8271 442.301 88.1632C441.722 86.4992 440.701 84.9019 440.032 84.6138C436.998 83.3067 436.586 82.5113 436.418 77.6414C436.148 69.8157 428.705 64.3251 426.517 70.3376C426.441 70.5449 425.474 71.3268 424.367 72.0753C423.259 72.8237 422.174 73.9015 421.955 74.4703C421.133 76.6066 418.923 78.2644 418.999 76.6873C419.317 70.1154 418.529 68.9309 416.87 73.4877C416.297 75.0628 415.732 75.8507 415.293 75.6906C414.916 75.5534 413.834 75.7112 412.888 76.0411C409.858 77.0981 408.376 76.1345 406.673 72C405.82 69.9279 405.524 68.6268 406.017 69.1085C410.21 73.2099 417.744 70.3899 417.274 64.895C417.088 62.7254 417.249 62.1138 418.324 60.8957C419.022 60.1047 419.518 59.2599 419.427 59.0183C419.335 58.7767 419.158 58.8325 419.033 59.1424C418.909 59.4522 418.89 57.9989 418.991 55.9128C419.275 50.0712 415.424 45.7649 413.831 50.1427C413.674 50.5726 413.057 51.1412 412.46 51.4062C411.863 51.6713 411.081 52.6938 410.722 53.6786C410.162 55.2185 409.863 55.3937 408.591 54.9306C407.692 54.6034 406.671 54.7848 405.989 55.3928C402.803 58.2329 402.886 55.7003 406.091 52.2591C407.439 50.812 408.716 49.1577 408.928 48.5828C409.141 48.008 409.82 47.5357 410.438 47.5333C413.794 47.5204 415.672 40.7988 412.427 40.4169C409.485 40.0707 406.112 43.2505 407.954 44.6326C409.519 45.8071 406.347 51.2113 404.407 50.6771C402.712 50.2106 402.392 50.1915 401.802 50.5218C401.488 50.698 400.305 50.5055 399.175 50.0941C396.628 49.167 396.899 47.8733 399.86 46.8204C402.362 45.9312 403.819 42.9932 402.368 41.7657C401.882 41.3553 401.587 40.2752 401.712 39.3656C401.836 38.4559 401.581 37.5816 401.144 37.4226C400.58 37.2171 400.604 36.4369 401.228 34.7209C401.733 33.3354 401.884 31.8539 401.584 31.2409C401.297 30.6539 401.191 29.8201 401.348 29.3881C401.601 28.6915 400.171 25.7938 399.442 25.5287C399.288 25.4726 398.208 26.2688 397.043 27.2979C395.252 28.879 394.599 29.073 392.831 28.5494C389.991 27.7084 388.296 28.8284 385.902 33.1296C384.586 35.4932 383.745 36.5161 383.477 36.0774C381.615 33.0236 378.554 35.5502 379.415 39.4308C379.887 41.5599 379.88 41.5782 378.684 41.5828C377.701 41.5866 377.276 42.142 376.388 44.5841C375.512 46.9888 375.077 47.5687 374.183 47.52C373.57 47.4866 372.218 48.4438 371.179 49.647C369.759 51.2911 369.14 51.6363 368.688 51.036C368.023 50.1538 366.083 49.8533 364.701 50.4183C363.3 50.9912 364.575 48.2171 366.955 45.5128C369.073 43.1069 370.209 40.6395 370.859 37.0301C371.374 34.1788 370.182 34.4192 368.517 37.5028C366.573 41.1035 366.467 40.9536 367.165 35.5848C367.819 30.5482 367.605 26.8206 366.608 25.8568C365.64 24.9225 362.625 25.4229 361.839 26.6482C360.994 27.9641 360.904 27.9601 359.801 26.5559C357.922 24.1643 355.467 24.8425 354.659 27.9766C354.064 30.2875 353.768 30.7529 353.05 30.5099C349.814 29.4146 348.004 33.57 349.687 38.2284C350.321 39.9816 350.375 40.7882 349.846 40.5957C349.405 40.4351 348.895 39.9108 348.713 39.4306C348.111 37.8418 344.195 37.3003 343.037 38.6458C342.466 39.3099 341.694 39.7423 341.321 39.6068C340.866 39.4411 340.273 40.3805 339.512 42.4714L338.379 45.5825L335.449 44.5161C333.068 43.6494 332.327 43.6436 331.493 44.4853C330.872 45.1115 330.67 45.5952 330.983 45.7089C331.267 45.8123 331.694 46.3643 331.933 46.9356C333.313 50.2424 335.616 51.9757 341.452 54.0998C346.573 55.9634 347.213 56.339 346.873 57.2773C346.66 57.8626 347.074 59.7289 347.793 61.4248C348.6 63.3303 348.897 65.0641 348.569 65.9637C348.036 67.4293 348.818 70.5214 349.814 70.8839C350.109 70.9912 350.048 71.9089 349.679 72.9233C348.393 76.4585 352.136 80.7267 355.159 79.1709C358.194 77.6085 360.256 80.5295 358.076 83.3052C356.904 84.7981 355.983 84.9303 355.8 83.6322C355.368 80.5709 353.047 83.595 353.264 86.9369C353.359 88.4134 353.135 89.0037 352.027 90.1864C350.689 91.616 349.462 91.8713 349.915 90.6258C350.427 89.2192 349.53 86.2575 348.704 86.6243C348.126 86.8805 347.884 86.0543 347.899 83.8774C347.919 80.8507 346.759 79.3127 345.387 80.5467C345.08 80.8226 344.403 80.8932 343.882 80.7036C341.178 79.7197 339.151 82.3303 335.802 91.1066L335.226 92.6145L334.269 90.2407C333.143 87.4499 333.638 85.6928 337.186 79.8957C340.442 74.5742 343.288 64.9853 341.775 64.4345C341.511 64.3387 341.15 64.6607 340.972 65.1502C340.794 65.6396 339.264 67.5915 337.572 69.4876C335.012 72.3569 334.209 73.7237 332.784 77.6371C331.502 81.16 330.935 82.1952 330.523 81.7652C329.711 80.9179 326.936 68.6186 326.165 62.4524C325.797 59.5088 325.293 57.0263 325.044 56.9358C324.796 56.8453 324.718 56.4208 324.872 55.9923C325.026 55.5639 325.074 54.2337 324.979 53.0363C324.709 49.6461 326.426 44.2415 328.691 41.3514C333.354 35.4014 333.285 32.5747 328.575 36.5528C326.137 38.6111 326.099 38.6177 326.284 36.9522C326.774 32.5291 327.461 31.6918 332.933 28.8498C338.558 25.9289 341.239 22.9296 336.586 24.7638C333.4 26.0198 333.28 25.9019 335.299 23.4982C340.964 16.754 341.242 7.16403 335.83 5.19428C334.752 4.80206 333.871 3.93562 333.554 2.95659C332.379 -0.67003 325.736 0.246045 324.284 4.23488C323.848 5.43355 323.354 5.7124 321.965 5.54352C318.447 5.11574 316.348 10.0686 316.781 17.7749C316.926 20.3492 316.761 22.2354 316.39 22.2429C315.948 22.2517 315.564 23.358 315.152 25.8108C314.473 29.8582 313.837 30.7509 313.78 27.7359C313.744 25.7836 313.396 23.9926 312.62 21.7687C312.111 20.3078 306.992 17.6828 305.332 18.031C303.836 18.3447 303.375 19.1967 303.29 21.7996C303.239 23.3693 303.084 23.5104 301.731 23.2158C299.683 22.7699 297.258 25.0801 297.565 27.1858C297.684 28.0038 297.432 29.6335 297.005 30.8074C296.36 32.5786 296.442 33.1287 297.485 34.0401C298.378 34.8204 298.589 35.5673 298.215 36.6201C297.842 37.671 298.036 38.361 298.883 38.993C300.016 39.8389 299.943 39.8975 297.448 40.1456C294.869 40.402 292.891 41.7098 294.304 42.2239C297.846 43.5133 301.354 43.1936 305.076 41.2422C310.974 38.1508 312.054 38.5853 316.439 45.8096C319.992 51.6644 319.845 52.2382 314.998 51.4344C314.211 51.3038 311.804 51.5888 309.649 52.0677C305.084 53.0823 303.574 52.7505 301.177 50.2064C297.966 46.7981 296.596 47.9369 298.217 52.6659C301.314 61.6994 307.275 63.922 312.829 58.1142C316.6 54.1697 319.183 56.3091 320.443 64.4216C320.794 66.6809 321.179 68.7236 321.299 68.9609C321.751 69.8582 322.474 74.3212 322.148 74.2024C321.96 74.134 320.994 72.5018 320.001 70.5753C318.044 66.7768 316.598 65.9683 315.983 68.3289C315.741 69.2583 315.443 69.5554 315.164 69.1471C314.495 68.1675 314.328 71.2878 314.884 74.3773C315.406 77.2732 317.329 82.2998 318.026 82.5909C318.733 82.8854 319.817 85.4956 320.361 88.2126C321.175 92.271 323.436 95.106 326.85 96.3486L329.789 97.4185L330.615 101.949C331.749 108.167 331.494 126.224 330.223 129.716C329.542 131.586 326.955 128.091 324.835 122.439C323.306 118.362 321.872 115.6 320.963 114.98C320.168 114.438 318.721 112.938 317.746 111.645C316.05 109.397 312.093 105.799 310.768 105.301C309.19 104.707 309.088 107.529 310.488 113.008C311.317 116.252 312.186 119.843 312.42 120.988C313.114 124.381 318.142 129.754 321.969 131.191C323.872 131.905 326.221 134.802 326.552 136.841C326.627 137.302 327.278 138.283 327.998 139.02C329.412 140.468 329.385 142.233 327.79 152.358C327.357 155.107 326.714 159.553 326.36 162.239C325.473 168.961 325.445 169.008 320.698 171.791C315.55 174.809 307.763 183.082 306.308 187.081C305.935 188.106 301.899 193.783 299.717 196.353L298.146 198.202L299.639 193.929C303.647 182.457 304.089 169.939 300.686 164.241C297.795 159.4 297.422 159.462 294.511 165.26C293.688 166.899 292.64 168.499 292.181 168.816C291.636 169.193 291.429 169.729 291.585 170.361C291.716 170.893 291.352 173.519 290.775 176.196C290.199 178.872 289.823 181.431 289.941 181.881C290.058 182.332 289.98 183.736 289.767 185.002C289.554 186.268 289.428 187.808 289.487 188.424C289.546 189.039 289.557 191.59 289.51 194.092C289.463 196.594 289.452 199.679 289.485 200.946C289.555 203.665 286.639 212.538 283.905 217.929L282.027 221.631L280.544 218.847C270.638 200.248 268.036 183.073 274.09 176.255C274.909 175.332 276.759 172.945 278.201 170.95C279.642 168.956 281.146 167.101 281.542 166.827C281.938 166.554 283.466 164.573 284.937 162.426C286.408 160.278 288.48 157.65 289.541 156.585C292.963 153.15 298.662 139.841 299.503 133.319C301.011 121.63 299.692 119.986 292.116 124.116C280.192 130.615 276.498 135.392 273.768 147.845C273.217 150.358 271.8 156.184 270.618 160.792C268.157 170.39 266.312 178.316 266.08 180.28C265.974 181.185 265.401 180.316 264.344 177.643C262.814 173.777 262.804 173.516 264.02 169.07C265.941 162.042 267.041 154.992 266.805 151.224C266.687 149.35 266.885 146.549 267.243 145C271.068 128.492 266.625 110.864 257.396 105.936C252.831 103.499 249.204 108.195 247.83 118.322C247.705 119.246 247.465 120.744 247.298 121.652C246.693 124.93 246.642 129.534 247.105 139.061C247.324 143.562 249.392 150.447 250.85 151.525C251.488 151.997 251.948 153.682 252.061 155.957C252.161 157.977 252.755 161.737 253.382 164.315C254.008 166.892 254.394 169.071 254.241 169.157C253.788 169.411 246.617 160.906 246.818 160.354C247.185 159.346 245.103 154.11 243.965 153.178C243.322 152.652 242.135 151.234 241.329 150.028C240.522 148.823 239.713 147.782 239.53 147.715C239.348 147.649 238.582 146.923 237.829 146.101C226.421 133.668 205.043 132.11 209.175 144.014C209.386 144.621 209.937 146.703 210.401 148.64C210.864 150.578 211.444 152.249 211.688 152.352C211.933 152.456 212.618 153.366 213.21 154.374C214.733 156.966 220.027 160.32 226.12 162.552L231.333 164.462L228.674 166.594C226.062 168.688 225.491 170.086 227.019 170.643C227.444 170.797 227.702 171.171 227.592 171.472C227.043 172.979 236.02 177.511 237.696 176.573C238.304 176.232 238.7 177.523 239.144 181.29C239.903 187.744 242.319 194.573 244.857 197.445C247.258 200.16 245.528 199.775 241.484 196.695C234.149 191.106 220.042 190.546 218.142 195.768C217.49 197.56 220.781 206.229 222.749 207.905C223.676 208.695 224.673 209.811 224.965 210.385C226.126 212.673 232.926 217.346 235.892 217.897C236.518 218.013 238.423 218.41 240.125 218.78C241.827 219.151 244.658 219.173 246.418 218.83C249.911 218.15 251.043 218.145 254.237 218.793C255.403 219.03 256.434 219.012 256.528 218.753C256.622 218.494 257.233 218.623 257.886 219.039L259.073 219.795L257.269 221.48C254.658 223.919 252.521 230.833 253.401 233.993C253.548 234.521 253.869 235.799 254.114 236.833L254.56 238.714L257.41 238.519C263.326 238.115 267.078 234.378 269.033 226.943C270.03 223.148 270.179 222.888 270.975 223.536C271.449 223.922 272.919 225.016 274.243 225.967C275.566 226.918 277.274 228.608 278.037 229.722C278.8 230.837 280.533 233.079 281.888 234.706C283.243 236.333 285.138 239.383 286.1 241.485C287.061 243.586 288.428 246.339 289.137 247.603C292.12 252.924 300.322 276.611 299.367 277.146C298.974 277.366 291.414 269.282 290.758 267.94C282.706 251.474 267.55 241.099 254.511 243.128C246.3 244.405 257.291 258.58 271.953 265.622C286.753 272.731 288.573 275.07 279.191 274.928C274.664 274.86 266.345 276.02 265.66 276.815C265.218 277.327 258.968 279.513 258.466 279.33C257.298 278.905 247.37 283.952 246.915 285.202C246.734 285.7 246.138 286.306 245.591 286.549C244.31 287.117 239.045 300.137 239.317 302.063C239.845 305.803 251.806 307.451 256.545 304.437C259.587 302.502 261.055 301.401 261.229 300.926C261.323 300.667 262.418 299.611 263.663 298.579C264.908 297.548 266.098 296.37 266.308 295.961C266.518 295.552 267.37 294.636 268.201 293.925C269.032 293.214 269.797 292.398 269.902 292.11C270.248 291.16 275.401 286.903 275.96 287.106C276.261 287.216 276.259 287.989 275.955 288.825C275.651 289.66 275.573 290.593 275.782 290.899C275.991 291.204 275.754 293.887 275.256 296.86C273.911 304.888 276.808 313.969 280.389 312.951C286.045 311.342 288.698 303.182 287.023 292.542C285.019 279.813 287.312 275.88 293.788 280.94C300.563 286.234 301.91 292.29 298.47 301.993C297.009 306.112 293.593 316.601 290.878 325.302C288.163 334.003 284.253 345.897 282.19 351.735C280.126 357.572 277.897 364.054 277.236 366.139C276.575 368.224 274.723 373.733 273.121 378.382C271.519 383.031 269.624 389 268.91 391.647C267.561 396.645 267.026 397.747 267.053 395.477C267.174 385.111 255.819 361.428 247.803 355.329C242.029 350.937 241.512 351.272 241.089 359.677C240.539 370.606 242.611 375.647 251.335 384.605C253.191 386.51 255.06 388.738 255.489 389.556C255.918 390.374 257.247 391.978 258.442 393.12C259.637 394.263 261.162 396.196 261.831 397.416L263.048 399.635L261.378 400.329C260.026 400.891 259.145 400.742 256.739 399.546C248.309 395.357 241.536 399.427 248.344 404.59C250.752 406.417 250.022 406.999 246.178 406.319C239.985 405.222 236.506 406.924 230.954 413.769C225.673 420.279 237.289 427.234 246.073 422.82C246.76 422.475 248.2 421.799 249.274 421.318C250.347 420.836 251.027 420.361 250.785 420.261C250.543 420.161 250.877 419.946 251.527 419.783C252.178 419.62 252.666 419.173 252.612 418.79C252.558 418.406 252.783 418.191 253.113 418.311C253.442 418.431 253.672 418.245 253.623 417.899C253.574 417.552 254.18 416.876 254.97 416.397C255.76 415.918 256.842 414.916 257.375 414.171C258.327 412.837 256.88 423.354 255.66 426.637C255.406 427.319 254.747 429.775 254.195 432.093C253.643 434.411 252.371 439.022 251.367 442.338C250.363 445.654 249.046 450.407 248.44 452.899C247.833 455.391 246.404 460.017 245.264 463.179L243.19 468.928L240.427 469.43C238.907 469.706 235.649 471.058 233.187 472.434C229.317 474.597 226.081 475.163 228.992 473.168C229.55 472.785 230.17 472.167 230.37 471.795C230.569 471.422 232.336 469.322 234.295 467.129C241.856 458.663 244.142 452.007 242.623 442.882C241.776 437.791 233.332 441.838 226.988 450.376L222.66 456.2L217.219 471.483C214.226 479.889 211.217 487.672 210.531 488.779L209.284 490.791L206.178 482.369L203.071 473.946L205.975 466.44C207.572 462.312 209.203 457.467 209.598 455.674C209.994 453.88 210.626 451.148 211.003 449.603C212.723 442.559 212.946 440.306 212.395 435.583C211.086 424.374 206.606 415.039 203.02 416.049C198.371 417.358 192.94 431.564 194.664 437.907C194.839 438.552 195.06 440.665 195.154 442.604C195.248 444.542 195.998 448.033 196.821 450.36C199.282 457.326 200.269 468.088 197.904 462.179C196.29 458.146 194.586 454.268 192.819 450.606C192.03 448.972 190.903 446.577 190.314 445.285C189.126 442.678 185.58 438.277 183.71 437.088C183.046 436.665 181.103 435.283 179.393 434.015C174.941 430.715 171.948 429.818 168.236 430.671C166.527 431.063 164.795 431.263 164.387 431.115C162.347 430.372 150.43 436.855 149.589 439.165C146.856 446.674 159.824 453.243 173.428 451.241C180.169 450.248 182.539 451.329 186.447 457.176L188.019 459.528L185.393 458.401C178.433 455.414 169.47 454.289 167.407 456.144C167.091 456.428 165.899 456.109 164.618 455.398C159.732 452.685 157.692 454.205 157.968 460.352C158.18 465.064 157.682 466.814 156.741 464.661C154.516 459.567 142.226 467.351 138.039 476.505L136.145 480.647L135.42 476.13C134.597 471.004 130.514 459.982 128.956 458.684C128.388 458.21 127.462 457.049 126.9 456.103C126.337 455.157 124.824 453.529 123.536 452.486C122.249 451.443 121.15 450.265 121.094 449.867C120.945 448.814 118.838 448.246 117.303 448.844C112.419 450.75 112.664 476.412 117.584 478.203C117.864 478.305 118.563 479.443 119.137 480.733C119.711 482.023 122.59 485.993 125.534 489.556C128.479 493.118 131.047 496.426 131.241 496.908C131.435 497.389 132.213 498.708 132.97 499.839C134.684 502.4 133.452 502.093 129.716 499.028C125.784 495.804 108.814 489.607 106.736 490.637C105.948 491.029 104.957 491.231 104.535 491.087C101.782 490.147 92.9501 496.356 91.5442 500.219C89.1424 506.818 108.648 516.117 116.486 512.109C117.453 511.614 118.503 511.226 118.819 511.248C119.134 511.269 119.968 511.02 120.67 510.695C121.373 510.37 121.88 510.315 121.797 510.571C121.714 510.828 122.098 510.727 122.65 510.346C123.955 509.447 126.668 508.812 126.432 509.462C126.331 509.739 125.899 510.161 125.472 510.4C120.409 513.235 114.291 530.396 116.83 534.64C117.581 535.896 117.505 535.989 113.684 538.496C106.177 543.421 99.3828 548.643 95.4744 552.492C91.7554 556.154 91.54 556.274 91.5633 554.657C91.7178 543.92 90.9218 538.198 88.4031 531.94C85.9522 525.85 83.6621 523.905 76.0634 521.456C73.3256 520.574 73.1747 520.609 72.5806 522.246C72.2393 523.188 71.044 526.032 69.9248 528.566C65.0188 539.677 69.6182 549.595 84.251 559.459C85.7064 560.441 79.4691 561.993 71.2007 562.708C70.0099 562.811 68.1836 562.984 67.1421 563.093C63.622 563.461 63.2379 563.32 62.0534 561.22C57.8638 553.793 46.1416 548.463 40.5055 551.422C31.6294 556.081 31.4827 564.896 40.233 567.795C42.8973 568.678 43.0558 568.819 41.7277 569.136C39.8923 569.573 30.374 572.373 22.8146 574.698C16.4084 576.669 13.4703 579.439 9.94134 586.836C9.10194 588.596 8.07994 595.287 8.44853 596.61C9.16128 599.168 24.6326 598.979 25.5709 596.401C25.729 595.967 26.0425 595.679 26.2676 595.76C26.4927 595.842 27.4395 594.681 28.3715 593.179C29.3036 591.677 30.8323 589.54 31.7688 588.43C32.7053 587.319 33.5164 586.254 33.5712 586.064C33.626 585.874 34.739 585.247 36.0446 584.671C37.3502 584.095 38.5752 583.443 38.7669 583.222C38.9586 583.001 39.4463 582.941 39.8505 583.088C40.2547 583.235 41.9142 582.367 43.5382 581.158C45.1622 579.949 46.4036 579.212 46.2968 579.52C46.1894 579.827 46.3866 579.85 46.7338 579.57C47.494 578.957 51.9207 577.388 51.7772 577.782C51.7217 577.935 50.9678 578.91 50.102 579.949C49.2362 580.988 48.0874 582.908 47.5492 584.215C47.0109 585.522 45.6364 588.153 44.4945 590.063C42.2254 593.858 40.0057 599.596 39.9541 601.799C39.9153 603.454 36.268 603.466 30.5773 601.831C26.3892 600.627 21.6893 601.722 18.8603 604.56C15.9684 607.462 23.2142 614.346 32.9191 617.917C40.2309 620.608 39.7166 621.145 28.0209 623.034C19.5453 624.403 18.5385 624.76 13.9519 628.026C8.10416 632.19 -0.0255948 645.458 0.628095 649.77C0.950308 651.896 10.2405 652.236 14.0154 650.26C14.5294 649.991 16.0768 649.548 17.4542 649.275C21.8636 648.402 26.7337 645.258 31.4455 640.243C33.8745 637.657 36.0875 635.518 36.3631 635.489C36.6388 635.46 37.0056 635.049 37.1782 634.575C37.559 633.528 41.3358 629.578 42.1818 629.341C42.5151 629.248 42.572 629.764 42.3082 630.489C42.0444 631.214 42.1328 631.722 42.5046 631.618C42.9147 631.503 42.8164 632.352 42.2547 633.775C41.364 636.033 41.3413 636.046 41.6596 634.129C41.9273 632.516 41.2864 633.361 38.3068 638.546C36.2808 642.071 32.8758 647.808 30.7401 651.294C21.2304 666.815 14.9032 681.342 15.3422 686.646C15.4455 687.894 15.3149 689.035 15.052 689.183C14.7891 689.33 14.8957 689.567 15.2889 689.71C15.6821 689.854 15.8124 690.078 15.5784 690.209C15.3445 690.34 15.6473 691.639 16.2512 693.096C17.9901 697.291 18.1712 697.58 19.056 697.562C19.5606 697.552 19.6431 697.768 19.2623 698.112C18.3804 698.905 23.5454 700.678 24.6471 699.96L24.6471 699.96ZM60.4432 618.184C60.4489 612.672 67.4808 596.631 73.2752 588.912C73.3894 588.76 73.7483 588.256 74.0727 587.793C74.397 587.33 75.1219 586.325 75.6836 585.561C76.2452 584.796 77.468 582.55 78.4009 580.568C79.3338 578.587 80.3219 576.886 80.5965 576.787C80.8712 576.689 81.8939 575.491 82.8691 574.125L84.6422 571.641L84.3453 574.469C83.2463 584.939 77.403 598.339 70.2334 606.83C68.0708 609.392 64.2483 615.847 64.3322 616.796C64.3786 617.32 64.1624 618.952 63.8519 620.422C62.9692 624.602 60.4383 622.941 60.4432 618.184V618.184ZM56.8174 592.082C57.4348 587.973 58.0668 585.671 59.1035 583.754C59.8916 582.297 60.6402 580.746 60.767 580.308C60.894 579.869 61.1966 579.583 61.4396 579.672C61.6826 579.76 62.5335 578.977 63.3303 577.931C64.1272 576.885 64.925 576.243 65.1033 576.504C65.2817 576.765 65.5447 576.657 65.6878 576.263C66.028 575.329 70.5244 571.738 71.1115 571.933C71.6676 572.116 77.7995 570.042 78.6578 569.379C79.8454 568.463 78.76 570.402 77.0114 572.321C75.8262 573.622 75.4121 574.424 75.7 574.862C75.9523 575.246 75.7691 575.939 75.2427 576.592C74.4055 577.631 74.383 577.625 74.7609 576.475C75.6897 573.649 68.715 582.503 63.3656 590.942C62.4673 592.359 61.3334 594.008 60.8458 594.605C60.3582 595.203 59.0302 596.921 57.8949 598.424C55.4568 601.65 55.4159 601.41 56.8174 592.082V592.082ZM97.9411 569.873C94.4949 567.224 94.4722 566.396 97.7303 562.228C101.474 557.44 105.209 553.324 105.662 553.488C105.902 553.576 106.215 553.331 106.355 552.944C106.496 552.557 107.952 551.184 109.591 549.892C111.23 548.601 112.623 547.402 112.686 547.229C112.832 546.827 116.488 544.425 119.558 542.715C120.861 541.989 122.669 540.628 123.574 539.69C124.48 538.753 125.676 537.954 126.231 537.915C126.787 537.876 127.816 537.554 128.518 537.199C133.561 534.648 135.311 533.85 139.374 532.246C141.899 531.25 144.754 530.009 145.718 529.488C148.269 528.111 148.472 528.466 147.466 532.545C146.967 534.567 146.534 536.987 146.504 537.924C146.474 538.862 145.6 542.687 144.564 546.425C143.527 550.162 142.324 554.988 141.89 557.149C140.825 562.453 140.141 563.343 136.689 563.915C135.077 564.182 133.655 564.685 133.529 565.031C133.403 565.378 133.025 565.562 132.689 565.439C131.232 564.909 127.147 569.05 123.211 575.044L120.224 579.593L110.556 575.866C103.541 573.162 100.078 571.517 97.9411 569.873V569.873ZM191.861 590.852C192.332 588.44 192.498 583.633 192.212 580.649C192.131 579.793 192.363 579.417 193.002 579.373C195.025 579.231 195.182 571.159 193.194 569.478C192.7 569.06 192.384 568.48 192.491 568.187C192.981 566.84 185.506 555.956 183.035 554.419C182.342 553.988 181.299 553.019 180.716 552.266C179.417 550.584 173.825 544.475 173.467 544.344C172.074 543.837 169.353 539.702 170.583 539.962C172.801 540.432 178.369 540.259 178.567 539.713C178.666 539.442 178.909 539.338 179.107 539.482C182.824 542.192 198.959 539.342 201.683 535.494C204.101 532.079 211.537 540.98 210.466 546.006C208.042 557.38 204.752 569.553 201.415 579.497C199.208 586.076 196.736 593.663 195.923 596.356L194.445 601.253L192.896 597.368C191.751 594.496 191.481 592.797 191.861 590.852ZM157.505 577.563C154.2 575.81 152.185 572.499 151.919 568.385C151.823 566.898 151.492 562.576 151.183 558.782C150.661 552.358 152.186 535.104 153.333 534.462C154.17 533.993 163.488 545.63 164.691 548.646C166.211 552.458 167.259 556.178 166.762 555.997C166.566 555.925 166.661 556.673 166.974 557.66C167.598 559.622 169.076 570.796 168.809 571.53C168.438 572.547 172.42 582.728 173.372 583.197C175.116 584.055 165.17 581.147 162.666 580.066C161.367 579.506 159.045 578.379 157.505 577.563ZM127.294 528.067C128.068 526.702 129.702 522.869 130.927 519.551C134.178 510.739 136.436 510.883 142.949 520.318L144.226 522.168L141.835 523.38C140.52 524.047 136.974 525.748 133.955 527.16C130.937 528.572 128.147 530.007 127.755 530.349C126.142 531.758 125.895 530.536 127.294 528.067V528.067ZM156.208 527.42C155.31 526.277 158.197 523.989 159.8 524.573C160.126 524.691 160.356 524.534 160.312 524.224C160.219 523.565 166.101 522.627 167.951 523.005C168.262 523.069 169.672 522.95 171.083 522.74C172.495 522.531 173.925 522.357 174.261 522.352C174.915 522.344 185.832 523.497 186.179 523.611C186.699 523.782 178.194 527.768 176.747 528.031C175.853 528.194 174.641 528.522 174.053 528.761C169.845 530.472 157.901 529.574 156.208 527.42V527.42ZM151.138 520.017C150.36 519.027 152.272 515.491 153.37 515.89C153.6 515.974 153.925 515.666 154.093 515.206C154.972 512.791 171.628 509.569 172.095 511.723C172.327 512.798 172.839 513.178 174.312 513.368C175.365 513.505 176.543 513.684 176.93 513.767C177.317 513.849 177.719 513.684 177.823 513.399C177.927 513.113 178.362 513.007 178.789 513.163C179.217 513.319 179.887 513.166 180.279 512.824C181.114 512.095 183.264 511.401 184.795 511.368C185.39 511.355 185.945 510.956 186.029 510.481C186.113 510.007 187.322 509.058 188.717 508.374C190.112 507.69 191.075 507.065 190.858 506.986C190.371 506.809 193.357 503.86 195.242 502.657C196.004 502.171 196.729 501.491 196.854 501.147C198.872 495.604 206.197 498.717 208.216 505.975C208.779 508 209.366 510.061 209.52 510.555C210.694 514.313 211.593 524.044 210.933 525.857C210.686 526.536 210.246 526.442 208.821 525.405C205.758 523.176 192.617 517.944 188.536 517.328C186.479 517.017 183.263 516.534 181.391 516.254C179.518 515.974 177.224 515.897 176.292 516.082C175.361 516.268 172.643 516.538 170.252 516.683C164.738 517.017 153.825 519.366 153.015 520.393C152.282 521.32 152.139 521.291 151.138 520.017V520.017ZM144.332 509.827C140.532 502.906 142.304 492.952 148.228 487.947C149.67 486.728 150.932 485.509 151.032 485.239C151.237 484.684 154.88 481.664 155.454 481.573C156.511 481.407 157.81 472.646 157.484 467.886C157.379 466.36 158.767 468.188 160.285 471.577C161.228 473.68 162.638 475.817 163.421 476.326C165.726 477.827 165.631 478.557 161.684 489.766L157.973 500.302L152.76 507.443C146.919 515.442 147.349 515.321 144.332 509.827V509.827ZM223.297 521.047C223.162 520.727 222.816 520.776 222.529 521.156C221.704 522.246 220.977 521.617 221.477 520.244C222.129 518.453 220.867 515.313 219.859 516.219C219.065 516.934 218.463 519.685 218.801 521.056C218.91 521.496 218.651 522.169 218.225 522.552C217.652 523.067 217.453 522.539 217.46 520.527C217.465 519.03 217.204 516.682 216.879 515.309C216.554 513.936 216.354 512.631 216.435 512.409C216.653 511.81 214.928 505.298 213.395 500.933L212.053 497.11L213.725 495.275C214.645 494.265 216.786 492.74 218.484 491.885C220.181 491.03 222.543 489.824 223.734 489.204C224.924 488.585 225.847 488.219 225.784 488.392C225.721 488.565 226.398 488.332 227.288 487.874C228.178 487.416 230.169 486.638 231.712 486.145C233.255 485.652 235.261 484.894 236.171 484.459L237.824 483.67L236.099 488.626C235.15 491.351 234.127 494.443 233.827 495.496C233.204 497.676 223.667 524.545 223.194 525.45C223.024 525.775 223.033 525.049 223.214 523.835C223.394 522.622 223.432 521.367 223.297 521.047V521.047ZM233.422 527.462C233.695 526.71 237.372 525.194 237.582 525.747C237.774 526.253 234.288 528.43 233.654 528.2C233.411 528.111 233.306 527.779 233.422 527.462V527.462ZM163.381 501.365C163.478 501.097 165.439 499.839 167.737 498.571C170.035 497.302 172.047 495.905 172.207 495.465C172.367 495.026 172.715 494.745 172.981 494.842C173.665 495.091 175.927 491.916 176.827 489.443C177.665 487.142 177.064 486.536 174.975 487.574C173.695 488.21 173.653 488.156 174.218 486.603L174.817 484.959L178.83 486.861C181.037 487.907 182.879 488.827 182.923 488.905C183.018 489.074 175.099 495.204 170.359 498.628C168.494 499.976 166.822 500.865 166.644 500.604C166.466 500.343 165.851 500.602 165.279 501.179C164.258 502.209 163.03 502.329 163.381 501.365V501.365ZM251.472 479.229C270.946 425.829 271.221 425.22 274.876 427.329C275.359 427.608 275.822 427.651 275.904 427.425C275.986 427.198 276.722 427.242 277.538 427.521C278.355 427.801 280.954 428.504 283.313 429.084C288.611 430.385 303.098 435.583 305.631 437.092C310.387 439.924 317.303 445.223 319.878 448.007L321.299 449.544L318.796 451.591C312.852 456.451 310.007 456.152 306.818 450.331C301.213 440.099 286.954 439.662 287.58 449.742C287.916 455.149 289.063 458.687 290.85 459.83C291.652 460.343 292.999 461.207 293.845 461.75C294.785 462.353 295.344 462.457 295.282 462.017C295.187 461.345 301.399 462.394 301.665 463.094C302.163 464.408 293.45 466.109 290.924 465.191C284.139 462.725 275.824 471.849 275.853 481.726C275.856 482.612 275.61 482.871 274.984 482.643C271.169 481.254 265.385 487.448 260.678 497.965C258.331 503.207 257.218 505.037 254.713 507.773C253.019 509.624 250.223 512.686 248.5 514.578C245.651 517.707 237.925 520.833 237.124 519.18C237.055 519.036 243.511 501.058 251.472 479.229V479.229ZM193.445 483.824C191.938 481.999 190.64 480.31 190.561 480.07C190.215 479.028 187.264 475.378 186.559 475.122C186.134 474.967 185.874 474.598 185.982 474.301C186.09 474.005 184.96 472.629 183.471 471.244C178.886 466.978 180.804 464.651 187.42 466.455C192.402 467.813 199.568 474.656 197.735 476.304C197.464 476.548 198.631 480.058 200.329 484.105C202.026 488.152 203.348 491.647 203.266 491.873C202.971 492.682 196.126 487.073 193.445 483.824V483.824ZM375.597 526.221C373.889 524.967 373.05 523.488 371.457 518.923C370.358 515.774 368.253 510.133 366.778 506.386L364.097 499.575L365.895 500.23C372.137 502.502 378.318 509.484 381.386 517.73C383.843 524.333 386.3 527.305 390.757 529.064C391.753 529.458 392.156 529.786 391.652 529.794C391.148 529.802 390.159 529.891 389.455 529.993C385.572 530.549 379.088 528.785 375.597 526.221V526.221ZM353.811 492.359C349.699 487.129 347.656 485.875 343.885 486.262C342.042 486.452 341.673 486.686 342.134 487.375C342.626 488.113 342.57 488.197 341.775 487.917C341.257 487.734 340.948 487.269 341.089 486.883C341.503 485.745 340.908 477.042 340.404 476.859C340.149 476.766 340.064 476.339 340.215 475.909C340.538 474.987 339.511 472.367 337.859 469.899C337.21 468.93 336.614 467.94 336.535 467.699C336.243 466.816 334.476 464.186 329.377 457.048C327.537 454.472 326.384 452.358 326.814 452.349C327.244 452.341 327.792 452.708 328.031 453.166C328.271 453.624 329.099 454.45 329.871 455.002C333.009 457.243 344.342 471.971 347.219 477.546C348.002 479.064 349.605 481.805 350.779 483.636C354.626 489.633 356.969 496.375 353.811 492.359ZM315.067 437.603C313.789 436.618 312.74 435.726 312.734 435.62C312.485 430.59 312.576 430.088 313.66 430.483C314.245 430.696 314.807 430.639 314.91 430.357C315.013 430.076 316.012 432.209 317.131 435.099C319.251 440.573 319.448 441.553 318.158 440.2C317.735 439.756 316.344 438.588 315.067 437.603V437.603ZM279.287 417.346C283.343 413.197 283.477 413.155 287.768 414.717C293.704 416.878 296.22 419.32 299.603 426.202L300.579 428.188L288.761 423.965L276.943 419.742L279.287 417.346ZM274.877 405.591C276.07 400.643 276.009 400.697 279.539 401.462L282.115 402.02L281.176 404.599C280.361 406.839 277.947 409.755 273.814 413.492C273.132 414.109 273.52 411.222 274.877 405.591V405.591ZM310.754 419.663C309.321 418.319 306.922 416.654 305.422 415.962C303.923 415.27 301.965 413.92 301.073 412.961C300.152 411.972 298.037 410.704 296.184 410.029C291.606 408.363 293.39 407.446 298.818 408.676C299.435 408.816 300.157 408.764 300.423 408.56C300.689 408.357 302.271 409.203 303.939 410.44C307.196 412.855 310.186 413.693 313.356 413.078C315.183 412.724 315.225 412.763 314.96 414.563C314.811 415.58 314.761 416.756 314.85 417.176C314.939 417.596 314.894 418.739 314.75 419.716C314.606 420.693 314.467 422.07 314.441 422.775C314.404 423.813 314.297 423.871 313.877 423.081C313.593 422.544 312.187 421.006 310.754 419.663ZM278.157 392.018C278.384 390.841 279.287 388.136 280.165 386.009L281.761 382.14L282.917 387.002L284.074 391.865L282.067 392.675C280.963 393.121 279.714 393.685 279.292 393.928C277.989 394.679 277.729 394.241 278.157 392.018V392.018ZM294.328 384.849C296.412 377.784 293.971 370.425 288.856 368.359L286.25 367.306L290.019 356.699C292.092 350.864 294.025 345.226 294.316 344.169C297.006 334.38 309.348 302.942 311.527 300.327C316.233 294.679 333.774 298.714 342.352 307.418C345.795 310.911 352.315 315.482 355.835 316.869C356.09 316.97 355.945 317.32 355.513 317.647C354.722 318.246 352.339 321.112 344.978 330.319C342.775 333.073 340.33 335.988 339.543 336.796C338.757 337.605 337.94 338.74 337.728 339.318C337.515 339.896 337.082 340.441 336.765 340.53C336.449 340.619 335.274 341.874 334.155 343.321C333.036 344.767 331.492 346.673 330.725 347.556C327.087 351.747 321.679 358.378 321.5 358.869C321.391 359.169 320.635 360.172 319.82 361.097C319.005 362.022 314.868 367.064 310.625 372.302C299.293 386.296 298.529 387.119 296.133 387.924C293.111 388.939 293.118 388.951 294.328 384.849L294.328 384.849ZM317.596 285.088C319.187 282.129 321.086 278.498 321.818 277.021C322.55 275.543 324.736 271.899 326.676 268.924C328.617 265.948 331.455 261.591 332.984 259.241C334.512 256.89 336.168 254.48 336.663 253.886C337.768 252.558 339.405 250.197 339.785 249.385C340.938 246.917 345.968 240.684 346.146 241.503C346.189 241.701 346.507 243.235 346.853 244.911C347.2 246.587 347.85 249.044 348.299 250.37L349.116 252.781L346.246 254.907C340.341 259.282 335.461 266.944 329.358 281.423C326.095 289.163 325.15 290.093 319.199 291.426C313.488 292.705 313.493 292.725 317.596 285.088V285.088ZM359.696 306.196C357.032 303.298 347.34 299.622 344.045 300.261C342.618 300.538 341.86 300.375 341.359 299.683C340.975 299.153 340.792 298.733 340.953 298.75C355.538 300.299 366.163 298.162 374.435 292.015C376.675 290.35 378.393 289.304 378.252 289.69C377.907 290.64 370.063 300.22 366.28 304.313C364.601 306.13 363.127 307.892 363.004 308.229C362.675 309.133 362.03 308.737 359.696 306.196L359.696 306.196ZM331.58 291.32C332.197 290.866 333.421 290.066 334.301 289.541C335.181 289.016 336.538 287.929 337.317 287.125C338.096 286.321 339.279 285.292 339.945 284.838C340.611 284.385 341.24 283.817 341.344 283.576C341.447 283.336 342.542 282.08 343.778 280.785C347.716 276.659 350.599 272.243 353.083 266.53L355.5 260.97L357.836 262.215C365.411 266.254 374.405 266.683 373.367 262.956C372.791 260.89 370.39 257.628 368.59 256.466C367.689 255.885 366.332 254.735 365.573 253.911C364.815 253.086 363.635 252.029 362.952 251.562C362.269 251.095 360.944 249.479 360.009 247.971C359.073 246.464 358.008 245.115 357.641 244.975C357.275 244.835 357.077 244.44 357.202 244.097C357.326 243.755 357.184 243.386 356.885 243.277C356.227 243.038 350.615 233.835 350.806 233.309C351.085 232.545 357.289 223.829 360.763 219.322C362.746 216.749 364.68 214.199 365.06 213.655C366.313 211.862 370.628 213.202 375.584 216.924C376.761 217.807 378.894 219.077 380.325 219.746C381.756 220.415 383.454 221.323 384.099 221.765C385.624 222.809 399.959 228.185 401.539 228.305C402.206 228.355 403.731 228.296 404.926 228.173C406.121 228.05 407.296 227.974 407.537 228.004C410.863 228.415 411.654 226.238 409.037 223.877C395.857 211.985 390.516 209.119 382.235 209.495C374.835 209.831 367.188 207.839 371.376 206.666C371.712 206.572 373.568 205.008 375.498 203.192C378.701 200.18 379.164 199.947 380.788 200.538C382.174 201.042 383.303 200.773 385.9 199.319C388.503 197.861 389.8 197.553 391.816 197.913C394.504 198.393 398.47 197.466 399.433 196.131C400.353 194.857 394.423 193.683 390.706 194.404C388.948 194.745 386.755 194.968 385.833 194.9L384.155 194.775L386.098 192.811C388.301 190.584 390.068 188.5 393.765 183.77C395.18 181.959 397.627 179.045 399.204 177.294C400.781 175.542 403.979 171.704 406.31 168.765C410.853 163.038 418.99 157.366 421.404 158.245C421.66 158.338 422.319 158.181 422.868 157.897C423.418 157.612 426.406 156.56 429.509 155.558C432.612 154.555 436.087 153.335 437.232 152.845C438.376 152.355 439.261 152.096 439.198 152.27C439.135 152.443 439.07 153.04 439.053 153.596C439.035 154.214 438.58 154.583 437.883 154.545C436.458 154.468 434.655 157.183 435.092 158.749C436.003 162.02 440.569 159.377 440.268 155.754C440.199 154.92 440.41 154.229 440.773 154.107C442.122 153.649 445.085 150.856 446.506 148.701C448.831 145.174 449.706 144.626 449.396 146.891C449.221 148.169 448.644 149.247 447.628 150.196C445.486 152.194 444.42 155.347 445.725 155.822C447.391 156.429 449.685 162.935 448.341 163.245C447.744 163.383 447.006 164.182 446.7 165.021C446.395 165.859 445.953 166.51 445.719 166.467C445.484 166.424 444.434 166.166 443.386 165.895C441.013 165.279 439.52 166.392 438.344 169.654C436.879 173.715 436.981 174.767 439.118 177.615C440.744 179.782 440.974 180.482 440.292 181.192C439.825 181.677 439.22 182.394 438.947 182.786C438.627 183.246 437.528 181.907 435.843 179.002C434.409 176.53 433.05 174.762 432.824 175.074C432.598 175.385 432.177 175.554 431.889 175.449C431.602 175.345 431.588 175.06 431.858 174.816C433.66 173.196 430.21 168.422 428.023 169.508C425.489 170.766 427.566 175.847 430.699 176.053C434.349 176.293 437.745 185.613 435.115 188.175C434.568 188.708 434.474 189.074 434.849 189.21C435.168 189.326 435.721 189.052 436.077 188.6C436.434 188.149 437.087 187.911 437.53 188.072C437.993 188.24 438.081 188.685 437.738 189.119C437.411 189.534 437.299 190.286 437.49 190.79C438.002 192.141 435.123 190.953 432.255 188.629C430.717 187.382 429.429 185.508 428.511 183.181C426.955 179.233 425.273 177.953 424.001 179.75C422.898 181.308 423.696 183.146 425.88 184.075C426.854 184.49 427.717 185.023 427.797 185.261C427.878 185.499 428.564 186.616 429.323 187.743L430.702 189.791L429.036 189.196C425.256 187.847 421.66 188.811 422.351 190.987C422.563 191.654 422.761 193.976 422.79 196.146C422.884 203.069 427.643 207.474 431.589 204.291C434.969 201.565 436.5 200.931 438.895 201.269C441.367 201.617 441.38 201.632 440.486 203.147C439.99 203.987 438.343 207.584 436.825 211.14L434.065 217.606L432.101 217.7C431.022 217.753 429.43 217.542 428.565 217.232C422.11 214.922 422.837 220.024 429.859 226.306C430.413 226.802 430.145 227.914 428.475 232.056C426.85 236.082 426.379 236.881 426.289 235.756C425.726 228.704 424.676 225.646 423.185 226.715C419.948 229.035 418.757 235.639 420.627 240.906C421.626 243.721 421.782 245.146 421.248 246.571L420.534 248.475L420.426 245.91C420.367 244.499 420.067 242.689 419.76 241.889C419.453 241.088 418.904 238.536 418.54 236.219C418.101 233.427 417.674 232.288 417.274 232.843C416.942 233.304 416.385 233.769 416.036 233.877C415.654 233.996 415.259 235.255 415.044 237.039C414.842 238.715 414 241.47 413.108 243.373C411.426 246.965 411.445 247.344 413.534 251.736C414.778 254.353 414.317 255.197 409.891 258.401C405.344 261.694 405.747 261.712 405.518 258.206C405.118 252.062 403.463 249.66 398.347 247.798C394.109 246.256 390.162 243.552 389.333 241.622C387.933 238.365 385.379 239.15 384.948 242.969C384.185 249.739 387.763 256.508 393.199 258.577C401.23 261.635 400.513 265.082 389.24 277.602C386.481 280.667 383.363 284.13 382.311 285.298L380.399 287.42L381.99 283.967C386.474 274.229 370.828 273.335 354.327 282.388C349.369 285.108 343.07 288.299 340.331 289.479C333.745 292.316 328.814 293.353 331.58 291.319L331.58 291.32ZM295.69 251.284C293.055 244.305 290.11 237.049 289.147 235.16C288.185 233.272 286.802 230.363 286.075 228.697L284.754 225.667L287.068 221.449C289.711 216.633 293.255 214.081 296.504 214.654C297.482 214.826 299.321 215.119 300.59 215.303C301.858 215.488 303.061 215.753 303.264 215.893C303.466 216.033 304.822 216.26 306.277 216.398C313.862 217.118 316.443 219.576 315.446 225.127C314.458 230.629 314.274 230.918 311.118 231.915C305.546 233.674 303.471 235.212 298.811 241.04C296.24 244.255 297.437 245.883 304.398 248.634C307.532 249.873 310.06 251.116 310.015 251.397C309.971 251.678 309.45 254.903 308.858 258.563C308.266 262.223 307.474 267.464 307.098 270.21C305.856 279.275 305.563 279.342 302.865 271.181C301.555 267.217 298.326 258.264 295.69 251.284ZM315.931 260.785C316.643 255.812 317.241 251.432 317.261 251.052C317.281 250.671 318.684 249.914 320.38 249.368C322.075 248.823 323.57 248.079 323.703 247.716C323.836 247.353 324.89 246.7 326.044 246.265L328.143 245.475L326.838 248.065C325.927 249.874 325.582 251.341 325.694 252.931C325.884 255.644 324.99 257.529 319.127 266.781C316.86 270.358 314.931 273.46 314.839 273.676C314.276 275.003 314.825 268.524 315.931 260.785V260.785ZM267.004 214.902C265.212 212.186 260.685 201.648 258.017 193.98C257.184 191.587 256.347 189.308 256.155 188.916C255.964 188.523 255.338 187.241 254.764 186.066C251.881 180.165 260.109 188.55 264.217 195.7C269.296 204.54 274.657 218.183 272.979 218.001C270.054 217.683 269.374 217.609 269.068 217.574C268.89 217.555 267.961 216.352 267.004 214.902V214.902ZM321.089 228.663L321.597 225.853L323.543 226.334C326.029 226.949 328.807 228.694 328.526 229.464C328.407 229.791 327.968 229.934 327.55 229.782C327.133 229.63 326.63 229.697 326.433 229.932C326.055 230.383 321.632 231.698 320.97 231.556C320.756 231.51 320.809 230.208 321.089 228.663ZM332.793 221.078C330.7 219.948 328.047 218.445 326.897 217.738L324.808 216.452L329.052 213.81L333.296 211.168L335.397 215.081C336.552 217.233 338.239 220.181 339.145 221.63C341.479 225.364 341.404 225.97 338.8 224.432C337.589 223.717 334.886 222.208 332.793 221.078V221.078ZM295.687 207.921C296.259 206.348 301.577 203.674 311.666 199.884C313.6 199.158 316.386 197.855 317.857 196.99C320.227 195.595 320.529 195.561 320.504 196.69C320.431 200.045 319.721 200.647 314.457 201.809C308.262 203.178 300.405 205.848 298.089 207.372C296.47 208.437 295.411 208.679 295.687 207.921V207.921ZM346.004 221.481C346.167 221.032 346.064 219.964 345.775 219.108C345.485 218.251 345.233 217.069 345.214 216.481C345.196 215.893 344.575 213.011 343.835 210.077C342.659 205.419 342.295 198.308 343.116 196.052C344.878 191.209 339.897 178.771 336.874 180.465C334.4 181.85 330.361 193.367 330.631 198.267L330.873 202.674L328.433 202.033C327.091 201.68 326.008 201.35 326.027 201.298C326.046 201.247 326.456 198.942 326.938 196.177C327.782 191.34 327.936 190.958 330.985 186.124C338.768 173.785 339.678 163.429 332.562 168.168C331.153 169.107 331.198 168.099 333.025 157.786C333.737 153.769 334.054 151.761 335.762 140.462C337.701 127.639 339.759 124.344 344.638 126.251C348.735 127.853 351.216 126.319 358.087 117.935C362.707 112.299 363.666 107.221 359.274 111.65C358.732 112.197 356.519 113.012 354.358 113.462C352.054 113.94 349.162 115.164 347.369 116.418C344.656 118.317 341.466 120.072 341.37 119.718C341.271 119.351 350.042 102.319 352.166 98.7528L354.638 94.6038L355.998 96.8006C356.951 98.3387 358.102 99.2676 359.835 99.8986C362.28 100.788 362.322 100.861 363.108 105.494C364.608 114.342 365.071 119.719 364.451 121.105C364.024 122.062 364.12 122.599 364.762 122.836C365.757 123.204 365.974 134.822 364.995 135.37C364.719 135.525 364.604 135.347 364.739 134.974C365.084 134.027 361.949 131.434 360.637 131.581C360.042 131.647 359.103 131.599 358.55 131.474C353.199 130.266 348.041 142.817 353.128 144.668C353.515 144.809 353.763 145.113 353.679 145.342C353.401 146.107 350.935 147.394 350.235 147.139C349.856 147.001 349.295 147.114 348.988 147.39C348.648 147.695 349.355 148.228 350.796 148.752C353.23 149.638 355.118 149.099 358.137 146.656L359.499 145.554L360.761 148.492C361.455 150.108 362.217 151.5 362.455 151.586C362.692 151.673 362.784 152.023 362.659 152.366C362.531 152.719 360.867 152.42 358.813 151.674C354.127 149.974 346.62 149.724 346.065 151.25C345.713 152.215 349.049 153.721 352.917 154.344C356.656 154.946 356.971 155.105 357.978 156.895C358.569 157.945 359.416 158.936 359.86 159.098C361.075 159.54 360.985 161.427 359.495 166.716C358.752 169.353 357.718 173.415 357.195 175.744C354.549 187.547 352.561 197.18 352.393 199.011C351.709 206.5 347.409 222.917 346.243 222.492C345.948 222.385 345.841 221.93 346.004 221.481V221.481ZM427.702 246.328C427.972 245.942 429.948 241.746 432.094 237.004C434.476 231.739 436.22 228.461 436.574 228.584C436.893 228.695 437.821 228.827 438.638 228.878L440.122 228.971L438.408 230.038C436.088 231.481 434.456 233.672 433.365 236.808C432.658 238.844 432.658 239.187 433.369 238.349C434.241 237.322 434.261 237.337 433.811 238.686C433.107 240.793 434.411 240.809 436.827 238.723C439.214 236.661 439.621 237.527 437.469 240.091C435.021 243.009 425.993 248.774 427.702 246.328V246.328ZM357.759 206.954C357.996 204.908 358.807 199.972 359.563 195.984C360.318 191.995 361.218 187.249 361.562 185.437C364.002 172.587 366.326 164.709 366.581 168.416C366.657 169.508 366.788 170.586 366.874 170.811C367.106 171.422 367.33 173.934 367.717 180.297L368.066 186.025L364.037 196.882C360.774 205.674 356.824 214.032 357.241 211.26C357.289 210.937 357.522 208.999 357.759 206.954V206.954ZM493.25 256.378C493.834 256.454 494.38 256.969 494.464 257.522C494.746 259.379 494.291 259.507 493.236 257.868C492.339 256.473 492.341 256.26 493.25 256.378ZM450.943 236.096C452.402 236.129 453.696 235.885 453.816 235.553C453.937 235.221 454.398 235.081 454.84 235.242C456.332 235.785 455.09 237.103 452.368 237.865C450.88 238.282 449.574 238.868 449.465 239.167C449.356 239.466 449.047 238.884 448.778 237.873L448.288 236.035L450.943 236.096V236.096ZM494.392 252.522C494.505 252.212 495.027 252.28 495.551 252.674C496.076 253.068 496.466 253.497 496.418 253.628C496.371 253.76 495.849 253.691 495.259 253.477C494.67 253.262 494.279 252.833 494.392 252.522ZM458.242 235.071C458.598 234.093 459.052 233.957 460.363 234.433L462.031 235.04L460.319 235.804C458.134 236.778 457.679 236.617 458.242 235.071L458.242 235.071ZM487.386 241.744C487.704 240.871 489.16 242.394 489.787 244.255C490.908 247.582 490.327 247.854 488.719 244.754C487.934 243.241 487.334 241.886 487.386 241.744ZM372.232 192.888C373.95 188.306 376.421 182.661 377.722 180.345C381.432 173.74 381.404 173.767 383.344 174.917C385.438 176.159 386.521 175.348 385.492 173.309C384.403 171.151 384.55 171.099 388.561 172.232C390.859 172.881 392.462 172.998 392.959 172.551C394.183 171.45 393.767 170.841 391.473 170.373C388.51 169.768 387.045 167.349 389.539 167.179C392.908 166.949 397.158 160.236 395.753 157.364C395.465 156.777 395.339 155.999 395.471 155.635C395.823 154.669 394.548 151.288 393.718 150.986C393.327 150.844 393.194 150.214 393.422 149.587C393.656 148.945 393.453 148.306 392.96 148.127C392.477 147.951 391.779 148.278 391.41 148.854C391.001 149.491 390.249 149.724 389.491 149.448C388.806 149.199 387.994 149.22 387.687 149.496C387.38 149.772 386.594 149.803 385.94 149.565C381.511 147.953 376.497 155.402 378.591 160.482C379.358 162.342 378.976 163.523 377.897 162.631C377.448 162.26 376.402 161.39 375.573 160.698C373.379 158.866 372.901 159.86 374.186 163.585C374.955 165.814 375.758 166.996 376.748 167.358C378.778 168.098 378.695 168.634 375.832 173.261C372.99 177.856 372.589 177.914 372.245 173.784C372.113 172.196 371.523 168.279 370.934 165.08C370.345 161.881 369.935 159.066 370.023 158.825C370.111 158.583 369.975 157.744 369.721 156.96C369.285 155.612 369.357 155.593 371.065 156.605C372.998 157.752 373.476 157.43 372.827 155.417C372.471 154.314 372.728 153.903 374.888 152.12C376.245 151 377.274 149.868 377.175 149.605C376.875 148.813 374.059 148.008 373.464 148.543C372.347 149.548 370.327 149.649 370.679 148.682C370.858 148.189 372.338 147.448 373.966 147.036C375.595 146.623 377.601 145.803 378.424 145.214C379.247 144.624 381.815 143.418 384.13 142.534C390.812 139.979 393.691 137.937 395.663 134.35L396.918 132.068L394.778 133.147C393.601 133.74 391.738 134.389 390.638 134.59C389.539 134.79 387.258 135.819 385.57 136.877C383.882 137.935 382.248 138.714 381.939 138.609C381.013 138.293 375.063 139.975 374.829 140.618C374.709 140.945 374.343 141.116 374.015 140.996C373.394 140.77 373.626 140.284 377.311 134.093L379.379 130.618L382.204 131.197C385.033 131.778 391.122 131.543 392.826 130.787C394.436 130.072 394.581 128.522 393.036 128.545C384.585 128.672 383.577 123.221 391.237 118.824L393.388 117.59L395.232 120.149C399.146 125.58 403.781 123.815 403.331 117.066C403.084 113.353 404.614 109.891 407.463 107.721C407.808 107.459 408.659 106.183 409.356 104.887C411.15 101.548 412.897 100.299 413.731 101.759C416.109 105.921 421.729 110.699 423.247 109.849C423.836 109.519 422.425 106.71 420.976 105.325C420.221 104.604 421.053 104.754 423.879 105.85L427.84 107.386L430.066 104.435C432.267 101.519 432.286 101.464 431.724 99.754C430.956 97.4132 431.844 93.8289 433.458 92.7572C435.127 91.6493 435.479 91.8597 435.213 93.8049C435.091 94.6973 435.642 96.3795 436.437 97.5432C437.703 99.3958 437.736 99.6678 436.705 99.7297C431.156 100.062 428.097 114.823 433.184 116.719C434.008 117.027 434.507 118.014 434.719 119.755C434.893 121.18 435.465 122.493 435.996 122.686C437.112 123.092 437.219 124.621 436.196 125.541C435.696 125.99 435.456 125.935 435.374 125.353C435.31 124.901 434.625 124.301 433.853 124.02C431.123 123.027 429.559 120.968 429.674 118.52C429.837 115.051 426.458 112.203 425.454 114.963C424.586 117.349 426.815 121.11 430.808 123.997C432.609 125.298 430.384 127.26 427.938 126.528C425.106 125.68 424.43 125.953 424.364 127.965C424.319 129.359 424.1 129.771 423.379 129.821C422.868 129.857 422.303 130.294 422.121 130.793C421.9 131.399 421.319 131.477 420.365 131.029C416.708 129.31 416.878 129.176 414.658 135.531C413.547 138.711 412.542 141.693 412.426 142.157C412.119 143.375 415.714 147.032 417.303 147.119C418.611 147.19 418.569 147.269 415.577 150.406C412.756 153.363 411.29 153.879 412.11 151.626C412.646 150.151 412.092 144.136 411.036 139.984C409.194 132.736 405.039 129.844 405.307 135.996C405.395 138.005 404.914 140.044 403.413 144.034C401.171 149.993 401.193 150.74 403.794 157.165L405.154 160.523L400.634 166.584C394.374 174.977 390.573 179.77 387.217 183.5C385.641 185.252 382.629 188.595 380.524 190.929C377.153 194.668 369.779 201.463 369.287 201.285C369.188 201.249 370.513 197.47 372.232 192.888L372.232 192.888ZM482.564 233.307C483.356 231.131 486.76 228.964 491.371 227.701C494.371 226.879 497.003 227.1 496.585 228.139C495.344 231.225 490.055 235.782 488.105 235.446C484.38 234.805 482.309 234.006 482.564 233.307V233.307ZM439.851 217.204C440.172 216.321 440.644 216.202 441.854 216.7C442.725 217.058 443.421 217.398 443.401 217.456C443.38 217.514 443.056 217.951 442.68 218.427C441.685 219.688 439.319 218.665 439.851 217.204V217.204ZM445.163 214.339C445.424 213.594 445.418 212.793 445.151 212.56C444.709 212.174 445.217 210.047 446.396 207.352C447.28 205.331 449.874 209.73 449.62 212.819C449.56 213.549 449.806 214.432 450.167 214.781C451.157 215.737 450.555 216.643 449.11 216.372C448.289 216.218 447.588 216.61 447.152 217.466C446.234 219.269 444.431 216.432 445.163 214.339ZM508.857 207.081C508.807 206.727 510.292 205.526 512.158 204.411C514.639 202.928 515.542 202.657 515.519 203.402C515.473 204.957 509.057 208.5 508.857 207.081V207.081ZM450.945 182.716C451.22 182.052 451.79 180.86 452.213 180.067C452.823 178.923 452.733 178.446 451.782 177.766C450.972 177.187 450.855 176.832 451.421 176.673C452.389 176.402 453.397 174.01 453.016 172.886C452.401 171.067 454.2 165.507 454.891 167.091C455.32 168.073 456.414 168.873 458.23 169.534L460.931 170.517L459.478 172.983C458.68 174.34 457.102 177.555 455.972 180.129C454.39 183.733 453.695 184.798 452.947 184.766C451.177 184.692 450.44 183.937 450.945 182.716V182.716ZM419.93 152.921C420.375 152.228 420.952 151.738 421.213 151.833C421.473 151.928 421.828 151.617 422.001 151.141C422.509 149.745 425.591 147.826 425.115 149.202C424.653 150.54 426.128 151.213 427.027 150.074C427.384 149.622 427.932 149.346 428.246 149.461C428.56 149.575 429.393 149.382 430.098 149.032C430.826 148.671 431.423 148.7 431.479 149.099C431.585 149.846 427.737 151.706 422.456 153.459C418.843 154.659 418.818 154.653 419.93 152.921V152.921ZM337.195 105.512C337.177 103.63 337.729 100.096 338.422 97.6588L339.681 93.2276L342.638 91.5604C345.835 89.7577 346.523 89.935 345.65 92.3355C345.341 93.1829 345.234 94.7475 345.411 95.8124C345.702 97.5631 345.392 98.4986 342.171 105.577C337.29 116.306 337.3 116.306 337.195 105.512V105.512ZM375.392 122.78C374.648 121.274 374.68 120.842 375.605 119.909C379.466 116.015 376.839 108.959 371.913 109.992C367.942 110.825 369.566 100.085 373.557 99.1143C376.597 98.3752 379.114 95.8222 379.797 92.7859C380.487 89.714 380.402 88.6185 379.533 89.4002C379.107 89.7832 378.622 89.2484 378.067 87.7818C376.681 84.1249 370.829 88.5783 369.615 94.2131C368.831 97.8564 368.527 97.4764 368.158 92.3868C367.781 87.1984 368.22 85.8431 371.125 83.2207C374.749 79.9509 376.306 78.0852 375.8 77.6203C374.837 76.735 370.246 77.9386 368.46 79.5446C366.785 81.0509 365.37 81.5264 365.761 80.4516C365.844 80.2261 367.416 78.9093 369.255 77.5256C371.095 76.1418 372.67 74.8165 372.756 74.5804C372.925 74.1158 377.149 71.1195 380.437 69.1318C381.559 68.4535 383.165 67.1855 384.007 66.3142C385.842 64.4154 386.297 64.8643 384.656 66.9542C382.151 70.1447 382.532 72.4869 385.214 70.38C387.793 68.3537 388.626 69.8506 386.283 72.3001C382.688 76.0585 382.358 81.5453 385.566 84.2305C386.422 84.9474 386.46 85.2211 385.735 85.4335C385.031 85.6394 385.09 85.8181 385.967 86.1455C388.28 87.0086 386.921 90.3855 384.329 90.2152C382.496 90.0947 382.288 90.7046 383.423 92.875L384.33 94.6104L382.942 94.6135C381.507 94.6167 378.918 96.0189 378.567 96.9828C378.457 97.2842 379.001 98.4164 379.776 99.4987C381.489 101.891 381.42 102.146 378.893 102.75C373.179 104.116 376.406 113.437 382.174 112.227C383.042 112.045 383.68 112.27 384.156 112.927C384.542 113.46 384.599 113.811 384.282 113.708C383.696 113.516 381.984 116.046 378.207 122.681C377.048 124.718 376.138 125.972 376.184 125.468C376.23 124.964 375.873 123.755 375.392 122.78L375.392 122.78ZM438.439 142.679C438.549 142.375 439.383 141.648 440.292 141.063C441.578 140.236 441.783 140.228 441.216 141.027C440.816 141.591 440.344 142.45 440.167 142.935C439.99 143.42 439.484 143.686 439.042 143.525C438.599 143.364 438.328 142.983 438.439 142.679ZM458.801 127.769C459.746 125.425 459.996 124.171 459.596 123.784C459.212 123.414 460.074 122.67 462.109 121.617C465.485 119.871 466.021 120.361 463.576 122.959C462.716 123.873 461.874 125.076 461.704 125.633C461.535 126.19 461.844 126.017 462.391 125.247C463.223 124.077 463.231 124.304 462.436 126.627C461.734 128.677 461.041 129.673 459.795 130.422C457.369 131.88 457.261 131.59 458.801 127.769V127.769ZM452.104 119.353C453.378 117.317 455.341 114.243 456.468 112.521C457.596 110.8 458.873 108.827 459.307 108.136C461.525 104.607 463.943 105.385 464.309 109.747C464.451 111.433 465.012 112.595 466.062 113.379L467.607 114.532L464.565 116.494C462.892 117.574 461.212 118.373 460.832 118.271C460.006 118.05 460.287 116.993 461.243 116.725C462.108 116.483 463.204 113.484 463.28 111.155C463.333 109.515 461.455 108.47 459.803 109.221C458.874 109.643 458.267 115.488 459.088 116.104C460.194 116.934 460.004 117.669 458.507 118.344C457.894 118.621 456.929 119.075 456.362 119.353C455.795 119.631 455.106 119.777 454.831 119.677C454.556 119.576 453.239 120.7 451.906 122.173C448.934 125.456 449.016 124.292 452.104 119.353L452.104 119.353ZM360.516 90.9749C359.197 90.4722 358.882 89.2315 359.78 88.0749C360.775 86.7936 361.291 87.3737 362.271 90.8749C362.757 92.6086 362.732 92.6982 361.969 91.9865C361.512 91.5607 360.858 91.1055 360.516 90.9749V90.9749ZM448.855 108.376C449.918 106.449 449.684 105.266 448.084 104.48C445.262 103.096 443.95 103.052 442.711 104.302L441.458 105.566L441.012 103.892C440.562 102.2 445.627 100.838 448.51 101.877C448.99 102.05 450.44 102.083 451.731 101.95C455.217 101.592 455.483 105.28 452.321 110.147C450.986 112.203 447.677 110.512 448.855 108.376ZM413.636 91.2945C413.14 91.114 412.927 90.8585 413.163 90.7266C413.398 90.5947 415.03 91.2351 416.788 92.1498L419.986 93.8128L417.551 94.8689L415.116 95.9249L414.827 93.7738C414.668 92.5906 414.132 91.475 413.636 91.2945V91.2945ZM487.719 119.053C486.528 118.195 484.893 117.058 484.084 116.526C482.7 115.616 482.827 115.558 486.263 115.543C491.145 115.522 491.874 116.021 491.679 119.251C491.531 121.696 491.451 121.861 490.701 121.263C490.251 120.905 488.909 119.91 487.719 119.053V119.053ZM396.165 82.9977C397.497 80.8077 399.509 79.1061 400.388 79.4262C401.743 79.9192 403.204 76.7125 402.315 75.1974C401.88 74.4566 400.808 72.0833 399.932 69.9236L398.339 65.9968L400.289 66.7066C402.642 67.5628 404.74 70.4356 406.215 74.8187C407.523 78.7049 407.62 78.3561 404.397 81.3827C402.971 82.7216 401.48 84.2327 401.084 84.7406C400.67 85.2724 399.573 85.4979 398.499 85.2723C397.473 85.0568 396.311 84.8138 395.917 84.7324C395.415 84.6288 395.49 84.1076 396.165 82.9977V82.9977ZM475.936 110.081C477.207 108.121 477.388 107.374 477.219 104.785L477.022 101.771L478.257 101.766C478.935 101.764 480.803 101.044 482.407 100.166C489.885 96.0752 485.181 106.932 477.606 111.248C474.146 113.22 473.978 113.103 475.936 110.081V110.081ZM412.475 82.0062C415.079 77.0346 416.6 75.8982 415.087 80.055C414.489 81.6984 413.774 82.8889 413.455 82.7727C413.142 82.6591 412.939 82.9322 413.002 83.3797C413.116 84.1919 410.766 86.9908 410.518 86.3371C410.447 86.1474 411.327 84.1985 412.475 82.0062V82.0062ZM486.814 109.861C486.995 109.364 487.544 108.851 488.034 108.719C488.525 108.588 489.259 108.047 489.667 107.517C490.092 106.965 490.958 106.754 491.698 107.023C492.408 107.281 493.862 107.626 494.93 107.788C496.015 107.953 496.528 108.217 496.093 108.387C495.665 108.555 494.799 109.218 494.17 109.86C493.54 110.503 492.61 110.883 492.102 110.704C491.595 110.525 490.435 110.547 489.525 110.754C487.318 111.254 486.415 110.957 486.814 109.861V109.861ZM317.664 37.9053C316.364 35.8102 316.117 34.6203 316.396 31.7973C316.816 27.5536 317.081 26.6997 317.576 28.0047C317.78 28.5441 318.806 29.2981 319.856 29.6801C321.745 30.3678 321.761 30.4227 321.397 35.1731C321.195 37.8122 321.016 40.4458 320.999 41.0255C320.957 42.4261 319.795 41.3392 317.664 37.9053V37.9053ZM351.948 48.7553C352.6 48.5326 357.657 51.6952 357.613 52.2984C357.48 54.1276 353.651 53.0217 352.695 50.878C352.188 49.7432 351.852 48.788 351.948 48.7553ZM383.274 49.9612C382.639 49.3522 382.282 48.4069 382.481 47.8607C382.68 47.3144 382.633 46.3158 382.378 45.6415C381.375 42.9953 382.45 43.4867 385.474 47.057L388.638 50.7914L386.659 50.8919C385.571 50.9471 384.624 51.0095 384.554 51.0305C384.485 51.0514 383.909 50.5703 383.274 49.9612V49.9612ZM383.901 43.1255C383.616 42.2468 383.625 41.6157 383.92 41.723C384.214 41.8303 384.689 42.6371 384.973 43.5158C385.258 44.3945 385.249 45.0256 384.955 44.9183C384.66 44.811 384.185 44.0042 383.901 43.1255ZM85.2324 669.366C85.357 669.024 85.2176 668.656 84.9228 668.548C84.6279 668.441 84.2847 668.633 84.1601 668.976C84.0356 669.318 84.1749 669.686 84.4698 669.793C84.7647 669.9 85.1079 669.708 85.2324 669.366ZM82.6949 666.328C82.8195 665.986 82.6659 665.613 82.3536 665.499C82.0414 665.386 81.833 665.627 81.8907 666.036C81.9484 666.444 82.102 666.817 82.2321 666.865C82.3621 666.912 82.5704 666.671 82.6949 666.328Z" fill="#1E1E1E" fill-opacity="0.04"/>
</svg>
